G04 start of page 8 for group -4015 idx -4015 *
G04 Title: (unknown), toppaste *
G04 Creator: pcb 20110918 *
G04 CreationDate: Sat 02 Feb 2013 07:47:55 PM GMT UTC *
G04 For: petersen *
G04 Format: Gerber/RS-274X *
G04 PCB-Dimensions: 230000 350000 *
G04 PCB-Coordinate-Origin: lower left *
%MOIN*%
%FSLAX25Y25*%
%LNTOPPASTE*%
%ADD130R,0.0244X0.0244*%
%ADD129R,0.0630X0.0630*%
%ADD128R,0.0117X0.0117*%
%ADD127R,0.1240X0.1240*%
%ADD126R,0.0098X0.0098*%
%ADD125R,0.0360X0.0360*%
%ADD124R,0.1220X0.1220*%
%ADD123R,0.0560X0.0560*%
%ADD122R,0.0157X0.0157*%
%ADD121R,0.0340X0.0340*%
%ADD120R,0.0512X0.0512*%
%ADD119R,0.0490X0.0490*%
%ADD118R,0.0945X0.0945*%
%ADD117R,0.0378X0.0378*%
G54D117*X154594Y91105D02*Y87011D01*
X160500Y98821D02*Y87011D01*
G54D118*Y102445D02*Y100555D01*
G54D117*X166406Y91105D02*Y87011D01*
G54D119*X138200Y90500D02*X141800D01*
X138200Y100500D02*X141800D01*
G54D120*X177543Y164893D02*Y164107D01*
X170457Y164893D02*Y164107D01*
X170414Y131893D02*Y131107D01*
X177500Y131893D02*Y131107D01*
X170457Y153893D02*Y153107D01*
X177543Y153893D02*Y153107D01*
X170457Y142893D02*Y142107D01*
X177543Y142893D02*Y142107D01*
X18543Y179893D02*Y179107D01*
X11457Y179893D02*Y179107D01*
X118808Y189393D02*Y188607D01*
X125894Y189393D02*Y188607D01*
G54D121*X85700Y150500D02*X86300D01*
X85700Y158300D02*X86300D01*
X77500Y154400D02*X78100D01*
X10500Y190300D02*Y189700D01*
X18300Y190300D02*Y189700D01*
X14400Y198500D02*Y197900D01*
G54D120*X51457Y140893D02*Y140107D01*
X58543Y140893D02*Y140107D01*
G54D122*X82477Y207434D02*Y203008D01*
X85626Y207434D02*Y203008D01*
X88776Y207434D02*Y203008D01*
X91925Y207434D02*Y203008D01*
X95075Y207434D02*Y203008D01*
X98225Y207434D02*Y203008D01*
X101374Y207434D02*Y203008D01*
X104524Y207434D02*Y203008D01*
X110066Y212977D02*X114492D01*
X110066Y216126D02*X114492D01*
X110066Y219276D02*X114492D01*
X110066Y222425D02*X114492D01*
X110066Y225575D02*X114492D01*
X110066Y228725D02*X114492D01*
X110066Y231874D02*X114492D01*
X110066Y235024D02*X114492D01*
X104523Y244992D02*Y240566D01*
X101374Y244992D02*Y240566D01*
X98224Y244992D02*Y240566D01*
X95075Y244992D02*Y240566D01*
X91925Y244992D02*Y240566D01*
X88775Y244992D02*Y240566D01*
X85626Y244992D02*Y240566D01*
X82476Y244992D02*Y240566D01*
X72508Y235023D02*X76934D01*
X72508Y231874D02*X76934D01*
X72508Y228724D02*X76934D01*
X72508Y225575D02*X76934D01*
X72508Y222425D02*X76934D01*
X72508Y219275D02*X76934D01*
X72508Y216126D02*X76934D01*
X72508Y212976D02*X76934D01*
G54D120*X168905Y261755D02*Y256245D01*
X157095Y261755D02*Y256245D01*
X145095Y246181D02*Y243819D01*
X156905Y246181D02*Y243819D01*
X171957Y244393D02*Y243607D01*
X179043Y244393D02*Y243607D01*
G54D121*X10500Y223800D02*Y223200D01*
X18300Y223800D02*Y223200D01*
X14400Y232000D02*Y231400D01*
G54D120*X62543Y318893D02*Y318107D01*
X55457Y318893D02*Y318107D01*
X84543Y319393D02*Y318607D01*
X77457Y319393D02*Y318607D01*
X53905Y334681D02*Y332319D01*
X42095Y334681D02*Y332319D01*
X98543Y193393D02*Y192607D01*
X91457Y193393D02*Y192607D01*
X54607Y203543D02*X55393D01*
X54607Y196457D02*X55393D01*
X110957Y284393D02*Y283607D01*
X118043Y284393D02*Y283607D01*
X69650Y246457D02*X70436D01*
X69650Y253543D02*X70436D01*
X94607Y280414D02*X95393D01*
X94607Y287500D02*X95393D01*
X51557Y150593D02*Y149807D01*
X58643Y150593D02*Y149807D01*
G54D119*X20000Y259300D02*Y255700D01*
X10000Y259300D02*Y255700D01*
G54D120*X80043Y309393D02*Y308607D01*
X72957Y309393D02*Y308607D01*
G54D119*X197405Y241300D02*Y237700D01*
X207405Y241300D02*Y237700D01*
G54D120*X33107Y261043D02*X33893D01*
X33107Y253957D02*X33893D01*
X78543Y140893D02*Y140107D01*
X71457Y140893D02*Y140107D01*
X41843Y204893D02*Y204107D01*
X34757Y204893D02*Y204107D01*
X180607Y258457D02*X181393D01*
X180607Y265543D02*X181393D01*
G54D121*X34500Y215300D02*Y214700D01*
X42300Y215300D02*Y214700D01*
X38400Y223500D02*Y222900D01*
G54D123*X12000Y280900D02*Y274300D01*
X21000Y280900D02*Y274300D01*
X30100Y280900D02*Y274300D01*
G54D124*X16500Y302000D02*X25500D01*
G54D120*X11457Y213393D02*Y212607D01*
X18543Y213393D02*Y212607D01*
X147937Y189393D02*Y188607D01*
X140851Y189393D02*Y188607D01*
X85095Y344181D02*Y341819D01*
X96905Y344181D02*Y341819D01*
X72607Y290457D02*X73393D01*
X72607Y297543D02*X73393D01*
X54914Y291893D02*Y291107D01*
X62000Y291893D02*Y291107D01*
X71819Y268595D02*X74181D01*
X71819Y280405D02*X74181D01*
G54D125*X190900Y304600D02*X192100D01*
X190900Y317500D02*X192100D01*
G54D120*X54914Y302893D02*Y302107D01*
X62000Y302893D02*Y302107D01*
X143043Y222393D02*Y221607D01*
X135957Y222393D02*Y221607D01*
X84543Y329393D02*Y328607D01*
X77457Y329393D02*Y328607D01*
X108957Y254393D02*Y253607D01*
X116043Y254393D02*Y253607D01*
G54D121*X51200Y160800D02*Y160200D01*
X59000Y160800D02*Y160200D01*
X55100Y169000D02*Y168400D01*
G54D120*X66957Y204393D02*Y203607D01*
X74043Y204393D02*Y203607D01*
X178107Y90500D02*X178893D01*
X178107Y97586D02*X178893D01*
X179107Y51957D02*X179893D01*
X179107Y59043D02*X179893D01*
X146957Y77393D02*Y76607D01*
X154043Y77393D02*Y76607D01*
G54D126*X88665Y69827D02*X90437D01*
X88665Y67858D02*X90437D01*
X88665Y65890D02*X90437D01*
X88665Y63921D02*X90437D01*
X88665Y61953D02*X90437D01*
X88665Y59984D02*X90437D01*
X88665Y58016D02*X90437D01*
X88665Y56047D02*X90437D01*
X88665Y54079D02*X90437D01*
X88665Y52110D02*X90437D01*
X88665Y50142D02*X90437D01*
X88665Y48173D02*X90437D01*
X93094Y46500D02*Y44728D01*
X95063Y46500D02*Y44728D01*
X97031Y46500D02*Y44728D01*
X99000Y46500D02*Y44728D01*
X100969Y46500D02*Y44728D01*
X102937Y46500D02*Y44728D01*
X104906Y46500D02*Y44728D01*
X107563Y48173D02*X109335D01*
X107563Y50142D02*X109335D01*
X107563Y52110D02*X109335D01*
X107563Y54079D02*X109335D01*
X107563Y56047D02*X109335D01*
X107563Y58016D02*X109335D01*
X107563Y59984D02*X109335D01*
X107563Y61953D02*X109335D01*
X107563Y63921D02*X109335D01*
X107563Y65890D02*X109335D01*
X107563Y67858D02*X109335D01*
X107563Y69827D02*X109335D01*
X104906Y73272D02*Y71500D01*
X102937Y73272D02*Y71500D01*
X100969Y73272D02*Y71500D01*
X99000Y73272D02*Y71500D01*
X97031Y73272D02*Y71500D01*
X95063Y73272D02*Y71500D01*
X93094Y73272D02*Y71500D01*
G54D127*X99000Y62938D02*Y55062D01*
G54D120*X125607Y59957D02*X126393D01*
X125607Y67043D02*X126393D01*
X107043Y90893D02*Y90107D01*
X99957Y90893D02*Y90107D01*
G54D128*X93461Y107436D02*X96217D01*
X93461Y105468D02*X96217D01*
X93461Y103500D02*X96217D01*
X93461Y101532D02*X96217D01*
X93461Y99564D02*X96217D01*
X110783D02*X113539D01*
X110783Y101532D02*X113539D01*
X110783Y103500D02*X113539D01*
X110783Y105468D02*X113539D01*
X110783Y107436D02*X113539D01*
G54D129*X171693Y287000D02*X177992D01*
X152008D02*X158307D01*
G54D130*X164240Y64497D02*Y62134D01*
X160500Y64497D02*Y62134D01*
X156760Y64497D02*Y62134D01*
Y54182D02*Y51819D01*
X160500Y54182D02*Y51819D01*
X164240Y54182D02*Y51819D01*
G54D120*X146607Y52957D02*X147393D01*
X146607Y60043D02*X147393D01*
M02*
