G04 start of page 9 for group -3984 idx -3984 *
G04 Title: (unknown), fab *
G04 Creator: pcb 20110918 *
G04 CreationDate: Sat 02 Feb 2013 07:47:55 PM GMT UTC *
G04 For: petersen *
G04 Format: Gerber/RS-274X *
G04 PCB-Dimensions: 230000 350000 *
G04 PCB-Coordinate-Origin: lower left *
%MOIN*%
%FSLAX25Y25*%
%LNFAB*%
%ADD133C,0.0100*%
%ADD132C,0.0060*%
%ADD131R,0.0080X0.0080*%
G54D131*X211400Y334600D02*X214600D01*
X211400D02*Y331400D01*
X214600D01*
Y334600D02*Y331400D01*
X209800Y336200D02*X216200D01*
X209800D02*Y329800D01*
X216200D01*
Y336200D02*Y329800D01*
X15400Y334600D02*X18600D01*
X15400D02*Y331400D01*
X18600D01*
Y334600D02*Y331400D01*
X13800Y336200D02*X20200D01*
X13800D02*Y329800D01*
X20200D01*
Y336200D02*Y329800D01*
X211400Y18600D02*X214600D01*
X211400D02*Y15400D01*
X214600D01*
Y18600D02*Y15400D01*
X209800Y20200D02*X216200D01*
X209800D02*Y13800D01*
X216200D01*
Y20200D02*Y13800D01*
X15400Y18600D02*X18600D01*
X15400D02*Y15400D01*
X18600D01*
Y18600D02*Y15400D01*
X13800Y20200D02*X20200D01*
X13800D02*Y13800D01*
X20200D01*
Y20200D02*Y13800D01*
X13400Y362850D02*X16600D01*
X13400D02*Y359650D01*
X16600D01*
Y362850D02*Y359650D01*
X11800Y364450D02*X18200D01*
X11800D02*Y358050D01*
X18200D01*
Y364450D02*Y358050D01*
G54D132*X135000Y363500D02*Y362750D01*
X136500Y361250D01*
X138000Y362750D01*
Y363500D02*Y362750D01*
X136500Y361250D02*Y357500D01*
X139800Y360500D02*X142050D01*
X139800Y357500D02*X142800D01*
X139800Y363500D02*Y357500D01*
Y363500D02*X142800D01*
X147600D02*X148350Y362750D01*
X145350Y363500D02*X147600D01*
X144600Y362750D02*X145350Y363500D01*
X144600Y362750D02*Y361250D01*
X145350Y360500D01*
X147600D01*
X148350Y359750D01*
Y358250D01*
X147600Y357500D02*X148350Y358250D01*
X145350Y357500D02*X147600D01*
X144600Y358250D02*X145350Y357500D01*
X98000Y360500D02*X101000Y363500D01*
X98000Y360500D02*X101750D01*
X101000Y363500D02*Y357500D01*
X45000Y358250D02*X45750Y357500D01*
X45000Y362750D02*Y358250D01*
Y362750D02*X45750Y363500D01*
X47250D01*
X48000Y362750D01*
Y358250D01*
X47250Y357500D02*X48000Y358250D01*
X45750Y357500D02*X47250D01*
X45000Y359000D02*X48000Y362000D01*
X49800Y357500D02*X50550D01*
X53100D02*X54600D01*
X53850Y363500D02*Y357500D01*
X52350Y362000D02*X53850Y363500D01*
X56400Y362750D02*X57150Y363500D01*
X59400D01*
X60150Y362750D01*
Y361250D01*
X56400Y357500D02*X60150Y361250D01*
X56400Y357500D02*X60150D01*
X61950D02*X64950Y360500D01*
Y362750D02*Y360500D01*
X64200Y363500D02*X64950Y362750D01*
X62700Y363500D02*X64200D01*
X61950Y362750D02*X62700Y363500D01*
X61950Y362750D02*Y361250D01*
X62700Y360500D01*
X64950D01*
X200700Y179500D02*G75*G03X202300Y179500I800J0D01*G01*
G75*G03X200700Y179500I-800J0D01*G01*
X199100D02*G75*G03X203900Y179500I2400J0D01*G01*
G75*G03X199100Y179500I-2400J0D01*G01*
X200700Y219500D02*G75*G03X202300Y219500I800J0D01*G01*
G75*G03X200700Y219500I-800J0D01*G01*
X199100D02*G75*G03X203900Y219500I2400J0D01*G01*
G75*G03X199100Y219500I-2400J0D01*G01*
X14200Y376250D02*G75*G03X15800Y376250I800J0D01*G01*
G75*G03X14200Y376250I-800J0D01*G01*
X12600D02*G75*G03X17400Y376250I2400J0D01*G01*
G75*G03X12600Y376250I-2400J0D01*G01*
X135000Y378500D02*Y377750D01*
X136500Y376250D01*
X138000Y377750D01*
Y378500D02*Y377750D01*
X136500Y376250D02*Y372500D01*
X139800Y375500D02*X142050D01*
X139800Y372500D02*X142800D01*
X139800Y378500D02*Y372500D01*
Y378500D02*X142800D01*
X147600D02*X148350Y377750D01*
X145350Y378500D02*X147600D01*
X144600Y377750D02*X145350Y378500D01*
X144600Y377750D02*Y376250D01*
X145350Y375500D01*
X147600D01*
X148350Y374750D01*
Y373250D01*
X147600Y372500D02*X148350Y373250D01*
X145350Y372500D02*X147600D01*
X144600Y373250D02*X145350Y372500D01*
X98000Y377750D02*X98750Y378500D01*
X101000D01*
X101750Y377750D01*
Y376250D01*
X98000Y372500D02*X101750Y376250D01*
X98000Y372500D02*X101750D01*
X45000Y373250D02*X45750Y372500D01*
X45000Y377750D02*Y373250D01*
Y377750D02*X45750Y378500D01*
X47250D01*
X48000Y377750D01*
Y373250D01*
X47250Y372500D02*X48000Y373250D01*
X45750Y372500D02*X47250D01*
X45000Y374000D02*X48000Y377000D01*
X49800Y372500D02*X50550D01*
X53100D02*X54600D01*
X53850Y378500D02*Y372500D01*
X52350Y377000D02*X53850Y378500D01*
X56400Y377750D02*X57150Y378500D01*
X59400D01*
X60150Y377750D01*
Y376250D01*
X56400Y372500D02*X60150Y376250D01*
X56400Y372500D02*X60150D01*
X61950Y373250D02*X62700Y372500D01*
X61950Y374750D02*Y373250D01*
Y374750D02*X62700Y375500D01*
X64200D01*
X64950Y374750D01*
Y373250D01*
X64200Y372500D02*X64950Y373250D01*
X62700Y372500D02*X64200D01*
X61950Y376250D02*X62700Y375500D01*
X61950Y377750D02*Y376250D01*
Y377750D02*X62700Y378500D01*
X64200D01*
X64950Y377750D01*
Y376250D01*
X64200Y375500D02*X64950Y376250D01*
X150600Y328900D02*X155400Y324100D01*
X150600D02*X155400Y328900D01*
X151400Y328100D02*X154600D01*
X151400D02*Y324900D01*
X154600D01*
Y328100D02*Y324900D01*
X12600Y393650D02*X17400Y388850D01*
X12600D02*X17400Y393650D01*
X13400Y392850D02*X16600D01*
X13400D02*Y389650D01*
X16600D01*
Y392850D02*Y389650D01*
X135000Y393500D02*Y392750D01*
X136500Y391250D01*
X138000Y392750D01*
Y393500D02*Y392750D01*
X136500Y391250D02*Y387500D01*
X139800Y390500D02*X142050D01*
X139800Y387500D02*X142800D01*
X139800Y393500D02*Y387500D01*
Y393500D02*X142800D01*
X147600D02*X148350Y392750D01*
X145350Y393500D02*X147600D01*
X144600Y392750D02*X145350Y393500D01*
X144600Y392750D02*Y391250D01*
X145350Y390500D01*
X147600D01*
X148350Y389750D01*
Y388250D01*
X147600Y387500D02*X148350Y388250D01*
X145350Y387500D02*X147600D01*
X144600Y388250D02*X145350Y387500D01*
X98750D02*X100250D01*
X99500Y393500D02*Y387500D01*
X98000Y392000D02*X99500Y393500D01*
X45000Y388250D02*X45750Y387500D01*
X45000Y392750D02*Y388250D01*
Y392750D02*X45750Y393500D01*
X47250D01*
X48000Y392750D01*
Y388250D01*
X47250Y387500D02*X48000Y388250D01*
X45750Y387500D02*X47250D01*
X45000Y389000D02*X48000Y392000D01*
X49800Y387500D02*X50550D01*
X52350Y388250D02*X53100Y387500D01*
X52350Y392750D02*Y388250D01*
Y392750D02*X53100Y393500D01*
X54600D01*
X55350Y392750D01*
Y388250D01*
X54600Y387500D02*X55350Y388250D01*
X53100Y387500D02*X54600D01*
X52350Y389000D02*X55350Y392000D01*
X57150Y393500D02*X60150D01*
X57150D02*Y390500D01*
X57900Y391250D01*
X59400D01*
X60150Y390500D01*
Y388250D01*
X59400Y387500D02*X60150Y388250D01*
X57900Y387500D02*X59400D01*
X57150Y388250D02*X57900Y387500D01*
X61950Y392750D02*X62700Y393500D01*
X64200D01*
X64950Y392750D01*
Y388250D01*
X64200Y387500D02*X64950Y388250D01*
X62700Y387500D02*X64200D01*
X61950Y388250D02*X62700Y387500D01*
Y390500D02*X64950D01*
X205000Y58700D02*Y52300D01*
X201800Y55500D02*X208200D01*
X203400Y57100D02*X206600D01*
X203400D02*Y53900D01*
X206600D01*
Y57100D02*Y53900D01*
X205000Y78700D02*Y72300D01*
X201800Y75500D02*X208200D01*
X203400Y77100D02*X206600D01*
X203400D02*Y73900D01*
X206600D01*
Y77100D02*Y73900D01*
X205000Y98700D02*Y92300D01*
X201800Y95500D02*X208200D01*
X203400Y97100D02*X206600D01*
X203400D02*Y93900D01*
X206600D01*
Y97100D02*Y93900D01*
X205000Y118700D02*Y112300D01*
X201800Y115500D02*X208200D01*
X203400Y117100D02*X206600D01*
X203400D02*Y113900D01*
X206600D01*
Y117100D02*Y113900D01*
X25000Y78700D02*Y72300D01*
X21800Y75500D02*X28200D01*
X23400Y77100D02*X26600D01*
X23400D02*Y73900D01*
X26600D01*
Y77100D02*Y73900D01*
X25000Y58700D02*Y52300D01*
X21800Y55500D02*X28200D01*
X23400Y57100D02*X26600D01*
X23400D02*Y53900D01*
X26600D01*
Y57100D02*Y53900D01*
X25000Y118700D02*Y112300D01*
X21800Y115500D02*X28200D01*
X23400Y117100D02*X26600D01*
X23400D02*Y113900D01*
X26600D01*
Y117100D02*Y113900D01*
X25000Y98700D02*Y92300D01*
X21800Y95500D02*X28200D01*
X23400Y97100D02*X26600D01*
X23400D02*Y93900D01*
X26600D01*
Y97100D02*Y93900D01*
X133000Y329700D02*Y323300D01*
X129800Y326500D02*X136200D01*
X131400Y328100D02*X134600D01*
X131400D02*Y324900D01*
X134600D01*
Y328100D02*Y324900D01*
X113000Y329700D02*Y323300D01*
X109800Y326500D02*X116200D01*
X111400Y328100D02*X114600D01*
X111400D02*Y324900D01*
X114600D01*
Y328100D02*Y324900D01*
X205000Y138700D02*Y132300D01*
X201800Y135500D02*X208200D01*
X203400Y137100D02*X206600D01*
X203400D02*Y133900D01*
X206600D01*
Y137100D02*Y133900D01*
X205000Y158700D02*Y152300D01*
X201800Y155500D02*X208200D01*
X203400Y157100D02*X206600D01*
X203400D02*Y153900D01*
X206600D01*
Y157100D02*Y153900D01*
X25000Y158700D02*Y152300D01*
X21800Y155500D02*X28200D01*
X23400Y157100D02*X26600D01*
X23400D02*Y153900D01*
X26600D01*
Y157100D02*Y153900D01*
X25000Y138700D02*Y132300D01*
X21800Y135500D02*X28200D01*
X23400Y137100D02*X26600D01*
X23400D02*Y133900D01*
X26600D01*
Y137100D02*Y133900D01*
X173000Y329700D02*Y323300D01*
X169800Y326500D02*X176200D01*
X171400Y328100D02*X174600D01*
X171400D02*Y324900D01*
X174600D01*
Y328100D02*Y324900D01*
X121000Y26200D02*Y19800D01*
X117800Y23000D02*X124200D01*
X119400Y24600D02*X122600D01*
X119400D02*Y21400D01*
X122600D01*
Y24600D02*Y21400D01*
X131000Y26200D02*Y19800D01*
X127800Y23000D02*X134200D01*
X129400Y24600D02*X132600D01*
X129400D02*Y21400D01*
X132600D01*
Y24600D02*Y21400D01*
X141000Y26200D02*Y19800D01*
X137800Y23000D02*X144200D01*
X139400Y24600D02*X142600D01*
X139400D02*Y21400D01*
X142600D01*
Y24600D02*Y21400D01*
X151000Y26200D02*Y19800D01*
X147800Y23000D02*X154200D01*
X149400Y24600D02*X152600D01*
X149400D02*Y21400D01*
X152600D01*
Y24600D02*Y21400D01*
X161000Y26200D02*Y19800D01*
X157800Y23000D02*X164200D01*
X159400Y24600D02*X162600D01*
X159400D02*Y21400D01*
X162600D01*
Y24600D02*Y21400D01*
X171000Y26200D02*Y19800D01*
X167800Y23000D02*X174200D01*
X169400Y24600D02*X172600D01*
X169400D02*Y21400D01*
X172600D01*
Y24600D02*Y21400D01*
X181000Y26200D02*Y19800D01*
X177800Y23000D02*X184200D01*
X179400Y24600D02*X182600D01*
X179400D02*Y21400D01*
X182600D01*
Y24600D02*Y21400D01*
X191000Y26200D02*Y19800D01*
X187800Y23000D02*X194200D01*
X189400Y24600D02*X192600D01*
X189400D02*Y21400D01*
X192600D01*
Y24600D02*Y21400D01*
X39000Y26200D02*Y19800D01*
X35800Y23000D02*X42200D01*
X37400Y24600D02*X40600D01*
X37400D02*Y21400D01*
X40600D01*
Y24600D02*Y21400D01*
X49000Y26200D02*Y19800D01*
X45800Y23000D02*X52200D01*
X47400Y24600D02*X50600D01*
X47400D02*Y21400D01*
X50600D01*
Y24600D02*Y21400D01*
X59000Y26200D02*Y19800D01*
X55800Y23000D02*X62200D01*
X57400Y24600D02*X60600D01*
X57400D02*Y21400D01*
X60600D01*
Y24600D02*Y21400D01*
X69000Y26200D02*Y19800D01*
X65800Y23000D02*X72200D01*
X67400Y24600D02*X70600D01*
X67400D02*Y21400D01*
X70600D01*
Y24600D02*Y21400D01*
X79000Y26200D02*Y19800D01*
X75800Y23000D02*X82200D01*
X77400Y24600D02*X80600D01*
X77400D02*Y21400D01*
X80600D01*
Y24600D02*Y21400D01*
X89000Y26200D02*Y19800D01*
X85800Y23000D02*X92200D01*
X87400Y24600D02*X90600D01*
X87400D02*Y21400D01*
X90600D01*
Y24600D02*Y21400D01*
X99000Y26200D02*Y19800D01*
X95800Y23000D02*X102200D01*
X97400Y24600D02*X100600D01*
X97400D02*Y21400D01*
X100600D01*
Y24600D02*Y21400D01*
X109000Y26200D02*Y19800D01*
X105800Y23000D02*X112200D01*
X107400Y24600D02*X110600D01*
X107400D02*Y21400D01*
X110600D01*
Y24600D02*Y21400D01*
X15000Y409450D02*Y403050D01*
X11800Y406250D02*X18200D01*
X13400Y407850D02*X16600D01*
X13400D02*Y404650D01*
X16600D01*
Y407850D02*Y404650D01*
X135000Y408500D02*Y407750D01*
X136500Y406250D01*
X138000Y407750D01*
Y408500D02*Y407750D01*
X136500Y406250D02*Y402500D01*
X139800Y405500D02*X142050D01*
X139800Y402500D02*X142800D01*
X139800Y408500D02*Y402500D01*
Y408500D02*X142800D01*
X147600D02*X148350Y407750D01*
X145350Y408500D02*X147600D01*
X144600Y407750D02*X145350Y408500D01*
X144600Y407750D02*Y406250D01*
X145350Y405500D01*
X147600D01*
X148350Y404750D01*
Y403250D01*
X147600Y402500D02*X148350Y403250D01*
X145350Y402500D02*X147600D01*
X144600Y403250D02*X145350Y402500D01*
X98000Y407750D02*X98750Y408500D01*
X100250D01*
X101000Y407750D01*
Y403250D01*
X100250Y402500D02*X101000Y403250D01*
X98750Y402500D02*X100250D01*
X98000Y403250D02*X98750Y402500D01*
Y405500D02*X101000D01*
X103550Y402500D02*X105050D01*
X104300Y408500D02*Y402500D01*
X102800Y407000D02*X104300Y408500D01*
X45000Y403250D02*X45750Y402500D01*
X45000Y407750D02*Y403250D01*
Y407750D02*X45750Y408500D01*
X47250D01*
X48000Y407750D01*
Y403250D01*
X47250Y402500D02*X48000Y403250D01*
X45750Y402500D02*X47250D01*
X45000Y404000D02*X48000Y407000D01*
X49800Y402500D02*X50550D01*
X52350Y403250D02*X53100Y402500D01*
X52350Y407750D02*Y403250D01*
Y407750D02*X53100Y408500D01*
X54600D01*
X55350Y407750D01*
Y403250D01*
X54600Y402500D02*X55350Y403250D01*
X53100Y402500D02*X54600D01*
X52350Y404000D02*X55350Y407000D01*
X57150Y405500D02*X60150Y408500D01*
X57150Y405500D02*X60900D01*
X60150Y408500D02*Y402500D01*
X62700Y403250D02*X63450Y402500D01*
X62700Y404750D02*Y403250D01*
Y404750D02*X63450Y405500D01*
X64950D01*
X65700Y404750D01*
Y403250D01*
X64950Y402500D02*X65700Y403250D01*
X63450Y402500D02*X64950D01*
X62700Y406250D02*X63450Y405500D01*
X62700Y407750D02*Y406250D01*
Y407750D02*X63450Y408500D01*
X64950D01*
X65700Y407750D01*
Y406250D01*
X64950Y405500D02*X65700Y406250D01*
X197500Y263000D02*Y259800D01*
Y263000D02*X200273Y264600D01*
X197500Y263000D02*X194727Y264600D01*
X195900Y263000D02*G75*G03X199100Y263000I1600J0D01*G01*
G75*G03X195900Y263000I-1600J0D01*G01*
X197500Y273000D02*Y269800D01*
Y273000D02*X200273Y274600D01*
X197500Y273000D02*X194727Y274600D01*
X195900Y273000D02*G75*G03X199100Y273000I1600J0D01*G01*
G75*G03X195900Y273000I-1600J0D01*G01*
X197500Y283000D02*Y279800D01*
Y283000D02*X200273Y284600D01*
X197500Y283000D02*X194727Y284600D01*
X195900Y283000D02*G75*G03X199100Y283000I1600J0D01*G01*
G75*G03X195900Y283000I-1600J0D01*G01*
X15000Y421250D02*Y418050D01*
Y421250D02*X17773Y422850D01*
X15000Y421250D02*X12227Y422850D01*
X13400Y421250D02*G75*G03X16600Y421250I1600J0D01*G01*
G75*G03X13400Y421250I-1600J0D01*G01*
X135000Y423500D02*Y422750D01*
X136500Y421250D01*
X138000Y422750D01*
Y423500D02*Y422750D01*
X136500Y421250D02*Y417500D01*
X139800Y420500D02*X142050D01*
X139800Y417500D02*X142800D01*
X139800Y423500D02*Y417500D01*
Y423500D02*X142800D01*
X147600D02*X148350Y422750D01*
X145350Y423500D02*X147600D01*
X144600Y422750D02*X145350Y423500D01*
X144600Y422750D02*Y421250D01*
X145350Y420500D01*
X147600D01*
X148350Y419750D01*
Y418250D01*
X147600Y417500D02*X148350Y418250D01*
X145350Y417500D02*X147600D01*
X144600Y418250D02*X145350Y417500D01*
X98000Y422750D02*X98750Y423500D01*
X100250D01*
X101000Y422750D01*
Y418250D01*
X100250Y417500D02*X101000Y418250D01*
X98750Y417500D02*X100250D01*
X98000Y418250D02*X98750Y417500D01*
Y420500D02*X101000D01*
X45000Y418250D02*X45750Y417500D01*
X45000Y422750D02*Y418250D01*
Y422750D02*X45750Y423500D01*
X47250D01*
X48000Y422750D01*
Y418250D01*
X47250Y417500D02*X48000Y418250D01*
X45750Y417500D02*X47250D01*
X45000Y419000D02*X48000Y422000D01*
X49800Y417500D02*X50550D01*
X52350Y418250D02*X53100Y417500D01*
X52350Y422750D02*Y418250D01*
Y422750D02*X53100Y423500D01*
X54600D01*
X55350Y422750D01*
Y418250D01*
X54600Y417500D02*X55350Y418250D01*
X53100Y417500D02*X54600D01*
X52350Y419000D02*X55350Y422000D01*
X57150Y420500D02*X60150Y423500D01*
X57150Y420500D02*X60900D01*
X60150Y423500D02*Y417500D01*
X62700Y423500D02*X65700D01*
X62700D02*Y420500D01*
X63450Y421250D01*
X64950D01*
X65700Y420500D01*
Y418250D01*
X64950Y417500D02*X65700Y418250D01*
X63450Y417500D02*X64950D01*
X62700Y418250D02*X63450Y417500D01*
X100400Y151100D02*X103600D01*
X100400D02*Y147900D01*
X103600D01*
Y151100D02*Y147900D01*
X100400Y141100D02*X103600D01*
X100400D02*Y137900D01*
X103600D01*
Y141100D02*Y137900D01*
X121400Y141100D02*X124600D01*
X121400D02*Y137900D01*
X124600D01*
Y141100D02*Y137900D01*
X131400Y141100D02*X134600D01*
X131400D02*Y137900D01*
X134600D01*
Y141100D02*Y137900D01*
X141400Y141100D02*X144600D01*
X141400D02*Y137900D01*
X144600D01*
Y141100D02*Y137900D01*
X121400Y151100D02*X124600D01*
X121400D02*Y147900D01*
X124600D01*
Y151100D02*Y147900D01*
X131400Y151100D02*X134600D01*
X131400D02*Y147900D01*
X134600D01*
Y151100D02*Y147900D01*
X141400Y151100D02*X144600D01*
X141400D02*Y147900D01*
X144600D01*
Y151100D02*Y147900D01*
X52400Y84100D02*X55600D01*
X52400D02*Y80900D01*
X55600D01*
Y84100D02*Y80900D01*
X52400Y74100D02*X55600D01*
X52400D02*Y70900D01*
X55600D01*
Y74100D02*Y70900D01*
X52400Y64100D02*X55600D01*
X52400D02*Y60900D01*
X55600D01*
Y64100D02*Y60900D01*
X62400Y84100D02*X65600D01*
X62400D02*Y80900D01*
X65600D01*
Y84100D02*Y80900D01*
X62400Y74100D02*X65600D01*
X62400D02*Y70900D01*
X65600D01*
Y74100D02*Y70900D01*
X62400Y64100D02*X65600D01*
X62400D02*Y60900D01*
X65600D01*
Y64100D02*Y60900D01*
X72400Y84100D02*X75600D01*
X72400D02*Y80900D01*
X75600D01*
Y84100D02*Y80900D01*
X72400Y74100D02*X75600D01*
X72400D02*Y70900D01*
X75600D01*
Y74100D02*Y70900D01*
X72400Y64100D02*X75600D01*
X72400D02*Y60900D01*
X75600D01*
Y64100D02*Y60900D01*
X52400Y106600D02*X55600D01*
X52400D02*Y103400D01*
X55600D01*
Y106600D02*Y103400D01*
X62400Y106600D02*X65600D01*
X62400D02*Y103400D01*
X65600D01*
Y106600D02*Y103400D01*
X72400Y106600D02*X75600D01*
X72400D02*Y103400D01*
X75600D01*
Y106600D02*Y103400D01*
X13400Y437850D02*X16600D01*
X13400D02*Y434650D01*
X16600D01*
Y437850D02*Y434650D01*
X135000Y438500D02*Y437750D01*
X136500Y436250D01*
X138000Y437750D01*
Y438500D02*Y437750D01*
X136500Y436250D02*Y432500D01*
X139800Y435500D02*X142050D01*
X139800Y432500D02*X142800D01*
X139800Y438500D02*Y432500D01*
Y438500D02*X142800D01*
X147600D02*X148350Y437750D01*
X145350Y438500D02*X147600D01*
X144600Y437750D02*X145350Y438500D01*
X144600Y437750D02*Y436250D01*
X145350Y435500D01*
X147600D01*
X148350Y434750D01*
Y433250D01*
X147600Y432500D02*X148350Y433250D01*
X145350Y432500D02*X147600D01*
X144600Y433250D02*X145350Y432500D01*
X98000Y437750D02*X98750Y438500D01*
X101000D01*
X101750Y437750D01*
Y436250D01*
X98000Y432500D02*X101750Y436250D01*
X98000Y432500D02*X101750D01*
X103550Y433250D02*X104300Y432500D01*
X103550Y437750D02*Y433250D01*
Y437750D02*X104300Y438500D01*
X105800D01*
X106550Y437750D01*
Y433250D01*
X105800Y432500D02*X106550Y433250D01*
X104300Y432500D02*X105800D01*
X103550Y434000D02*X106550Y437000D01*
X45000Y433250D02*X45750Y432500D01*
X45000Y437750D02*Y433250D01*
Y437750D02*X45750Y438500D01*
X47250D01*
X48000Y437750D01*
Y433250D01*
X47250Y432500D02*X48000Y433250D01*
X45750Y432500D02*X47250D01*
X45000Y434000D02*X48000Y437000D01*
X49800Y432500D02*X50550D01*
X52350Y433250D02*X53100Y432500D01*
X52350Y437750D02*Y433250D01*
Y437750D02*X53100Y438500D01*
X54600D01*
X55350Y437750D01*
Y433250D01*
X54600Y432500D02*X55350Y433250D01*
X53100Y432500D02*X54600D01*
X52350Y434000D02*X55350Y437000D01*
X57150Y437750D02*X57900Y438500D01*
X59400D01*
X60150Y437750D01*
Y433250D01*
X59400Y432500D02*X60150Y433250D01*
X57900Y432500D02*X59400D01*
X57150Y433250D02*X57900Y432500D01*
Y435500D02*X60150D01*
X61950Y433250D02*X62700Y432500D01*
X61950Y434750D02*Y433250D01*
Y434750D02*X62700Y435500D01*
X64200D01*
X64950Y434750D01*
Y433250D01*
X64200Y432500D02*X64950Y433250D01*
X62700Y432500D02*X64200D01*
X61950Y436250D02*X62700Y435500D01*
X61950Y437750D02*Y436250D01*
Y437750D02*X62700Y438500D01*
X64200D01*
X64950Y437750D01*
Y436250D01*
X64200Y435500D02*X64950Y436250D01*
X165700Y187000D02*G75*G03X167300Y187000I800J0D01*G01*
G75*G03X165700Y187000I-800J0D01*G01*
X175700Y192000D02*G75*G03X177300Y192000I800J0D01*G01*
G75*G03X175700Y192000I-800J0D01*G01*
X165700Y197000D02*G75*G03X167300Y197000I800J0D01*G01*
G75*G03X165700Y197000I-800J0D01*G01*
X175700Y202000D02*G75*G03X177300Y202000I800J0D01*G01*
G75*G03X175700Y202000I-800J0D01*G01*
X165700Y207000D02*G75*G03X167300Y207000I800J0D01*G01*
G75*G03X165700Y207000I-800J0D01*G01*
X175700Y212000D02*G75*G03X177300Y212000I800J0D01*G01*
G75*G03X175700Y212000I-800J0D01*G01*
X14200Y451250D02*G75*G03X15800Y451250I800J0D01*G01*
G75*G03X14200Y451250I-800J0D01*G01*
X135000Y453500D02*Y452750D01*
X136500Y451250D01*
X138000Y452750D01*
Y453500D02*Y452750D01*
X136500Y451250D02*Y447500D01*
X139800Y450500D02*X142050D01*
X139800Y447500D02*X142800D01*
X139800Y453500D02*Y447500D01*
Y453500D02*X142800D01*
X147600D02*X148350Y452750D01*
X145350Y453500D02*X147600D01*
X144600Y452750D02*X145350Y453500D01*
X144600Y452750D02*Y451250D01*
X145350Y450500D01*
X147600D01*
X148350Y449750D01*
Y448250D01*
X147600Y447500D02*X148350Y448250D01*
X145350Y447500D02*X147600D01*
X144600Y448250D02*X145350Y447500D01*
X100250Y453500D02*X101000Y452750D01*
X98750Y453500D02*X100250D01*
X98000Y452750D02*X98750Y453500D01*
X98000Y452750D02*Y448250D01*
X98750Y447500D01*
X100250Y450500D02*X101000Y449750D01*
X98000Y450500D02*X100250D01*
X98750Y447500D02*X100250D01*
X101000Y448250D01*
Y449750D02*Y448250D01*
X45000D02*X45750Y447500D01*
X45000Y452750D02*Y448250D01*
Y452750D02*X45750Y453500D01*
X47250D01*
X48000Y452750D01*
Y448250D01*
X47250Y447500D02*X48000Y448250D01*
X45750Y447500D02*X47250D01*
X45000Y449000D02*X48000Y452000D01*
X49800Y447500D02*X50550D01*
X52350Y448250D02*X53100Y447500D01*
X52350Y452750D02*Y448250D01*
Y452750D02*X53100Y453500D01*
X54600D01*
X55350Y452750D01*
Y448250D01*
X54600Y447500D02*X55350Y448250D01*
X53100Y447500D02*X54600D01*
X52350Y449000D02*X55350Y452000D01*
X57150Y452750D02*X57900Y453500D01*
X59400D01*
X60150Y452750D01*
Y448250D01*
X59400Y447500D02*X60150Y448250D01*
X57900Y447500D02*X59400D01*
X57150Y448250D02*X57900Y447500D01*
Y450500D02*X60150D01*
X61950Y453500D02*X64950D01*
X61950D02*Y450500D01*
X62700Y451250D01*
X64200D01*
X64950Y450500D01*
Y448250D01*
X64200Y447500D02*X64950Y448250D01*
X62700Y447500D02*X64200D01*
X61950Y448250D02*X62700Y447500D01*
X43186Y311448D02*X45586Y309048D01*
X43186D02*X45586Y311448D01*
X43186Y303574D02*X45586Y301174D01*
X43186D02*X45586Y303574D01*
X43186Y295700D02*X45586Y293300D01*
X43186D02*X45586Y295700D01*
X43186Y287826D02*X45586Y285426D01*
X43186D02*X45586Y287826D01*
X43186Y279952D02*X45586Y277552D01*
X43186D02*X45586Y279952D01*
X43186Y272078D02*X45586Y269678D01*
X43186D02*X45586Y272078D01*
X43186Y264204D02*X45586Y261804D01*
X43186D02*X45586Y264204D01*
X43186Y256330D02*X45586Y253930D01*
X43186D02*X45586Y256330D01*
X43186Y248456D02*X45586Y246056D01*
X43186D02*X45586Y248456D01*
X43186Y240582D02*X45586Y238182D01*
X43186D02*X45586Y240582D01*
X129800Y311448D02*X132200Y309048D01*
X129800D02*X132200Y311448D01*
X129800Y303574D02*X132200Y301174D01*
X129800D02*X132200Y303574D01*
X129800Y295700D02*X132200Y293300D01*
X129800D02*X132200Y295700D01*
X129800Y287826D02*X132200Y285426D01*
X129800D02*X132200Y287826D01*
X129800Y279952D02*X132200Y277552D01*
X129800D02*X132200Y279952D01*
X129800Y272078D02*X132200Y269678D01*
X129800D02*X132200Y272078D01*
X129800Y264204D02*X132200Y261804D01*
X129800D02*X132200Y264204D01*
X129800Y256330D02*X132200Y253930D01*
X129800D02*X132200Y256330D01*
X129800Y248456D02*X132200Y246056D01*
X129800D02*X132200Y248456D01*
X129800Y240582D02*X132200Y238182D01*
X129800D02*X132200Y240582D01*
X13800Y467450D02*X16200Y465050D01*
X13800D02*X16200Y467450D01*
X135000Y468500D02*Y467750D01*
X136500Y466250D01*
X138000Y467750D01*
Y468500D02*Y467750D01*
X136500Y466250D02*Y462500D01*
X139800Y465500D02*X142050D01*
X139800Y462500D02*X142800D01*
X139800Y468500D02*Y462500D01*
Y468500D02*X142800D01*
X147600D02*X148350Y467750D01*
X145350Y468500D02*X147600D01*
X144600Y467750D02*X145350Y468500D01*
X144600Y467750D02*Y466250D01*
X145350Y465500D01*
X147600D01*
X148350Y464750D01*
Y463250D01*
X147600Y462500D02*X148350Y463250D01*
X145350Y462500D02*X147600D01*
X144600Y463250D02*X145350Y462500D01*
X98000Y467750D02*X98750Y468500D01*
X101000D01*
X101750Y467750D01*
Y466250D01*
X98000Y462500D02*X101750Y466250D01*
X98000Y462500D02*X101750D01*
X103550Y463250D02*X104300Y462500D01*
X103550Y467750D02*Y463250D01*
Y467750D02*X104300Y468500D01*
X105800D01*
X106550Y467750D01*
Y463250D01*
X105800Y462500D02*X106550Y463250D01*
X104300Y462500D02*X105800D01*
X103550Y464000D02*X106550Y467000D01*
X45000Y463250D02*X45750Y462500D01*
X45000Y467750D02*Y463250D01*
Y467750D02*X45750Y468500D01*
X47250D01*
X48000Y467750D01*
Y463250D01*
X47250Y462500D02*X48000Y463250D01*
X45750Y462500D02*X47250D01*
X45000Y464000D02*X48000Y467000D01*
X49800Y462500D02*X50550D01*
X52350Y463250D02*X53100Y462500D01*
X52350Y467750D02*Y463250D01*
Y467750D02*X53100Y468500D01*
X54600D01*
X55350Y467750D01*
Y463250D01*
X54600Y462500D02*X55350Y463250D01*
X53100Y462500D02*X54600D01*
X52350Y464000D02*X55350Y467000D01*
X57150Y467750D02*X57900Y468500D01*
X59400D01*
X60150Y467750D01*
Y463250D01*
X59400Y462500D02*X60150Y463250D01*
X57900Y462500D02*X59400D01*
X57150Y463250D02*X57900Y462500D01*
Y465500D02*X60150D01*
X61950Y467750D02*X62700Y468500D01*
X64950D01*
X65700Y467750D01*
Y466250D01*
X61950Y462500D02*X65700Y466250D01*
X61950Y462500D02*X65700D01*
X88500Y271100D02*Y267900D01*
X86900Y269500D02*X90100D01*
X98500Y271100D02*Y267900D01*
X96900Y269500D02*X100100D01*
X108500Y271100D02*Y267900D01*
X106900Y269500D02*X110100D01*
X118500Y271100D02*Y267900D01*
X116900Y269500D02*X120100D01*
X118500Y301100D02*Y297900D01*
X116900Y299500D02*X120100D01*
X108500Y301100D02*Y297900D01*
X106900Y299500D02*X110100D01*
X98500Y301100D02*Y297900D01*
X96900Y299500D02*X100100D01*
X88500Y301100D02*Y297900D01*
X86900Y299500D02*X90100D01*
X15000Y482850D02*Y479650D01*
X13400Y481250D02*X16600D01*
X135000Y483500D02*Y482750D01*
X136500Y481250D01*
X138000Y482750D01*
Y483500D02*Y482750D01*
X136500Y481250D02*Y477500D01*
X139800Y480500D02*X142050D01*
X139800Y477500D02*X142800D01*
X139800Y483500D02*Y477500D01*
Y483500D02*X142800D01*
X147600D02*X148350Y482750D01*
X145350Y483500D02*X147600D01*
X144600Y482750D02*X145350Y483500D01*
X144600Y482750D02*Y481250D01*
X145350Y480500D01*
X147600D01*
X148350Y479750D01*
Y478250D01*
X147600Y477500D02*X148350Y478250D01*
X145350Y477500D02*X147600D01*
X144600Y478250D02*X145350Y477500D01*
X98000Y478250D02*X98750Y477500D01*
X98000Y479750D02*Y478250D01*
Y479750D02*X98750Y480500D01*
X100250D01*
X101000Y479750D01*
Y478250D01*
X100250Y477500D02*X101000Y478250D01*
X98750Y477500D02*X100250D01*
X98000Y481250D02*X98750Y480500D01*
X98000Y482750D02*Y481250D01*
Y482750D02*X98750Y483500D01*
X100250D01*
X101000Y482750D01*
Y481250D01*
X100250Y480500D02*X101000Y481250D01*
X45000Y478250D02*X45750Y477500D01*
X45000Y482750D02*Y478250D01*
Y482750D02*X45750Y483500D01*
X47250D01*
X48000Y482750D01*
Y478250D01*
X47250Y477500D02*X48000Y478250D01*
X45750Y477500D02*X47250D01*
X45000Y479000D02*X48000Y482000D01*
X49800Y477500D02*X50550D01*
X52350Y478250D02*X53100Y477500D01*
X52350Y482750D02*Y478250D01*
Y482750D02*X53100Y483500D01*
X54600D01*
X55350Y482750D01*
Y478250D01*
X54600Y477500D02*X55350Y478250D01*
X53100Y477500D02*X54600D01*
X52350Y479000D02*X55350Y482000D01*
X57150Y482750D02*X57900Y483500D01*
X60150D01*
X60900Y482750D01*
Y481250D01*
X57150Y477500D02*X60900Y481250D01*
X57150Y477500D02*X60900D01*
X62700Y478250D02*X63450Y477500D01*
X62700Y479750D02*Y478250D01*
Y479750D02*X63450Y480500D01*
X64950D01*
X65700Y479750D01*
Y478250D01*
X64950Y477500D02*X65700Y478250D01*
X63450Y477500D02*X64950D01*
X62700Y481250D02*X63450Y480500D01*
X62700Y482750D02*Y481250D01*
Y482750D02*X63450Y483500D01*
X64950D01*
X65700Y482750D01*
Y481250D01*
X64950Y480500D02*X65700Y481250D01*
X123894Y173000D02*Y171400D01*
Y173000D02*X125281Y173800D01*
X123894Y173000D02*X122507Y173800D01*
X143106Y173000D02*Y171400D01*
Y173000D02*X144493Y173800D01*
X143106Y173000D02*X141719Y173800D01*
X171500Y123000D02*Y121400D01*
Y123000D02*X172887Y123800D01*
X171500Y123000D02*X170113Y123800D01*
X177500Y123000D02*Y121400D01*
Y123000D02*X178887Y123800D01*
X177500Y123000D02*X176113Y123800D01*
X183500Y125500D02*Y123900D01*
Y125500D02*X184887Y126300D01*
X183500Y125500D02*X182113Y126300D01*
X183500Y130500D02*Y128900D01*
Y130500D02*X184887Y131300D01*
X183500Y130500D02*X182113Y131300D01*
X88000Y131000D02*Y129400D01*
Y131000D02*X89387Y131800D01*
X88000Y131000D02*X86613Y131800D01*
X83000Y131000D02*Y129400D01*
Y131000D02*X84387Y131800D01*
X83000Y131000D02*X81613Y131800D01*
X165000Y135500D02*Y133900D01*
Y135500D02*X166387Y136300D01*
X165000Y135500D02*X163613Y136300D01*
X170500Y175500D02*Y173900D01*
Y175500D02*X171887Y176300D01*
X170500Y175500D02*X169113Y176300D01*
X161500Y201000D02*Y199400D01*
Y201000D02*X162887Y201800D01*
X161500Y201000D02*X160113Y201800D01*
X138500Y291500D02*Y289900D01*
Y291500D02*X139887Y292300D01*
X138500Y291500D02*X137113Y292300D01*
X138500Y287000D02*Y285400D01*
Y287000D02*X139887Y287800D01*
X138500Y287000D02*X137113Y287800D01*
X138500Y309500D02*Y307900D01*
Y309500D02*X139887Y310300D01*
X138500Y309500D02*X137113Y310300D01*
X158000Y169500D02*Y167900D01*
Y169500D02*X159387Y170300D01*
X158000Y169500D02*X156613Y170300D01*
X153000Y138500D02*Y136900D01*
Y138500D02*X154387Y139300D01*
X153000Y138500D02*X151613Y139300D01*
X83500Y165000D02*Y163400D01*
Y165000D02*X84887Y165800D01*
X83500Y165000D02*X82113Y165800D01*
X138000Y162500D02*Y160900D01*
Y162500D02*X139387Y163300D01*
X138000Y162500D02*X136613Y163300D01*
X119500Y157500D02*Y155900D01*
Y157500D02*X120887Y158300D01*
X119500Y157500D02*X118113Y158300D01*
X81500Y182000D02*Y180400D01*
Y182000D02*X82887Y182800D01*
X81500Y182000D02*X80113Y182800D01*
X77000Y182000D02*Y180400D01*
Y182000D02*X78387Y182800D01*
X77000Y182000D02*X75613Y182800D01*
X88000Y174000D02*Y172400D01*
Y174000D02*X89387Y174800D01*
X88000Y174000D02*X86613Y174800D01*
X92000Y170500D02*Y168900D01*
Y170500D02*X93387Y171300D01*
X92000Y170500D02*X90613Y171300D01*
X96500Y169500D02*Y167900D01*
Y169500D02*X97887Y170300D01*
X96500Y169500D02*X95113Y170300D01*
X86000Y182000D02*Y180400D01*
Y182000D02*X87387Y182800D01*
X86000Y182000D02*X84613Y182800D01*
X85500Y193000D02*Y191400D01*
Y193000D02*X86887Y193800D01*
X85500Y193000D02*X84113Y193800D01*
X138500Y296000D02*Y294400D01*
Y296000D02*X139887Y296800D01*
X138500Y296000D02*X137113Y296800D01*
X55000Y192000D02*Y190400D01*
Y192000D02*X56387Y192800D01*
X55000Y192000D02*X53613Y192800D01*
X69000Y222500D02*Y220900D01*
Y222500D02*X70387Y223300D01*
X69000Y222500D02*X67613Y223300D01*
X138500Y273500D02*Y271900D01*
Y273500D02*X139887Y274300D01*
X138500Y273500D02*X137113Y274300D01*
X62500Y192000D02*Y190400D01*
Y192000D02*X63887Y192800D01*
X62500Y192000D02*X61113Y192800D01*
X75000Y164000D02*Y162400D01*
Y164000D02*X76387Y164800D01*
X75000Y164000D02*X73613Y164800D01*
X36500Y170000D02*Y168400D01*
Y170000D02*X37887Y170800D01*
X36500Y170000D02*X35113Y170800D01*
X108000Y165000D02*Y163400D01*
Y165000D02*X109387Y165800D01*
X108000Y165000D02*X106613Y165800D01*
X101000Y169500D02*Y167900D01*
Y169500D02*X102387Y170300D01*
X101000Y169500D02*X99613Y170300D01*
X109500Y197500D02*Y195900D01*
Y197500D02*X110887Y198300D01*
X109500Y197500D02*X108113Y198300D01*
X127000Y203000D02*Y201400D01*
Y203000D02*X128387Y203800D01*
X127000Y203000D02*X125613Y203800D01*
X157500Y209000D02*Y207400D01*
Y209000D02*X158887Y209800D01*
X157500Y209000D02*X156113Y209800D01*
X112500Y204500D02*Y202900D01*
Y204500D02*X113887Y205300D01*
X112500Y204500D02*X111113Y205300D01*
X117000Y203000D02*Y201400D01*
Y203000D02*X118387Y203800D01*
X117000Y203000D02*X115613Y203800D01*
X143000Y203000D02*Y201400D01*
Y203000D02*X144387Y203800D01*
X143000Y203000D02*X141613Y203800D01*
X148000Y203000D02*Y201400D01*
Y203000D02*X149387Y203800D01*
X148000Y203000D02*X146613Y203800D01*
X153000Y203000D02*Y201400D01*
Y203000D02*X154387Y203800D01*
X153000Y203000D02*X151613Y203800D01*
X72500Y182000D02*Y180400D01*
Y182000D02*X73887Y182800D01*
X72500Y182000D02*X71113Y182800D01*
X112500Y209000D02*Y207400D01*
Y209000D02*X113887Y209800D01*
X112500Y209000D02*X111113Y209800D01*
X71500Y169500D02*Y167900D01*
Y169500D02*X72887Y170300D01*
X71500Y169500D02*X70113Y170300D01*
X78500Y204500D02*Y202900D01*
Y204500D02*X79887Y205300D01*
X78500Y204500D02*X77113Y205300D01*
X89500Y199000D02*Y197400D01*
Y199000D02*X90887Y199800D01*
X89500Y199000D02*X88113Y199800D01*
X94500Y199000D02*Y197400D01*
Y199000D02*X95887Y199800D01*
X94500Y199000D02*X93113Y199800D01*
X56500Y227500D02*Y225900D01*
Y227500D02*X57887Y228300D01*
X56500Y227500D02*X55113Y228300D01*
X51000Y173500D02*Y171900D01*
Y173500D02*X52387Y174300D01*
X51000Y173500D02*X49613Y174300D01*
X80500Y225500D02*Y223900D01*
Y225500D02*X81887Y226300D01*
X80500Y225500D02*X79113Y226300D01*
X64000Y222500D02*Y220900D01*
Y222500D02*X65387Y223300D01*
X64000Y222500D02*X62613Y223300D01*
X59000Y222500D02*Y220900D01*
Y222500D02*X60387Y223300D01*
X59000Y222500D02*X57613Y223300D01*
X25500Y213000D02*Y211400D01*
Y213000D02*X26887Y213800D01*
X25500Y213000D02*X24113Y213800D01*
X10500Y207500D02*Y205900D01*
Y207500D02*X11887Y208300D01*
X10500Y207500D02*X9113Y208300D01*
X25000Y188000D02*Y186400D01*
Y188000D02*X26387Y188800D01*
X25000Y188000D02*X23613Y188800D01*
X64000Y131000D02*Y129400D01*
Y131000D02*X65387Y131800D01*
X64000Y131000D02*X62613Y131800D01*
X138500Y300500D02*Y298900D01*
Y300500D02*X139887Y301300D01*
X138500Y300500D02*X137113Y301300D01*
X138500Y305000D02*Y303400D01*
Y305000D02*X139887Y305800D01*
X138500Y305000D02*X137113Y305800D01*
X138500Y282500D02*Y280900D01*
Y282500D02*X139887Y283300D01*
X138500Y282500D02*X137113Y283300D01*
X24000Y231500D02*Y229900D01*
Y231500D02*X25387Y232300D01*
X24000Y231500D02*X22613Y232300D01*
X25500Y223500D02*Y221900D01*
Y223500D02*X26887Y224300D01*
X25500Y223500D02*X24113Y224300D01*
X45000Y210500D02*Y208900D01*
Y210500D02*X46387Y211300D01*
X45000Y210500D02*X43613Y211300D01*
X39000Y250000D02*Y248400D01*
Y250000D02*X40387Y250800D01*
X39000Y250000D02*X37613Y250800D01*
X9000Y237000D02*Y235400D01*
Y237000D02*X10387Y237800D01*
X9000Y237000D02*X7613Y237800D01*
X21000Y266000D02*Y264400D01*
Y266000D02*X22387Y266800D01*
X21000Y266000D02*X19613Y266800D01*
X21000Y287500D02*Y285900D01*
Y287500D02*X22387Y288300D01*
X21000Y287500D02*X19613Y288300D01*
X21000Y292500D02*Y290900D01*
Y292500D02*X22387Y293300D01*
X21000Y292500D02*X19613Y293300D01*
X103500Y190000D02*Y188400D01*
Y190000D02*X104887Y190800D01*
X103500Y190000D02*X102113Y190800D01*
X133394Y189000D02*Y187400D01*
Y189000D02*X134781Y189800D01*
X133394Y189000D02*X132007Y189800D01*
X23500Y311000D02*Y309400D01*
Y311000D02*X24887Y311800D01*
X23500Y311000D02*X22113Y311800D01*
X19000Y311000D02*Y309400D01*
Y311000D02*X20387Y311800D01*
X19000Y311000D02*X17613Y311800D01*
X14500Y311000D02*Y309400D01*
Y311000D02*X15887Y311800D01*
X14500Y311000D02*X13113Y311800D01*
X35000Y294500D02*Y292900D01*
Y294500D02*X36387Y295300D01*
X35000Y294500D02*X33613Y295300D01*
X32000Y287000D02*Y285400D01*
Y287000D02*X33387Y287800D01*
X32000Y287000D02*X30613Y287800D01*
X32000Y291500D02*Y289900D01*
Y291500D02*X33387Y292300D01*
X32000Y291500D02*X30613Y292300D01*
X138000Y158000D02*Y156400D01*
Y158000D02*X139387Y158800D01*
X138000Y158000D02*X136613Y158800D01*
X136500Y342000D02*Y340400D01*
Y342000D02*X137887Y342800D01*
X136500Y342000D02*X135113Y342800D01*
X49000Y208500D02*Y206900D01*
Y208500D02*X50387Y209300D01*
X49000Y208500D02*X47613Y209300D01*
X138500Y278000D02*Y276400D01*
Y278000D02*X139887Y278800D01*
X138500Y278000D02*X137113Y278800D01*
X138500Y264500D02*Y262900D01*
Y264500D02*X139887Y265300D01*
X138500Y264500D02*X137113Y265300D01*
X118500Y307500D02*Y305900D01*
Y307500D02*X119887Y308300D01*
X118500Y307500D02*X117113Y308300D01*
X136500Y337000D02*Y335400D01*
Y337000D02*X137887Y337800D01*
X136500Y337000D02*X135113Y337800D01*
X103500Y338500D02*Y336900D01*
Y338500D02*X104887Y339300D01*
X103500Y338500D02*X102113Y339300D01*
X91000Y214500D02*Y212900D01*
Y214500D02*X92387Y215300D01*
X91000Y214500D02*X89613Y215300D01*
X101000Y214500D02*Y212900D01*
Y214500D02*X102387Y215300D01*
X101000Y214500D02*X99613Y215300D01*
X96000Y214500D02*Y212900D01*
Y214500D02*X97387Y215300D01*
X96000Y214500D02*X94613Y215300D01*
X151000Y214500D02*Y212900D01*
Y214500D02*X152387Y215300D01*
X151000Y214500D02*X149613Y215300D01*
X141000Y214500D02*Y212900D01*
Y214500D02*X142387Y215300D01*
X141000Y214500D02*X139613Y215300D01*
X146000Y214500D02*Y212900D01*
Y214500D02*X147387Y215300D01*
X146000Y214500D02*X144613Y215300D01*
X57000Y255500D02*Y253900D01*
Y255500D02*X58387Y256300D01*
X57000Y255500D02*X55613Y256300D01*
X62000Y255500D02*Y253900D01*
Y255500D02*X63387Y256300D01*
X62000Y255500D02*X60613Y256300D01*
X57000Y250000D02*Y248400D01*
Y250000D02*X58387Y250800D01*
X57000Y250000D02*X55613Y250800D01*
X62000Y266500D02*Y264900D01*
Y266500D02*X63387Y267300D01*
X62000Y266500D02*X60613Y267300D01*
X122000Y203000D02*Y201400D01*
Y203000D02*X123387Y203800D01*
X122000Y203000D02*X120613Y203800D01*
X57000Y266500D02*Y264900D01*
Y266500D02*X58387Y267300D01*
X57000Y266500D02*X55613Y267300D01*
X57000Y261000D02*Y259400D01*
Y261000D02*X58387Y261800D01*
X57000Y261000D02*X55613Y261800D01*
X73000Y274500D02*Y272900D01*
Y274500D02*X74387Y275300D01*
X73000Y274500D02*X71613Y275300D01*
X62000Y261000D02*Y259400D01*
Y261000D02*X63387Y261800D01*
X62000Y261000D02*X60613Y261800D01*
X136000Y214500D02*Y212900D01*
Y214500D02*X137387Y215300D01*
X136000Y214500D02*X134613Y215300D01*
X156000Y214500D02*Y212900D01*
Y214500D02*X157387Y215300D01*
X156000Y214500D02*X154613Y215300D01*
X60500Y215500D02*Y213900D01*
Y215500D02*X61887Y216300D01*
X60500Y215500D02*X59113Y216300D01*
X60500Y208500D02*Y206900D01*
Y208500D02*X61887Y209300D01*
X60500Y208500D02*X59113Y209300D01*
X40000Y173500D02*Y171900D01*
Y173500D02*X41387Y174300D01*
X40000Y173500D02*X38613Y174300D01*
X121500Y254000D02*Y252400D01*
Y254000D02*X122887Y254800D01*
X121500Y254000D02*X120113Y254800D01*
X138500Y269000D02*Y267400D01*
Y269000D02*X139887Y269800D01*
X138500Y269000D02*X137113Y269800D01*
X62000Y244500D02*Y242900D01*
Y244500D02*X63387Y245300D01*
X62000Y244500D02*X60613Y245300D01*
X136000Y227500D02*Y225900D01*
Y227500D02*X137387Y228300D01*
X136000Y227500D02*X134613Y228300D01*
X28000Y311000D02*Y309400D01*
Y311000D02*X29387Y311800D01*
X28000Y311000D02*X26613Y311800D01*
X57000Y244500D02*Y242900D01*
Y244500D02*X58387Y245300D01*
X57000Y244500D02*X55613Y245300D01*
X64000Y145000D02*Y143400D01*
Y145000D02*X65387Y145800D01*
X64000Y145000D02*X62613Y145800D01*
X14500Y203500D02*Y201900D01*
Y203500D02*X15887Y204300D01*
X14500Y203500D02*X13113Y204300D01*
X50000Y318500D02*Y316900D01*
Y318500D02*X51387Y319300D01*
X50000Y318500D02*X48613Y319300D01*
X88500Y255000D02*Y253400D01*
Y255000D02*X89887Y255800D01*
X88500Y255000D02*X87113Y255800D01*
X62000Y250000D02*Y248400D01*
Y250000D02*X63387Y250800D01*
X62000Y250000D02*X60613Y250800D01*
X84000Y280500D02*Y278900D01*
Y280500D02*X85387Y281300D01*
X84000Y280500D02*X82613Y281300D01*
X153000Y104500D02*Y102900D01*
Y104500D02*X154387Y105300D01*
X153000Y104500D02*X151613Y105300D01*
X148500Y104500D02*Y102900D01*
Y104500D02*X149887Y105300D01*
X148500Y104500D02*X147113Y105300D01*
X172500Y104500D02*Y102900D01*
Y104500D02*X173887Y105300D01*
X172500Y104500D02*X171113Y105300D01*
X168000Y104500D02*Y102900D01*
Y104500D02*X169387Y105300D01*
X168000Y104500D02*X166613Y105300D01*
X198000Y96500D02*Y94900D01*
Y96500D02*X199387Y97300D01*
X198000Y96500D02*X196613Y97300D01*
X115500Y64500D02*Y62900D01*
Y64500D02*X116887Y65300D01*
X115500Y64500D02*X114113Y65300D01*
X115500Y69000D02*Y67400D01*
Y69000D02*X116887Y69800D01*
X115500Y69000D02*X114113Y69800D01*
X158000Y138500D02*Y136900D01*
Y138500D02*X159387Y139300D01*
X158000Y138500D02*X156613Y139300D01*
X91500Y80500D02*Y78900D01*
Y80500D02*X92887Y81300D01*
X91500Y80500D02*X90113Y81300D01*
X89000Y76000D02*Y74400D01*
Y76000D02*X90387Y76800D01*
X89000Y76000D02*X87613Y76800D01*
X95500Y78500D02*Y76900D01*
Y78500D02*X96887Y79300D01*
X95500Y78500D02*X94113Y79300D01*
X139500Y74000D02*Y72400D01*
Y74000D02*X140887Y74800D01*
X139500Y74000D02*X138113Y74800D01*
X139500Y78500D02*Y76900D01*
Y78500D02*X140887Y79300D01*
X139500Y78500D02*X138113Y79300D01*
X139500Y83000D02*Y81400D01*
Y83000D02*X140887Y83800D01*
X139500Y83000D02*X138113Y83800D01*
X117000Y90500D02*Y88900D01*
Y90500D02*X118387Y91300D01*
X117000Y90500D02*X115613Y91300D01*
X118500Y96500D02*Y94900D01*
Y96500D02*X119887Y97300D01*
X118500Y96500D02*X117113Y97300D01*
X112000Y111000D02*Y109400D01*
Y111000D02*X113387Y111800D01*
X112000Y111000D02*X110613Y111800D01*
X112500Y96500D02*Y94900D01*
Y96500D02*X113887Y97300D01*
X112500Y96500D02*X111113Y97300D01*
X112500Y90500D02*Y88900D01*
Y90500D02*X113887Y91300D01*
X112500Y90500D02*X111113Y91300D01*
X124000Y109500D02*Y107900D01*
Y109500D02*X125387Y110300D01*
X124000Y109500D02*X122613Y110300D01*
X90000Y90500D02*Y88900D01*
Y90500D02*X91387Y91300D01*
X90000Y90500D02*X88613Y91300D01*
X94500Y90500D02*Y88900D01*
Y90500D02*X95887Y91300D01*
X94500Y90500D02*X93113Y91300D01*
X101500Y79000D02*Y77400D01*
Y79000D02*X102887Y79800D01*
X101500Y79000D02*X100113Y79800D01*
X106000Y79000D02*Y77400D01*
Y79000D02*X107387Y79800D01*
X106000Y79000D02*X104613Y79800D01*
X105000Y106000D02*Y104400D01*
Y106000D02*X106387Y106800D01*
X105000Y106000D02*X103613Y106800D01*
X85500Y96500D02*Y94900D01*
Y96500D02*X86887Y97300D01*
X85500Y96500D02*X84113Y97300D01*
X35000Y99500D02*Y97900D01*
Y99500D02*X36387Y100300D01*
X35000Y99500D02*X33613Y100300D01*
X155000Y277000D02*Y275400D01*
Y277000D02*X156387Y277800D01*
X155000Y277000D02*X153613Y277800D01*
X159500Y277000D02*Y275400D01*
Y277000D02*X160887Y277800D01*
X159500Y277000D02*X158113Y277800D01*
X159500Y281500D02*Y279900D01*
Y281500D02*X160887Y282300D01*
X159500Y281500D02*X158113Y282300D01*
X155000Y281500D02*Y279900D01*
Y281500D02*X156387Y282300D01*
X155000Y281500D02*X153613Y282300D01*
X150500Y281500D02*Y279900D01*
Y281500D02*X151887Y282300D01*
X150500Y281500D02*X149113Y282300D01*
X146000Y281500D02*Y279900D01*
Y281500D02*X147387Y282300D01*
X146000Y281500D02*X144613Y282300D01*
X159500Y292500D02*Y290900D01*
Y292500D02*X160887Y293300D01*
X159500Y292500D02*X158113Y293300D01*
X155000Y292500D02*Y290900D01*
Y292500D02*X156387Y293300D01*
X155000Y292500D02*X153613Y293300D01*
X150500Y292500D02*Y290900D01*
Y292500D02*X151887Y293300D01*
X150500Y292500D02*X149113Y293300D01*
X146000Y292500D02*Y290900D01*
Y292500D02*X147387Y293300D01*
X146000Y292500D02*X144613Y293300D01*
X146000Y297000D02*Y295400D01*
Y297000D02*X147387Y297800D01*
X146000Y297000D02*X144613Y297800D01*
X150500Y297000D02*Y295400D01*
Y297000D02*X151887Y297800D01*
X150500Y297000D02*X149113Y297800D01*
X155000Y297000D02*Y295400D01*
Y297000D02*X156387Y297800D01*
X155000Y297000D02*X153613Y297800D01*
X159500Y297000D02*Y295400D01*
Y297000D02*X160887Y297800D01*
X159500Y297000D02*X158113Y297800D01*
X159500Y301500D02*Y299900D01*
Y301500D02*X160887Y302300D01*
X159500Y301500D02*X158113Y302300D01*
X155000Y301500D02*Y299900D01*
Y301500D02*X156387Y302300D01*
X155000Y301500D02*X153613Y302300D01*
X150500Y301500D02*Y299900D01*
Y301500D02*X151887Y302300D01*
X150500Y301500D02*X149113Y302300D01*
X146000Y301500D02*Y299900D01*
Y301500D02*X147387Y302300D01*
X146000Y301500D02*X144613Y302300D01*
X150500Y277000D02*Y275400D01*
Y277000D02*X151887Y277800D01*
X150500Y277000D02*X149113Y277800D01*
X146000Y277000D02*Y275400D01*
Y277000D02*X147387Y277800D01*
X146000Y277000D02*X144613Y277800D01*
X146000Y272500D02*Y270900D01*
Y272500D02*X147387Y273300D01*
X146000Y272500D02*X144613Y273300D01*
X150500Y272500D02*Y270900D01*
Y272500D02*X151887Y273300D01*
X150500Y272500D02*X149113Y273300D01*
X155000Y272500D02*Y270900D01*
Y272500D02*X156387Y273300D01*
X155000Y272500D02*X153613Y273300D01*
X159500Y272500D02*Y270900D01*
Y272500D02*X160887Y273300D01*
X159500Y272500D02*X158113Y273300D01*
X146000Y287000D02*Y285400D01*
Y287000D02*X147387Y287800D01*
X146000Y287000D02*X144613Y287800D01*
X160500Y82500D02*Y80900D01*
Y82500D02*X161887Y83300D01*
X160500Y82500D02*X159113Y83300D01*
X151500Y68000D02*Y66400D01*
Y68000D02*X152887Y68800D01*
X151500Y68000D02*X150113Y68800D01*
X172000Y53000D02*Y51400D01*
Y53000D02*X173387Y53800D01*
X172000Y53000D02*X170613Y53800D01*
X15000Y496250D02*Y494650D01*
Y496250D02*X16387Y497050D01*
X15000Y496250D02*X13613Y497050D01*
X135000Y498500D02*Y497750D01*
X136500Y496250D01*
X138000Y497750D01*
Y498500D02*Y497750D01*
X136500Y496250D02*Y492500D01*
X139800Y495500D02*X142050D01*
X139800Y492500D02*X142800D01*
X139800Y498500D02*Y492500D01*
Y498500D02*X142800D01*
X147600D02*X148350Y497750D01*
X145350Y498500D02*X147600D01*
X144600Y497750D02*X145350Y498500D01*
X144600Y497750D02*Y496250D01*
X145350Y495500D01*
X147600D01*
X148350Y494750D01*
Y493250D01*
X147600Y492500D02*X148350Y493250D01*
X145350Y492500D02*X147600D01*
X144600Y493250D02*X145350Y492500D01*
X98750D02*X100250D01*
X99500Y498500D02*Y492500D01*
X98000Y497000D02*X99500Y498500D01*
X102050Y492500D02*X105800Y496250D01*
Y498500D02*Y496250D01*
X102050Y498500D02*X105800D01*
X107600Y497750D02*X108350Y498500D01*
X110600D01*
X111350Y497750D01*
Y496250D01*
X107600Y492500D02*X111350Y496250D01*
X107600Y492500D02*X111350D01*
X45000Y493250D02*X45750Y492500D01*
X45000Y497750D02*Y493250D01*
Y497750D02*X45750Y498500D01*
X47250D01*
X48000Y497750D01*
Y493250D01*
X47250Y492500D02*X48000Y493250D01*
X45750Y492500D02*X47250D01*
X45000Y494000D02*X48000Y497000D01*
X49800Y492500D02*X50550D01*
X52350Y493250D02*X53100Y492500D01*
X52350Y497750D02*Y493250D01*
Y497750D02*X53100Y498500D01*
X54600D01*
X55350Y497750D01*
Y493250D01*
X54600Y492500D02*X55350Y493250D01*
X53100Y492500D02*X54600D01*
X52350Y494000D02*X55350Y497000D01*
X57150Y497750D02*X57900Y498500D01*
X60150D01*
X60900Y497750D01*
Y496250D01*
X57150Y492500D02*X60900Y496250D01*
X57150Y492500D02*X60900D01*
X62700Y493250D02*X63450Y492500D01*
X62700Y497750D02*Y493250D01*
Y497750D02*X63450Y498500D01*
X64950D01*
X65700Y497750D01*
Y493250D01*
X64950Y492500D02*X65700Y493250D01*
X63450Y492500D02*X64950D01*
X62700Y494000D02*X65700Y497000D01*
X3000Y513500D02*X3750Y512750D01*
X750Y513500D02*X3000D01*
X0Y512750D02*X750Y513500D01*
X0Y512750D02*Y511250D01*
X750Y510500D01*
X3000D01*
X3750Y509750D01*
Y508250D01*
X3000Y507500D02*X3750Y508250D01*
X750Y507500D02*X3000D01*
X0Y508250D02*X750Y507500D01*
X5550Y510500D02*Y508250D01*
X6300Y507500D01*
X8550Y510500D02*Y506000D01*
X7800Y505250D02*X8550Y506000D01*
X6300Y505250D02*X7800D01*
X5550Y506000D02*X6300Y505250D01*
Y507500D02*X7800D01*
X8550Y508250D01*
X11100Y509750D02*Y507500D01*
Y509750D02*X11850Y510500D01*
X12600D01*
X13350Y509750D01*
Y507500D01*
Y509750D02*X14100Y510500D01*
X14850D01*
X15600Y509750D01*
Y507500D01*
X10350Y510500D02*X11100Y509750D01*
X17400Y513500D02*Y507500D01*
Y508250D02*X18150Y507500D01*
X19650D01*
X20400Y508250D01*
Y509750D02*Y508250D01*
X19650Y510500D02*X20400Y509750D01*
X18150Y510500D02*X19650D01*
X17400Y509750D02*X18150Y510500D01*
X22200Y509750D02*Y508250D01*
Y509750D02*X22950Y510500D01*
X24450D01*
X25200Y509750D01*
Y508250D01*
X24450Y507500D02*X25200Y508250D01*
X22950Y507500D02*X24450D01*
X22200Y508250D02*X22950Y507500D01*
X27000Y513500D02*Y508250D01*
X27750Y507500D01*
X0Y504250D02*X29250D01*
X41750Y513500D02*Y507500D01*
X44000Y513500D02*X44750Y512750D01*
Y508250D01*
X44000Y507500D02*X44750Y508250D01*
X41000Y507500D02*X44000D01*
X41000Y513500D02*X44000D01*
X46550Y512000D02*Y511250D01*
Y509750D02*Y507500D01*
X50300Y510500D02*X51050Y509750D01*
X48800Y510500D02*X50300D01*
X48050Y509750D02*X48800Y510500D01*
X48050Y509750D02*Y508250D01*
X48800Y507500D01*
X51050Y510500D02*Y508250D01*
X51800Y507500D01*
X48800D02*X50300D01*
X51050Y508250D01*
X54350Y509750D02*Y507500D01*
Y509750D02*X55100Y510500D01*
X55850D01*
X56600Y509750D01*
Y507500D01*
Y509750D02*X57350Y510500D01*
X58100D01*
X58850Y509750D01*
Y507500D01*
X53600Y510500D02*X54350Y509750D01*
X60650Y507500D02*X61400D01*
X65900Y508250D02*X66650Y507500D01*
X65900Y512750D02*X66650Y513500D01*
X65900Y512750D02*Y508250D01*
X68450Y513500D02*X69950D01*
X69200D02*Y507500D01*
X68450D02*X69950D01*
X72500Y509750D02*Y507500D01*
Y509750D02*X73250Y510500D01*
X74000D01*
X74750Y509750D01*
Y507500D01*
X71750Y510500D02*X72500Y509750D01*
X77300Y510500D02*X79550D01*
X76550Y509750D02*X77300Y510500D01*
X76550Y509750D02*Y508250D01*
X77300Y507500D01*
X79550D01*
X81350Y513500D02*Y507500D01*
Y509750D02*X82100Y510500D01*
X83600D01*
X84350Y509750D01*
Y507500D01*
X86150Y513500D02*X86900Y512750D01*
Y508250D01*
X86150Y507500D02*X86900Y508250D01*
X41000Y504250D02*X88700D01*
X95750Y507500D02*X98000D01*
X95000Y508250D02*X95750Y507500D01*
X95000Y512750D02*Y508250D01*
Y512750D02*X95750Y513500D01*
X98000D01*
X99800Y509750D02*Y508250D01*
Y509750D02*X100550Y510500D01*
X102050D01*
X102800Y509750D01*
Y508250D01*
X102050Y507500D02*X102800Y508250D01*
X100550Y507500D02*X102050D01*
X99800Y508250D02*X100550Y507500D01*
X104600Y510500D02*Y508250D01*
X105350Y507500D01*
X106850D01*
X107600Y508250D01*
Y510500D02*Y508250D01*
X110150Y509750D02*Y507500D01*
Y509750D02*X110900Y510500D01*
X111650D01*
X112400Y509750D01*
Y507500D01*
X109400Y510500D02*X110150Y509750D01*
X114950Y513500D02*Y508250D01*
X115700Y507500D01*
X114200Y511250D02*X115700D01*
X95000Y504250D02*X117200D01*
X130750Y513500D02*Y507500D01*
X130000Y513500D02*X133000D01*
X133750Y512750D01*
Y511250D01*
X133000Y510500D02*X133750Y511250D01*
X130750Y510500D02*X133000D01*
X135550Y513500D02*Y508250D01*
X136300Y507500D01*
X140050Y510500D02*X140800Y509750D01*
X138550Y510500D02*X140050D01*
X137800Y509750D02*X138550Y510500D01*
X137800Y509750D02*Y508250D01*
X138550Y507500D01*
X140800Y510500D02*Y508250D01*
X141550Y507500D01*
X138550D02*X140050D01*
X140800Y508250D01*
X144100Y513500D02*Y508250D01*
X144850Y507500D01*
X143350Y511250D02*X144850D01*
X147100Y507500D02*X149350D01*
X146350Y508250D02*X147100Y507500D01*
X146350Y509750D02*Y508250D01*
Y509750D02*X147100Y510500D01*
X148600D01*
X149350Y509750D01*
X146350Y509000D02*X149350D01*
Y509750D02*Y509000D01*
X154150Y513500D02*Y507500D01*
X153400D02*X154150Y508250D01*
X151900Y507500D02*X153400D01*
X151150Y508250D02*X151900Y507500D01*
X151150Y509750D02*Y508250D01*
Y509750D02*X151900Y510500D01*
X153400D01*
X154150Y509750D01*
X157450Y510500D02*Y509750D01*
Y508250D02*Y507500D01*
X155950Y512750D02*Y512000D01*
Y512750D02*X156700Y513500D01*
X158200D01*
X158950Y512750D01*
Y512000D01*
X157450Y510500D02*X158950Y512000D01*
X130000Y504250D02*X160750D01*
X0Y528500D02*X3000D01*
X1500D02*Y522500D01*
X4800Y528500D02*Y522500D01*
Y524750D02*X5550Y525500D01*
X7050D01*
X7800Y524750D01*
Y522500D01*
X10350D02*X12600D01*
X9600Y523250D02*X10350Y522500D01*
X9600Y524750D02*Y523250D01*
Y524750D02*X10350Y525500D01*
X11850D01*
X12600Y524750D01*
X9600Y524000D02*X12600D01*
Y524750D02*Y524000D01*
X15150Y524750D02*Y522500D01*
Y524750D02*X15900Y525500D01*
X17400D01*
X14400D02*X15150Y524750D01*
X19950Y522500D02*X22200D01*
X19200Y523250D02*X19950Y522500D01*
X19200Y524750D02*Y523250D01*
Y524750D02*X19950Y525500D01*
X21450D01*
X22200Y524750D01*
X19200Y524000D02*X22200D01*
Y524750D02*Y524000D01*
X28950Y525500D02*X29700Y524750D01*
X27450Y525500D02*X28950D01*
X26700Y524750D02*X27450Y525500D01*
X26700Y524750D02*Y523250D01*
X27450Y522500D01*
X29700Y525500D02*Y523250D01*
X30450Y522500D01*
X27450D02*X28950D01*
X29700Y523250D01*
X33000Y524750D02*Y522500D01*
Y524750D02*X33750Y525500D01*
X35250D01*
X32250D02*X33000Y524750D01*
X37800Y522500D02*X40050D01*
X37050Y523250D02*X37800Y522500D01*
X37050Y524750D02*Y523250D01*
Y524750D02*X37800Y525500D01*
X39300D01*
X40050Y524750D01*
X37050Y524000D02*X40050D01*
Y524750D02*Y524000D01*
X45300Y522500D02*X46800D01*
X46050Y528500D02*Y522500D01*
X44550Y527000D02*X46050Y528500D01*
X48600Y523250D02*X49350Y522500D01*
X48600Y527750D02*Y523250D01*
Y527750D02*X49350Y528500D01*
X50850D01*
X51600Y527750D01*
Y523250D01*
X50850Y522500D02*X51600Y523250D01*
X49350Y522500D02*X50850D01*
X48600Y524000D02*X51600Y527000D01*
X59100Y528500D02*Y522500D01*
X58350D02*X59100Y523250D01*
X56850Y522500D02*X58350D01*
X56100Y523250D02*X56850Y522500D01*
X56100Y524750D02*Y523250D01*
Y524750D02*X56850Y525500D01*
X58350D01*
X59100Y524750D01*
X60900Y527000D02*Y526250D01*
Y524750D02*Y522500D01*
X63150Y527750D02*Y522500D01*
Y527750D02*X63900Y528500D01*
X64650D01*
X62400Y525500D02*X63900D01*
X66900Y527750D02*Y522500D01*
Y527750D02*X67650Y528500D01*
X68400D01*
X66150Y525500D02*X67650D01*
X70650Y522500D02*X72900D01*
X69900Y523250D02*X70650Y522500D01*
X69900Y524750D02*Y523250D01*
Y524750D02*X70650Y525500D01*
X72150D01*
X72900Y524750D01*
X69900Y524000D02*X72900D01*
Y524750D02*Y524000D01*
X75450Y524750D02*Y522500D01*
Y524750D02*X76200Y525500D01*
X77700D01*
X74700D02*X75450Y524750D01*
X80250Y522500D02*X82500D01*
X79500Y523250D02*X80250Y522500D01*
X79500Y524750D02*Y523250D01*
Y524750D02*X80250Y525500D01*
X81750D01*
X82500Y524750D01*
X79500Y524000D02*X82500D01*
Y524750D02*Y524000D01*
X85050Y524750D02*Y522500D01*
Y524750D02*X85800Y525500D01*
X86550D01*
X87300Y524750D01*
Y522500D01*
X84300Y525500D02*X85050Y524750D01*
X89850Y528500D02*Y523250D01*
X90600Y522500D01*
X89100Y526250D02*X90600D01*
X97800Y528500D02*Y522500D01*
X97050D02*X97800Y523250D01*
X95550Y522500D02*X97050D01*
X94800Y523250D02*X95550Y522500D01*
X94800Y524750D02*Y523250D01*
Y524750D02*X95550Y525500D01*
X97050D01*
X97800Y524750D01*
X100350D02*Y522500D01*
Y524750D02*X101100Y525500D01*
X102600D01*
X99600D02*X100350Y524750D01*
X104400Y527000D02*Y526250D01*
Y524750D02*Y522500D01*
X105900Y528500D02*Y523250D01*
X106650Y522500D01*
X108150Y528500D02*Y523250D01*
X108900Y522500D01*
X113850D02*X116100D01*
X116850Y523250D01*
X116100Y524000D02*X116850Y523250D01*
X113850Y524000D02*X116100D01*
X113100Y524750D02*X113850Y524000D01*
X113100Y524750D02*X113850Y525500D01*
X116100D01*
X116850Y524750D01*
X113100Y523250D02*X113850Y522500D01*
X118650Y527000D02*Y526250D01*
Y524750D02*Y522500D01*
X120150Y525500D02*X123150D01*
X120150Y522500D02*X123150Y525500D01*
X120150Y522500D02*X123150D01*
X125700D02*X127950D01*
X124950Y523250D02*X125700Y522500D01*
X124950Y524750D02*Y523250D01*
Y524750D02*X125700Y525500D01*
X127200D01*
X127950Y524750D01*
X124950Y524000D02*X127950D01*
Y524750D02*Y524000D01*
X130500Y522500D02*X132750D01*
X133500Y523250D01*
X132750Y524000D02*X133500Y523250D01*
X130500Y524000D02*X132750D01*
X129750Y524750D02*X130500Y524000D01*
X129750Y524750D02*X130500Y525500D01*
X132750D01*
X133500Y524750D01*
X129750Y523250D02*X130500Y522500D01*
X138000Y525500D02*Y523250D01*
X138750Y522500D01*
X140250D01*
X141000Y523250D01*
Y525500D02*Y523250D01*
X143550Y522500D02*X145800D01*
X146550Y523250D01*
X145800Y524000D02*X146550Y523250D01*
X143550Y524000D02*X145800D01*
X142800Y524750D02*X143550Y524000D01*
X142800Y524750D02*X143550Y525500D01*
X145800D01*
X146550Y524750D01*
X142800Y523250D02*X143550Y522500D01*
X149100D02*X151350D01*
X148350Y523250D02*X149100Y522500D01*
X148350Y524750D02*Y523250D01*
Y524750D02*X149100Y525500D01*
X150600D01*
X151350Y524750D01*
X148350Y524000D02*X151350D01*
Y524750D02*Y524000D01*
X156150Y528500D02*Y522500D01*
X155400D02*X156150Y523250D01*
X153900Y522500D02*X155400D01*
X153150Y523250D02*X153900Y522500D01*
X153150Y524750D02*Y523250D01*
Y524750D02*X153900Y525500D01*
X155400D01*
X156150Y524750D01*
X160650Y527000D02*Y526250D01*
Y524750D02*Y522500D01*
X162900Y524750D02*Y522500D01*
Y524750D02*X163650Y525500D01*
X164400D01*
X165150Y524750D01*
Y522500D01*
X162150Y525500D02*X162900Y524750D01*
X170400Y528500D02*Y523250D01*
X171150Y522500D01*
X169650Y526250D02*X171150D01*
X172650Y528500D02*Y522500D01*
Y524750D02*X173400Y525500D01*
X174900D01*
X175650Y524750D01*
Y522500D01*
X177450Y527000D02*Y526250D01*
Y524750D02*Y522500D01*
X179700D02*X181950D01*
X182700Y523250D01*
X181950Y524000D02*X182700Y523250D01*
X179700Y524000D02*X181950D01*
X178950Y524750D02*X179700Y524000D01*
X178950Y524750D02*X179700Y525500D01*
X181950D01*
X182700Y524750D01*
X178950Y523250D02*X179700Y522500D01*
X187200Y528500D02*Y523250D01*
X187950Y522500D01*
X191700Y525500D02*X192450Y524750D01*
X190200Y525500D02*X191700D01*
X189450Y524750D02*X190200Y525500D01*
X189450Y524750D02*Y523250D01*
X190200Y522500D01*
X192450Y525500D02*Y523250D01*
X193200Y522500D01*
X190200D02*X191700D01*
X192450Y523250D01*
X195000Y525500D02*Y523250D01*
X195750Y522500D01*
X198000Y525500D02*Y521000D01*
X197250Y520250D02*X198000Y521000D01*
X195750Y520250D02*X197250D01*
X195000Y521000D02*X195750Y520250D01*
Y522500D02*X197250D01*
X198000Y523250D01*
X199800Y524750D02*Y523250D01*
Y524750D02*X200550Y525500D01*
X202050D01*
X202800Y524750D01*
Y523250D01*
X202050Y522500D02*X202800Y523250D01*
X200550Y522500D02*X202050D01*
X199800Y523250D02*X200550Y522500D01*
X204600Y525500D02*Y523250D01*
X205350Y522500D01*
X206850D01*
X207600Y523250D01*
Y525500D02*Y523250D01*
X210150Y528500D02*Y523250D01*
X210900Y522500D01*
X209400Y526250D02*X210900D01*
X212400Y521000D02*X213900Y522500D01*
X218400Y527750D02*X219150Y528500D01*
X221400D01*
X222150Y527750D01*
Y526250D01*
X218400Y522500D02*X222150Y526250D01*
X218400Y522500D02*X222150D01*
X226200Y528500D02*X226950Y527750D01*
X224700Y528500D02*X226200D01*
X223950Y527750D02*X224700Y528500D01*
X223950Y527750D02*Y523250D01*
X224700Y522500D01*
X226200Y525500D02*X226950Y524750D01*
X223950Y525500D02*X226200D01*
X224700Y522500D02*X226200D01*
X226950Y523250D01*
Y524750D02*Y523250D01*
X228750Y522500D02*X232500Y526250D01*
Y528500D02*Y526250D01*
X228750Y528500D02*X232500D01*
X237000D02*Y522500D01*
Y524750D02*X237750Y525500D01*
X239250D01*
X240000Y524750D01*
Y522500D01*
X241800Y524750D02*Y523250D01*
Y524750D02*X242550Y525500D01*
X244050D01*
X244800Y524750D01*
Y523250D01*
X244050Y522500D02*X244800Y523250D01*
X242550Y522500D02*X244050D01*
X241800Y523250D02*X242550Y522500D01*
X246600Y528500D02*Y523250D01*
X247350Y522500D01*
X249600D02*X251850D01*
X248850Y523250D02*X249600Y522500D01*
X248850Y524750D02*Y523250D01*
Y524750D02*X249600Y525500D01*
X251100D01*
X251850Y524750D01*
X248850Y524000D02*X251850D01*
Y524750D02*Y524000D01*
X254400Y522500D02*X256650D01*
X257400Y523250D01*
X256650Y524000D02*X257400Y523250D01*
X254400Y524000D02*X256650D01*
X253650Y524750D02*X254400Y524000D01*
X253650Y524750D02*X254400Y525500D01*
X256650D01*
X257400Y524750D01*
X253650Y523250D02*X254400Y522500D01*
X262650Y528500D02*Y523250D01*
X263400Y522500D01*
X261900Y526250D02*X263400D01*
X264900Y524750D02*Y523250D01*
Y524750D02*X265650Y525500D01*
X267150D01*
X267900Y524750D01*
Y523250D01*
X267150Y522500D02*X267900Y523250D01*
X265650Y522500D02*X267150D01*
X264900Y523250D02*X265650Y522500D01*
X270450Y528500D02*Y523250D01*
X271200Y522500D01*
X269700Y526250D02*X271200D01*
X274950Y525500D02*X275700Y524750D01*
X273450Y525500D02*X274950D01*
X272700Y524750D02*X273450Y525500D01*
X272700Y524750D02*Y523250D01*
X273450Y522500D01*
X275700Y525500D02*Y523250D01*
X276450Y522500D01*
X273450D02*X274950D01*
X275700Y523250D01*
X278250Y528500D02*Y523250D01*
X279000Y522500D01*
G54D133*X0Y350000D02*X230000D01*
X0D02*Y0D01*
X230000Y350000D02*Y0D01*
X0D02*X230000D01*
G54D132*X200000Y363500D02*Y357500D01*
Y363500D02*X202250Y361250D01*
X204500Y363500D01*
Y357500D01*
X208550Y360500D02*X209300Y359750D01*
X207050Y360500D02*X208550D01*
X206300Y359750D02*X207050Y360500D01*
X206300Y359750D02*Y358250D01*
X207050Y357500D01*
X209300Y360500D02*Y358250D01*
X210050Y357500D01*
X207050D02*X208550D01*
X209300Y358250D01*
X211850Y360500D02*X214850Y357500D01*
X211850D02*X214850Y360500D01*
X216650Y362000D02*Y361250D01*
Y359750D02*Y357500D01*
X218900Y359750D02*Y357500D01*
Y359750D02*X219650Y360500D01*
X220400D01*
X221150Y359750D01*
Y357500D01*
Y359750D02*X221900Y360500D01*
X222650D01*
X223400Y359750D01*
Y357500D01*
X218150Y360500D02*X218900Y359750D01*
X225200Y360500D02*Y358250D01*
X225950Y357500D01*
X227450D01*
X228200Y358250D01*
Y360500D02*Y358250D01*
X230750Y359750D02*Y357500D01*
Y359750D02*X231500Y360500D01*
X232250D01*
X233000Y359750D01*
Y357500D01*
Y359750D02*X233750Y360500D01*
X234500D01*
X235250Y359750D01*
Y357500D01*
X230000Y360500D02*X230750Y359750D01*
X240500Y363500D02*Y357500D01*
X242750Y363500D02*X243500Y362750D01*
Y358250D01*
X242750Y357500D02*X243500Y358250D01*
X239750Y357500D02*X242750D01*
X239750Y363500D02*X242750D01*
X245300Y362000D02*Y361250D01*
Y359750D02*Y357500D01*
X247550Y359750D02*Y357500D01*
Y359750D02*X248300Y360500D01*
X249050D01*
X249800Y359750D01*
Y357500D01*
Y359750D02*X250550Y360500D01*
X251300D01*
X252050Y359750D01*
Y357500D01*
X246800Y360500D02*X247550Y359750D01*
X254600Y357500D02*X256850D01*
X253850Y358250D02*X254600Y357500D01*
X253850Y359750D02*Y358250D01*
Y359750D02*X254600Y360500D01*
X256100D01*
X256850Y359750D01*
X253850Y359000D02*X256850D01*
Y359750D02*Y359000D01*
X259400Y359750D02*Y357500D01*
Y359750D02*X260150Y360500D01*
X260900D01*
X261650Y359750D01*
Y357500D01*
X258650Y360500D02*X259400Y359750D01*
X264200Y357500D02*X266450D01*
X267200Y358250D01*
X266450Y359000D02*X267200Y358250D01*
X264200Y359000D02*X266450D01*
X263450Y359750D02*X264200Y359000D01*
X263450Y359750D02*X264200Y360500D01*
X266450D01*
X267200Y359750D01*
X263450Y358250D02*X264200Y357500D01*
X269000Y362000D02*Y361250D01*
Y359750D02*Y357500D01*
X270500Y359750D02*Y358250D01*
Y359750D02*X271250Y360500D01*
X272750D01*
X273500Y359750D01*
Y358250D01*
X272750Y357500D02*X273500Y358250D01*
X271250Y357500D02*X272750D01*
X270500Y358250D02*X271250Y357500D01*
X276050Y359750D02*Y357500D01*
Y359750D02*X276800Y360500D01*
X277550D01*
X278300Y359750D01*
Y357500D01*
X275300Y360500D02*X276050Y359750D01*
X280850Y357500D02*X283100D01*
X283850Y358250D01*
X283100Y359000D02*X283850Y358250D01*
X280850Y359000D02*X283100D01*
X280100Y359750D02*X280850Y359000D01*
X280100Y359750D02*X280850Y360500D01*
X283100D01*
X283850Y359750D01*
X280100Y358250D02*X280850Y357500D01*
X285650Y361250D02*X286400D01*
X285650Y359750D02*X286400D01*
X290900Y362750D02*X291650Y363500D01*
X293900D01*
X294650Y362750D01*
Y361250D01*
X290900Y357500D02*X294650Y361250D01*
X290900Y357500D02*X294650D01*
X296450Y362750D02*X297200Y363500D01*
X298700D01*
X299450Y362750D01*
Y358250D01*
X298700Y357500D02*X299450Y358250D01*
X297200Y357500D02*X298700D01*
X296450Y358250D02*X297200Y357500D01*
Y360500D02*X299450D01*
X301250Y358250D02*X302000Y357500D01*
X301250Y362750D02*Y358250D01*
Y362750D02*X302000Y363500D01*
X303500D01*
X304250Y362750D01*
Y358250D01*
X303500Y357500D02*X304250Y358250D01*
X302000Y357500D02*X303500D01*
X301250Y359000D02*X304250Y362000D01*
X306050Y358250D02*X306800Y357500D01*
X306050Y362750D02*Y358250D01*
Y362750D02*X306800Y363500D01*
X308300D01*
X309050Y362750D01*
Y358250D01*
X308300Y357500D02*X309050Y358250D01*
X306800Y357500D02*X308300D01*
X306050Y359000D02*X309050Y362000D01*
X310850Y357500D02*X311600D01*
X313400Y358250D02*X314150Y357500D01*
X313400Y362750D02*Y358250D01*
Y362750D02*X314150Y363500D01*
X315650D01*
X316400Y362750D01*
Y358250D01*
X315650Y357500D02*X316400Y358250D01*
X314150Y357500D02*X315650D01*
X313400Y359000D02*X316400Y362000D01*
X318200Y358250D02*X318950Y357500D01*
X318200Y362750D02*Y358250D01*
Y362750D02*X318950Y363500D01*
X320450D01*
X321200Y362750D01*
Y358250D01*
X320450Y357500D02*X321200Y358250D01*
X318950Y357500D02*X320450D01*
X318200Y359000D02*X321200Y362000D01*
X323000Y358250D02*X323750Y357500D01*
X323000Y362750D02*Y358250D01*
Y362750D02*X323750Y363500D01*
X325250D01*
X326000Y362750D01*
Y358250D01*
X325250Y357500D02*X326000Y358250D01*
X323750Y357500D02*X325250D01*
X323000Y359000D02*X326000Y362000D01*
X327800Y358250D02*X328550Y357500D01*
X327800Y362750D02*Y358250D01*
Y362750D02*X328550Y363500D01*
X330050D01*
X330800Y362750D01*
Y358250D01*
X330050Y357500D02*X330800Y358250D01*
X328550Y357500D02*X330050D01*
X327800Y359000D02*X330800Y362000D01*
X332600Y358250D02*X333350Y357500D01*
X332600Y362750D02*Y358250D01*
Y362750D02*X333350Y363500D01*
X334850D01*
X335600Y362750D01*
Y358250D01*
X334850Y357500D02*X335600Y358250D01*
X333350Y357500D02*X334850D01*
X332600Y359000D02*X335600Y362000D01*
X337400Y358250D02*X338150Y357500D01*
X337400Y362750D02*Y358250D01*
Y362750D02*X338150Y363500D01*
X339650D01*
X340400Y362750D01*
Y358250D01*
X339650Y357500D02*X340400Y358250D01*
X338150Y357500D02*X339650D01*
X337400Y359000D02*X340400Y362000D01*
X345650Y359750D02*Y357500D01*
Y359750D02*X346400Y360500D01*
X347150D01*
X347900Y359750D01*
Y357500D01*
Y359750D02*X348650Y360500D01*
X349400D01*
X350150Y359750D01*
Y357500D01*
X344900Y360500D02*X345650Y359750D01*
X351950Y362000D02*Y361250D01*
Y359750D02*Y357500D01*
X353450Y363500D02*Y358250D01*
X354200Y357500D01*
X356450D02*X358700D01*
X359450Y358250D01*
X358700Y359000D02*X359450Y358250D01*
X356450Y359000D02*X358700D01*
X355700Y359750D02*X356450Y359000D01*
X355700Y359750D02*X356450Y360500D01*
X358700D01*
X359450Y359750D01*
X355700Y358250D02*X356450Y357500D01*
X363950Y360500D02*Y358250D01*
X364700Y357500D01*
X365450D01*
X366200Y358250D01*
Y360500D02*Y358250D01*
X366950Y357500D01*
X367700D01*
X368450Y358250D01*
Y360500D02*Y358250D01*
X370250Y362000D02*Y361250D01*
Y359750D02*Y357500D01*
X374750Y363500D02*Y357500D01*
X374000D02*X374750Y358250D01*
X372500Y357500D02*X374000D01*
X371750Y358250D02*X372500Y357500D01*
X371750Y359750D02*Y358250D01*
Y359750D02*X372500Y360500D01*
X374000D01*
X374750Y359750D01*
X377300Y357500D02*X379550D01*
X376550Y358250D02*X377300Y357500D01*
X376550Y359750D02*Y358250D01*
Y359750D02*X377300Y360500D01*
X378800D01*
X379550Y359750D01*
X376550Y359000D02*X379550D01*
Y359750D02*Y359000D01*
X381350Y356000D02*X382850Y357500D01*
X387350Y362750D02*X388100Y363500D01*
X389600D01*
X390350Y362750D01*
Y358250D01*
X389600Y357500D02*X390350Y358250D01*
X388100Y357500D02*X389600D01*
X387350Y358250D02*X388100Y357500D01*
Y360500D02*X390350D01*
X392150Y363500D02*X395150D01*
X392150D02*Y360500D01*
X392900Y361250D01*
X394400D01*
X395150Y360500D01*
Y358250D01*
X394400Y357500D02*X395150Y358250D01*
X392900Y357500D02*X394400D01*
X392150Y358250D02*X392900Y357500D01*
X396950Y358250D02*X397700Y357500D01*
X396950Y362750D02*Y358250D01*
Y362750D02*X397700Y363500D01*
X399200D01*
X399950Y362750D01*
Y358250D01*
X399200Y357500D02*X399950Y358250D01*
X397700Y357500D02*X399200D01*
X396950Y359000D02*X399950Y362000D01*
X401750Y358250D02*X402500Y357500D01*
X401750Y362750D02*Y358250D01*
Y362750D02*X402500Y363500D01*
X404000D01*
X404750Y362750D01*
Y358250D01*
X404000Y357500D02*X404750Y358250D01*
X402500Y357500D02*X404000D01*
X401750Y359000D02*X404750Y362000D01*
X406550Y357500D02*X407300D01*
X409100Y358250D02*X409850Y357500D01*
X409100Y362750D02*Y358250D01*
Y362750D02*X409850Y363500D01*
X411350D01*
X412100Y362750D01*
Y358250D01*
X411350Y357500D02*X412100Y358250D01*
X409850Y357500D02*X411350D01*
X409100Y359000D02*X412100Y362000D01*
X413900Y358250D02*X414650Y357500D01*
X413900Y362750D02*Y358250D01*
Y362750D02*X414650Y363500D01*
X416150D01*
X416900Y362750D01*
Y358250D01*
X416150Y357500D02*X416900Y358250D01*
X414650Y357500D02*X416150D01*
X413900Y359000D02*X416900Y362000D01*
X418700Y358250D02*X419450Y357500D01*
X418700Y362750D02*Y358250D01*
Y362750D02*X419450Y363500D01*
X420950D01*
X421700Y362750D01*
Y358250D01*
X420950Y357500D02*X421700Y358250D01*
X419450Y357500D02*X420950D01*
X418700Y359000D02*X421700Y362000D01*
X423500Y358250D02*X424250Y357500D01*
X423500Y362750D02*Y358250D01*
Y362750D02*X424250Y363500D01*
X425750D01*
X426500Y362750D01*
Y358250D01*
X425750Y357500D02*X426500Y358250D01*
X424250Y357500D02*X425750D01*
X423500Y359000D02*X426500Y362000D01*
X428300Y358250D02*X429050Y357500D01*
X428300Y362750D02*Y358250D01*
Y362750D02*X429050Y363500D01*
X430550D01*
X431300Y362750D01*
Y358250D01*
X430550Y357500D02*X431300Y358250D01*
X429050Y357500D02*X430550D01*
X428300Y359000D02*X431300Y362000D01*
X433100Y358250D02*X433850Y357500D01*
X433100Y362750D02*Y358250D01*
Y362750D02*X433850Y363500D01*
X435350D01*
X436100Y362750D01*
Y358250D01*
X435350Y357500D02*X436100Y358250D01*
X433850Y357500D02*X435350D01*
X433100Y359000D02*X436100Y362000D01*
X441350Y359750D02*Y357500D01*
Y359750D02*X442100Y360500D01*
X442850D01*
X443600Y359750D01*
Y357500D01*
Y359750D02*X444350Y360500D01*
X445100D01*
X445850Y359750D01*
Y357500D01*
X440600Y360500D02*X441350Y359750D01*
X447650Y362000D02*Y361250D01*
Y359750D02*Y357500D01*
X449150Y363500D02*Y358250D01*
X449900Y357500D01*
X452150D02*X454400D01*
X455150Y358250D01*
X454400Y359000D02*X455150Y358250D01*
X452150Y359000D02*X454400D01*
X451400Y359750D02*X452150Y359000D01*
X451400Y359750D02*X452150Y360500D01*
X454400D01*
X455150Y359750D01*
X451400Y358250D02*X452150Y357500D01*
X459650Y363500D02*Y357500D01*
Y359750D02*X460400Y360500D01*
X461900D01*
X462650Y359750D01*
Y357500D01*
X464450Y362000D02*Y361250D01*
Y359750D02*Y357500D01*
X468200Y360500D02*X468950Y359750D01*
X466700Y360500D02*X468200D01*
X465950Y359750D02*X466700Y360500D01*
X465950Y359750D02*Y358250D01*
X466700Y357500D01*
X468200D01*
X468950Y358250D01*
X465950Y356000D02*X466700Y355250D01*
X468200D01*
X468950Y356000D01*
Y360500D02*Y356000D01*
X470750Y363500D02*Y357500D01*
Y359750D02*X471500Y360500D01*
X473000D01*
X473750Y359750D01*
Y357500D01*
X0Y-9500D02*X3000D01*
X3750Y-8750D01*
Y-7250D02*Y-8750D01*
X3000Y-6500D02*X3750Y-7250D01*
X750Y-6500D02*X3000D01*
X750Y-3500D02*Y-9500D01*
X0Y-3500D02*X3000D01*
X3750Y-4250D01*
Y-5750D01*
X3000Y-6500D02*X3750Y-5750D01*
X5550Y-7250D02*Y-8750D01*
Y-7250D02*X6300Y-6500D01*
X7800D01*
X8550Y-7250D01*
Y-8750D01*
X7800Y-9500D02*X8550Y-8750D01*
X6300Y-9500D02*X7800D01*
X5550Y-8750D02*X6300Y-9500D01*
X12600Y-6500D02*X13350Y-7250D01*
X11100Y-6500D02*X12600D01*
X10350Y-7250D02*X11100Y-6500D01*
X10350Y-7250D02*Y-8750D01*
X11100Y-9500D01*
X13350Y-6500D02*Y-8750D01*
X14100Y-9500D01*
X11100D02*X12600D01*
X13350Y-8750D01*
X16650Y-7250D02*Y-9500D01*
Y-7250D02*X17400Y-6500D01*
X18900D01*
X15900D02*X16650Y-7250D01*
X23700Y-3500D02*Y-9500D01*
X22950D02*X23700Y-8750D01*
X21450Y-9500D02*X22950D01*
X20700Y-8750D02*X21450Y-9500D01*
X20700Y-7250D02*Y-8750D01*
Y-7250D02*X21450Y-6500D01*
X22950D01*
X23700Y-7250D01*
X28200D02*Y-8750D01*
Y-7250D02*X28950Y-6500D01*
X30450D01*
X31200Y-7250D01*
Y-8750D01*
X30450Y-9500D02*X31200Y-8750D01*
X28950Y-9500D02*X30450D01*
X28200Y-8750D02*X28950Y-9500D01*
X33000Y-6500D02*Y-8750D01*
X33750Y-9500D01*
X35250D01*
X36000Y-8750D01*
Y-6500D02*Y-8750D01*
X38550Y-3500D02*Y-8750D01*
X39300Y-9500D01*
X37800Y-5750D02*X39300D01*
X40800Y-3500D02*Y-8750D01*
X41550Y-9500D01*
X43050Y-5000D02*Y-5750D01*
Y-7250D02*Y-9500D01*
X45300Y-7250D02*Y-9500D01*
Y-7250D02*X46050Y-6500D01*
X46800D01*
X47550Y-7250D01*
Y-9500D01*
X44550Y-6500D02*X45300Y-7250D01*
X50100Y-9500D02*X52350D01*
X49350Y-8750D02*X50100Y-9500D01*
X49350Y-7250D02*Y-8750D01*
Y-7250D02*X50100Y-6500D01*
X51600D01*
X52350Y-7250D01*
X49350Y-8000D02*X52350D01*
Y-7250D02*Y-8000D01*
X56850Y-5000D02*Y-5750D01*
Y-7250D02*Y-9500D01*
X59100D02*X61350D01*
X62100Y-8750D01*
X61350Y-8000D02*X62100Y-8750D01*
X59100Y-8000D02*X61350D01*
X58350Y-7250D02*X59100Y-8000D01*
X58350Y-7250D02*X59100Y-6500D01*
X61350D01*
X62100Y-7250D01*
X58350Y-8750D02*X59100Y-9500D01*
X67350Y-3500D02*Y-8750D01*
X68100Y-9500D01*
X66600Y-5750D02*X68100D01*
X69600Y-3500D02*Y-9500D01*
Y-7250D02*X70350Y-6500D01*
X71850D01*
X72600Y-7250D01*
Y-9500D01*
X75150D02*X77400D01*
X74400Y-8750D02*X75150Y-9500D01*
X74400Y-7250D02*Y-8750D01*
Y-7250D02*X75150Y-6500D01*
X76650D01*
X77400Y-7250D01*
X74400Y-8000D02*X77400D01*
Y-7250D02*Y-8000D01*
X82650Y-6500D02*X84900D01*
X81900Y-7250D02*X82650Y-6500D01*
X81900Y-7250D02*Y-8750D01*
X82650Y-9500D01*
X84900D01*
X87450D02*X89700D01*
X86700Y-8750D02*X87450Y-9500D01*
X86700Y-7250D02*Y-8750D01*
Y-7250D02*X87450Y-6500D01*
X88950D01*
X89700Y-7250D01*
X86700Y-8000D02*X89700D01*
Y-7250D02*Y-8000D01*
X92250Y-7250D02*Y-9500D01*
Y-7250D02*X93000Y-6500D01*
X93750D01*
X94500Y-7250D01*
Y-9500D01*
X91500Y-6500D02*X92250Y-7250D01*
X97050Y-3500D02*Y-8750D01*
X97800Y-9500D01*
X96300Y-5750D02*X97800D01*
X100050Y-9500D02*X102300D01*
X99300Y-8750D02*X100050Y-9500D01*
X99300Y-7250D02*Y-8750D01*
Y-7250D02*X100050Y-6500D01*
X101550D01*
X102300Y-7250D01*
X99300Y-8000D02*X102300D01*
Y-7250D02*Y-8000D01*
X104850Y-7250D02*Y-9500D01*
Y-7250D02*X105600Y-6500D01*
X107100D01*
X104100D02*X104850Y-7250D01*
X108900Y-3500D02*Y-8750D01*
X109650Y-9500D01*
X111150Y-5000D02*Y-5750D01*
Y-7250D02*Y-9500D01*
X113400Y-7250D02*Y-9500D01*
Y-7250D02*X114150Y-6500D01*
X114900D01*
X115650Y-7250D01*
Y-9500D01*
X112650Y-6500D02*X113400Y-7250D01*
X118200Y-9500D02*X120450D01*
X117450Y-8750D02*X118200Y-9500D01*
X117450Y-7250D02*Y-8750D01*
Y-7250D02*X118200Y-6500D01*
X119700D01*
X120450Y-7250D01*
X117450Y-8000D02*X120450D01*
Y-7250D02*Y-8000D01*
X124950Y-7250D02*Y-8750D01*
Y-7250D02*X125700Y-6500D01*
X127200D01*
X127950Y-7250D01*
Y-8750D01*
X127200Y-9500D02*X127950Y-8750D01*
X125700Y-9500D02*X127200D01*
X124950Y-8750D02*X125700Y-9500D01*
X130500Y-4250D02*Y-9500D01*
Y-4250D02*X131250Y-3500D01*
X132000D01*
X129750Y-6500D02*X131250D01*
X136950Y-3500D02*Y-8750D01*
X137700Y-9500D01*
X136200Y-5750D02*X137700D01*
X139200Y-3500D02*Y-9500D01*
Y-7250D02*X139950Y-6500D01*
X141450D01*
X142200Y-7250D01*
Y-9500D01*
X144000Y-5000D02*Y-5750D01*
Y-7250D02*Y-9500D01*
X146250D02*X148500D01*
X149250Y-8750D01*
X148500Y-8000D02*X149250Y-8750D01*
X146250Y-8000D02*X148500D01*
X145500Y-7250D02*X146250Y-8000D01*
X145500Y-7250D02*X146250Y-6500D01*
X148500D01*
X149250Y-7250D01*
X145500Y-8750D02*X146250Y-9500D01*
X153750Y-8750D02*X154500Y-9500D01*
X153750Y-7250D02*Y-8750D01*
Y-7250D02*X154500Y-6500D01*
X156000D01*
X156750Y-7250D01*
Y-8750D01*
X156000Y-9500D02*X156750Y-8750D01*
X154500Y-9500D02*X156000D01*
X153750Y-5750D02*X154500Y-6500D01*
X153750Y-4250D02*Y-5750D01*
Y-4250D02*X154500Y-3500D01*
X156000D01*
X156750Y-4250D01*
Y-5750D01*
X156000Y-6500D02*X156750Y-5750D01*
X158550Y-9500D02*X159300D01*
X161100Y-8750D02*X161850Y-9500D01*
X161100Y-4250D02*Y-8750D01*
Y-4250D02*X161850Y-3500D01*
X163350D01*
X164100Y-4250D01*
Y-8750D01*
X163350Y-9500D02*X164100Y-8750D01*
X161850Y-9500D02*X163350D01*
X161100Y-8000D02*X164100Y-5000D01*
X165900Y-8750D02*X166650Y-9500D01*
X165900Y-4250D02*Y-8750D01*
Y-4250D02*X166650Y-3500D01*
X168150D01*
X168900Y-4250D01*
Y-8750D01*
X168150Y-9500D02*X168900Y-8750D01*
X166650Y-9500D02*X168150D01*
X165900Y-8000D02*X168900Y-5000D01*
X170700Y-8750D02*X171450Y-9500D01*
X170700Y-4250D02*Y-8750D01*
Y-4250D02*X171450Y-3500D01*
X172950D01*
X173700Y-4250D01*
Y-8750D01*
X172950Y-9500D02*X173700Y-8750D01*
X171450Y-9500D02*X172950D01*
X170700Y-8000D02*X173700Y-5000D01*
X175500Y-8750D02*X176250Y-9500D01*
X175500Y-4250D02*Y-8750D01*
Y-4250D02*X176250Y-3500D01*
X177750D01*
X178500Y-4250D01*
Y-8750D01*
X177750Y-9500D02*X178500Y-8750D01*
X176250Y-9500D02*X177750D01*
X175500Y-8000D02*X178500Y-5000D01*
X180300Y-8750D02*X181050Y-9500D01*
X180300Y-4250D02*Y-8750D01*
Y-4250D02*X181050Y-3500D01*
X182550D01*
X183300Y-4250D01*
Y-8750D01*
X182550Y-9500D02*X183300Y-8750D01*
X181050Y-9500D02*X182550D01*
X180300Y-8000D02*X183300Y-5000D01*
X185100Y-8750D02*X185850Y-9500D01*
X185100Y-4250D02*Y-8750D01*
Y-4250D02*X185850Y-3500D01*
X187350D01*
X188100Y-4250D01*
Y-8750D01*
X187350Y-9500D02*X188100Y-8750D01*
X185850Y-9500D02*X187350D01*
X185100Y-8000D02*X188100Y-5000D01*
X193350Y-7250D02*Y-9500D01*
Y-7250D02*X194100Y-6500D01*
X194850D01*
X195600Y-7250D01*
Y-9500D01*
Y-7250D02*X196350Y-6500D01*
X197100D01*
X197850Y-7250D01*
Y-9500D01*
X192600Y-6500D02*X193350Y-7250D01*
X199650Y-5000D02*Y-5750D01*
Y-7250D02*Y-9500D01*
X201150Y-3500D02*Y-8750D01*
X201900Y-9500D01*
X206850Y-7250D02*Y-9500D01*
Y-7250D02*X207600Y-6500D01*
X209100D01*
X206100D02*X206850Y-7250D01*
X211650Y-9500D02*X213900D01*
X210900Y-8750D02*X211650Y-9500D01*
X210900Y-7250D02*Y-8750D01*
Y-7250D02*X211650Y-6500D01*
X213150D01*
X213900Y-7250D01*
X210900Y-8000D02*X213900D01*
Y-7250D02*Y-8000D01*
X216450Y-6500D02*X218700D01*
X215700Y-7250D02*X216450Y-6500D01*
X215700Y-7250D02*Y-8750D01*
X216450Y-9500D01*
X218700D01*
X221250Y-3500D02*Y-8750D01*
X222000Y-9500D01*
X220500Y-5750D02*X222000D01*
X225750Y-6500D02*X226500Y-7250D01*
X224250Y-6500D02*X225750D01*
X223500Y-7250D02*X224250Y-6500D01*
X223500Y-7250D02*Y-8750D01*
X224250Y-9500D01*
X226500Y-6500D02*Y-8750D01*
X227250Y-9500D01*
X224250D02*X225750D01*
X226500Y-8750D01*
X229800Y-7250D02*Y-9500D01*
Y-7250D02*X230550Y-6500D01*
X231300D01*
X232050Y-7250D01*
Y-9500D01*
X229050Y-6500D02*X229800Y-7250D01*
X236100Y-6500D02*X236850Y-7250D01*
X234600Y-6500D02*X236100D01*
X233850Y-7250D02*X234600Y-6500D01*
X233850Y-7250D02*Y-8750D01*
X234600Y-9500D01*
X236100D01*
X236850Y-8750D01*
X233850Y-11000D02*X234600Y-11750D01*
X236100D01*
X236850Y-11000D01*
Y-6500D02*Y-11000D01*
X238650Y-3500D02*Y-8750D01*
X239400Y-9500D01*
X241650D02*X243900D01*
X240900Y-8750D02*X241650Y-9500D01*
X240900Y-7250D02*Y-8750D01*
Y-7250D02*X241650Y-6500D01*
X243150D01*
X243900Y-7250D01*
X240900Y-8000D02*X243900D01*
Y-7250D02*Y-8000D01*
X248400Y-6500D02*X251400D01*
X255900Y-8750D02*X256650Y-9500D01*
X255900Y-4250D02*Y-8750D01*
Y-4250D02*X256650Y-3500D01*
X258150D01*
X258900Y-4250D01*
Y-8750D01*
X258150Y-9500D02*X258900Y-8750D01*
X256650Y-9500D02*X258150D01*
X255900Y-8000D02*X258900Y-5000D01*
X260700Y-11000D02*X262200Y-9500D01*
X264000Y-8750D02*X264750Y-9500D01*
X264000Y-4250D02*Y-8750D01*
Y-4250D02*X264750Y-3500D01*
X266250D01*
X267000Y-4250D01*
Y-8750D01*
X266250Y-9500D02*X267000Y-8750D01*
X264750Y-9500D02*X266250D01*
X264000Y-8000D02*X267000Y-5000D01*
X272250Y-3500D02*Y-8750D01*
X273000Y-9500D01*
X271500Y-5750D02*X273000D01*
X274500Y-7250D02*Y-8750D01*
Y-7250D02*X275250Y-6500D01*
X276750D01*
X277500Y-7250D01*
Y-8750D01*
X276750Y-9500D02*X277500Y-8750D01*
X275250Y-9500D02*X276750D01*
X274500Y-8750D02*X275250Y-9500D01*
X282000Y-4250D02*X282750Y-3500D01*
X285000D01*
X285750Y-4250D01*
Y-5750D01*
X282000Y-9500D02*X285750Y-5750D01*
X282000Y-9500D02*X285750D01*
X287550Y-4250D02*X288300Y-3500D01*
X289800D01*
X290550Y-4250D01*
Y-8750D01*
X289800Y-9500D02*X290550Y-8750D01*
X288300Y-9500D02*X289800D01*
X287550Y-8750D02*X288300Y-9500D01*
Y-6500D02*X290550D01*
X292350Y-8750D02*X293100Y-9500D01*
X292350Y-4250D02*Y-8750D01*
Y-4250D02*X293100Y-3500D01*
X294600D01*
X295350Y-4250D01*
Y-8750D01*
X294600Y-9500D02*X295350Y-8750D01*
X293100Y-9500D02*X294600D01*
X292350Y-8000D02*X295350Y-5000D01*
X297150Y-8750D02*X297900Y-9500D01*
X297150Y-4250D02*Y-8750D01*
Y-4250D02*X297900Y-3500D01*
X299400D01*
X300150Y-4250D01*
Y-8750D01*
X299400Y-9500D02*X300150Y-8750D01*
X297900Y-9500D02*X299400D01*
X297150Y-8000D02*X300150Y-5000D01*
X301950Y-9500D02*X302700D01*
X304500Y-8750D02*X305250Y-9500D01*
X304500Y-4250D02*Y-8750D01*
Y-4250D02*X305250Y-3500D01*
X306750D01*
X307500Y-4250D01*
Y-8750D01*
X306750Y-9500D02*X307500Y-8750D01*
X305250Y-9500D02*X306750D01*
X304500Y-8000D02*X307500Y-5000D01*
X309300Y-8750D02*X310050Y-9500D01*
X309300Y-4250D02*Y-8750D01*
Y-4250D02*X310050Y-3500D01*
X311550D01*
X312300Y-4250D01*
Y-8750D01*
X311550Y-9500D02*X312300Y-8750D01*
X310050Y-9500D02*X311550D01*
X309300Y-8000D02*X312300Y-5000D01*
X314100Y-8750D02*X314850Y-9500D01*
X314100Y-4250D02*Y-8750D01*
Y-4250D02*X314850Y-3500D01*
X316350D01*
X317100Y-4250D01*
Y-8750D01*
X316350Y-9500D02*X317100Y-8750D01*
X314850Y-9500D02*X316350D01*
X314100Y-8000D02*X317100Y-5000D01*
X318900Y-8750D02*X319650Y-9500D01*
X318900Y-4250D02*Y-8750D01*
Y-4250D02*X319650Y-3500D01*
X321150D01*
X321900Y-4250D01*
Y-8750D01*
X321150Y-9500D02*X321900Y-8750D01*
X319650Y-9500D02*X321150D01*
X318900Y-8000D02*X321900Y-5000D01*
X323700Y-8750D02*X324450Y-9500D01*
X323700Y-4250D02*Y-8750D01*
Y-4250D02*X324450Y-3500D01*
X325950D01*
X326700Y-4250D01*
Y-8750D01*
X325950Y-9500D02*X326700Y-8750D01*
X324450Y-9500D02*X325950D01*
X323700Y-8000D02*X326700Y-5000D01*
X328500Y-8750D02*X329250Y-9500D01*
X328500Y-4250D02*Y-8750D01*
Y-4250D02*X329250Y-3500D01*
X330750D01*
X331500Y-4250D01*
Y-8750D01*
X330750Y-9500D02*X331500Y-8750D01*
X329250Y-9500D02*X330750D01*
X328500Y-8000D02*X331500Y-5000D01*
X333300Y-11000D02*X334800Y-9500D01*
X336600Y-4250D02*X337350Y-3500D01*
X338850D01*
X339600Y-4250D01*
Y-8750D01*
X338850Y-9500D02*X339600Y-8750D01*
X337350Y-9500D02*X338850D01*
X336600Y-8750D02*X337350Y-9500D01*
Y-6500D02*X339600D01*
X341400Y-3500D02*X344400D01*
X341400D02*Y-6500D01*
X342150Y-5750D01*
X343650D01*
X344400Y-6500D01*
Y-8750D01*
X343650Y-9500D02*X344400Y-8750D01*
X342150Y-9500D02*X343650D01*
X341400Y-8750D02*X342150Y-9500D01*
X346200Y-8750D02*X346950Y-9500D01*
X346200Y-4250D02*Y-8750D01*
Y-4250D02*X346950Y-3500D01*
X348450D01*
X349200Y-4250D01*
Y-8750D01*
X348450Y-9500D02*X349200Y-8750D01*
X346950Y-9500D02*X348450D01*
X346200Y-8000D02*X349200Y-5000D01*
X351000Y-8750D02*X351750Y-9500D01*
X351000Y-4250D02*Y-8750D01*
Y-4250D02*X351750Y-3500D01*
X353250D01*
X354000Y-4250D01*
Y-8750D01*
X353250Y-9500D02*X354000Y-8750D01*
X351750Y-9500D02*X353250D01*
X351000Y-8000D02*X354000Y-5000D01*
X355800Y-9500D02*X356550D01*
X358350Y-8750D02*X359100Y-9500D01*
X358350Y-4250D02*Y-8750D01*
Y-4250D02*X359100Y-3500D01*
X360600D01*
X361350Y-4250D01*
Y-8750D01*
X360600Y-9500D02*X361350Y-8750D01*
X359100Y-9500D02*X360600D01*
X358350Y-8000D02*X361350Y-5000D01*
X363150Y-8750D02*X363900Y-9500D01*
X363150Y-4250D02*Y-8750D01*
Y-4250D02*X363900Y-3500D01*
X365400D01*
X366150Y-4250D01*
Y-8750D01*
X365400Y-9500D02*X366150Y-8750D01*
X363900Y-9500D02*X365400D01*
X363150Y-8000D02*X366150Y-5000D01*
X367950Y-8750D02*X368700Y-9500D01*
X367950Y-4250D02*Y-8750D01*
Y-4250D02*X368700Y-3500D01*
X370200D01*
X370950Y-4250D01*
Y-8750D01*
X370200Y-9500D02*X370950Y-8750D01*
X368700Y-9500D02*X370200D01*
X367950Y-8000D02*X370950Y-5000D01*
X372750Y-8750D02*X373500Y-9500D01*
X372750Y-4250D02*Y-8750D01*
Y-4250D02*X373500Y-3500D01*
X375000D01*
X375750Y-4250D01*
Y-8750D01*
X375000Y-9500D02*X375750Y-8750D01*
X373500Y-9500D02*X375000D01*
X372750Y-8000D02*X375750Y-5000D01*
X377550Y-8750D02*X378300Y-9500D01*
X377550Y-4250D02*Y-8750D01*
Y-4250D02*X378300Y-3500D01*
X379800D01*
X380550Y-4250D01*
Y-8750D01*
X379800Y-9500D02*X380550Y-8750D01*
X378300Y-9500D02*X379800D01*
X377550Y-8000D02*X380550Y-5000D01*
X382350Y-8750D02*X383100Y-9500D01*
X382350Y-4250D02*Y-8750D01*
Y-4250D02*X383100Y-3500D01*
X384600D01*
X385350Y-4250D01*
Y-8750D01*
X384600Y-9500D02*X385350Y-8750D01*
X383100Y-9500D02*X384600D01*
X382350Y-8000D02*X385350Y-5000D01*
X390600Y-7250D02*Y-9500D01*
Y-7250D02*X391350Y-6500D01*
X392100D01*
X392850Y-7250D01*
Y-9500D01*
Y-7250D02*X393600Y-6500D01*
X394350D01*
X395100Y-7250D01*
Y-9500D01*
X389850Y-6500D02*X390600Y-7250D01*
X396900Y-5000D02*Y-5750D01*
Y-7250D02*Y-9500D01*
X398400Y-3500D02*Y-8750D01*
X399150Y-9500D01*
X401400D02*X403650D01*
X404400Y-8750D01*
X403650Y-8000D02*X404400Y-8750D01*
X401400Y-8000D02*X403650D01*
X400650Y-7250D02*X401400Y-8000D01*
X400650Y-7250D02*X401400Y-6500D01*
X403650D01*
X404400Y-7250D01*
X400650Y-8750D02*X401400Y-9500D01*
X200750Y378500D02*Y372500D01*
X203000Y378500D02*X203750Y377750D01*
Y373250D01*
X203000Y372500D02*X203750Y373250D01*
X200000Y372500D02*X203000D01*
X200000Y378500D02*X203000D01*
X207800Y375500D02*X208550Y374750D01*
X206300Y375500D02*X207800D01*
X205550Y374750D02*X206300Y375500D01*
X205550Y374750D02*Y373250D01*
X206300Y372500D01*
X208550Y375500D02*Y373250D01*
X209300Y372500D01*
X206300D02*X207800D01*
X208550Y373250D01*
X211850Y378500D02*Y373250D01*
X212600Y372500D01*
X211100Y376250D02*X212600D01*
X214850Y372500D02*X217100D01*
X214100Y373250D02*X214850Y372500D01*
X214100Y374750D02*Y373250D01*
Y374750D02*X214850Y375500D01*
X216350D01*
X217100Y374750D01*
X214100Y374000D02*X217100D01*
Y374750D02*Y374000D01*
X218900Y376250D02*X219650D01*
X218900Y374750D02*X219650D01*
X227150Y378500D02*X227900Y377750D01*
X224900Y378500D02*X227150D01*
X224150Y377750D02*X224900Y378500D01*
X224150Y377750D02*Y376250D01*
X224900Y375500D01*
X227150D01*
X227900Y374750D01*
Y373250D01*
X227150Y372500D02*X227900Y373250D01*
X224900Y372500D02*X227150D01*
X224150Y373250D02*X224900Y372500D01*
X231950Y375500D02*X232700Y374750D01*
X230450Y375500D02*X231950D01*
X229700Y374750D02*X230450Y375500D01*
X229700Y374750D02*Y373250D01*
X230450Y372500D01*
X232700Y375500D02*Y373250D01*
X233450Y372500D01*
X230450D02*X231950D01*
X232700Y373250D01*
X236000Y378500D02*Y373250D01*
X236750Y372500D01*
X235250Y376250D02*X236750D01*
X240950Y373250D02*X241700Y372500D01*
X240950Y377750D02*Y373250D01*
Y377750D02*X241700Y378500D01*
X243200D01*
X243950Y377750D01*
Y373250D01*
X243200Y372500D02*X243950Y373250D01*
X241700Y372500D02*X243200D01*
X240950Y374000D02*X243950Y377000D01*
X245750Y377750D02*X246500Y378500D01*
X248750D01*
X249500Y377750D01*
Y376250D01*
X245750Y372500D02*X249500Y376250D01*
X245750Y372500D02*X249500D01*
X254000Y378500D02*Y372500D01*
Y378500D02*X257000D01*
X254000Y375500D02*X256250D01*
X259550Y372500D02*X261800D01*
X258800Y373250D02*X259550Y372500D01*
X258800Y374750D02*Y373250D01*
Y374750D02*X259550Y375500D01*
X261050D01*
X261800Y374750D01*
X258800Y374000D02*X261800D01*
Y374750D02*Y374000D01*
X263600Y378500D02*Y372500D01*
Y373250D02*X264350Y372500D01*
X265850D01*
X266600Y373250D01*
Y374750D02*Y373250D01*
X265850Y375500D02*X266600Y374750D01*
X264350Y375500D02*X265850D01*
X263600Y374750D02*X264350Y375500D01*
X271100Y377750D02*X271850Y378500D01*
X274100D01*
X274850Y377750D01*
Y376250D01*
X271100Y372500D02*X274850Y376250D01*
X271100Y372500D02*X274850D01*
X276650Y373250D02*X277400Y372500D01*
X276650Y377750D02*Y373250D01*
Y377750D02*X277400Y378500D01*
X278900D01*
X279650Y377750D01*
Y373250D01*
X278900Y372500D02*X279650Y373250D01*
X277400Y372500D02*X278900D01*
X276650Y374000D02*X279650Y377000D01*
X282200Y372500D02*X283700D01*
X282950Y378500D02*Y372500D01*
X281450Y377000D02*X282950Y378500D01*
X285500Y377750D02*X286250Y378500D01*
X287750D01*
X288500Y377750D01*
Y373250D01*
X287750Y372500D02*X288500Y373250D01*
X286250Y372500D02*X287750D01*
X285500Y373250D02*X286250Y372500D01*
Y375500D02*X288500D01*
X293000Y373250D02*X293750Y372500D01*
X293000Y377750D02*Y373250D01*
Y377750D02*X293750Y378500D01*
X295250D01*
X296000Y377750D01*
Y373250D01*
X295250Y372500D02*X296000Y373250D01*
X293750Y372500D02*X295250D01*
X293000Y374000D02*X296000Y377000D01*
X297800Y372500D02*X301550Y376250D01*
Y378500D02*Y376250D01*
X297800Y378500D02*X301550D01*
X303350Y376250D02*X304100D01*
X303350Y374750D02*X304100D01*
X305900Y375500D02*X308900Y378500D01*
X305900Y375500D02*X309650D01*
X308900Y378500D02*Y372500D01*
X311450D02*X315200Y376250D01*
Y378500D02*Y376250D01*
X311450Y378500D02*X315200D01*
X317000Y376250D02*X317750D01*
X317000Y374750D02*X317750D01*
X319550Y378500D02*X322550D01*
X319550D02*Y375500D01*
X320300Y376250D01*
X321800D01*
X322550Y375500D01*
Y373250D01*
X321800Y372500D02*X322550Y373250D01*
X320300Y372500D02*X321800D01*
X319550Y373250D02*X320300Y372500D01*
X324350Y378500D02*X327350D01*
X324350D02*Y375500D01*
X325100Y376250D01*
X326600D01*
X327350Y375500D01*
Y373250D01*
X326600Y372500D02*X327350Y373250D01*
X325100Y372500D02*X326600D01*
X324350Y373250D02*X325100Y372500D01*
X332600Y378500D02*Y372500D01*
X331850Y378500D02*X334850D01*
X335600Y377750D01*
Y376250D01*
X334850Y375500D02*X335600Y376250D01*
X332600Y375500D02*X334850D01*
X337400Y378500D02*Y372500D01*
Y378500D02*X339650Y376250D01*
X341900Y378500D01*
Y372500D01*
X349400Y378500D02*X350150Y377750D01*
X347150Y378500D02*X349400D01*
X346400Y377750D02*X347150Y378500D01*
X346400Y377750D02*Y373250D01*
X347150Y372500D01*
X349400D01*
X350150Y373250D01*
Y374750D02*Y373250D01*
X349400Y375500D02*X350150Y374750D01*
X347900Y375500D02*X349400D01*
X351950Y378500D02*Y372500D01*
Y378500D02*X354200Y376250D01*
X356450Y378500D01*
Y372500D01*
X358250Y378500D02*X361250D01*
X359750D02*Y372500D01*
X365750Y378500D02*Y373250D01*
X366500Y372500D01*
X368000D01*
X368750Y373250D01*
Y378500D02*Y373250D01*
X370550Y378500D02*X373550D01*
X372050D02*Y372500D01*
X376100D02*X378350D01*
X375350Y373250D02*X376100Y372500D01*
X375350Y377750D02*Y373250D01*
Y377750D02*X376100Y378500D01*
X378350D01*
X200000Y392750D02*Y387500D01*
Y392750D02*X200750Y393500D01*
X203000D01*
X203750Y392750D01*
Y387500D01*
X200000Y390500D02*X203750D01*
X205550D02*Y388250D01*
X206300Y387500D01*
X207800D01*
X208550Y388250D01*
Y390500D02*Y388250D01*
X211100Y393500D02*Y388250D01*
X211850Y387500D01*
X210350Y391250D02*X211850D01*
X213350Y393500D02*Y387500D01*
Y389750D02*X214100Y390500D01*
X215600D01*
X216350Y389750D01*
Y387500D01*
X218150Y389750D02*Y388250D01*
Y389750D02*X218900Y390500D01*
X220400D01*
X221150Y389750D01*
Y388250D01*
X220400Y387500D02*X221150Y388250D01*
X218900Y387500D02*X220400D01*
X218150Y388250D02*X218900Y387500D01*
X223700Y389750D02*Y387500D01*
Y389750D02*X224450Y390500D01*
X225950D01*
X222950D02*X223700Y389750D01*
X227750Y391250D02*X228500D01*
X227750Y389750D02*X228500D01*
X233000Y393500D02*Y387500D01*
Y393500D02*X235250Y391250D01*
X237500Y393500D01*
Y387500D01*
X239300Y392000D02*Y391250D01*
Y389750D02*Y387500D01*
X241550Y390500D02*X243800D01*
X240800Y389750D02*X241550Y390500D01*
X240800Y389750D02*Y388250D01*
X241550Y387500D01*
X243800D01*
X245600Y393500D02*Y387500D01*
Y389750D02*X246350Y390500D01*
X247850D01*
X248600Y389750D01*
Y387500D01*
X252650Y390500D02*X253400Y389750D01*
X251150Y390500D02*X252650D01*
X250400Y389750D02*X251150Y390500D01*
X250400Y389750D02*Y388250D01*
X251150Y387500D01*
X253400Y390500D02*Y388250D01*
X254150Y387500D01*
X251150D02*X252650D01*
X253400Y388250D01*
X256700Y387500D02*X258950D01*
X255950Y388250D02*X256700Y387500D01*
X255950Y389750D02*Y388250D01*
Y389750D02*X256700Y390500D01*
X258200D01*
X258950Y389750D01*
X255950Y389000D02*X258950D01*
Y389750D02*Y389000D01*
X260750Y393500D02*Y388250D01*
X261500Y387500D01*
X266450Y393500D02*Y387500D01*
X265700Y393500D02*X268700D01*
X269450Y392750D01*
Y391250D01*
X268700Y390500D02*X269450Y391250D01*
X266450Y390500D02*X268700D01*
X272000Y387500D02*X274250D01*
X271250Y388250D02*X272000Y387500D01*
X271250Y389750D02*Y388250D01*
Y389750D02*X272000Y390500D01*
X273500D01*
X274250Y389750D01*
X271250Y389000D02*X274250D01*
Y389750D02*Y389000D01*
X276800Y393500D02*Y388250D01*
X277550Y387500D01*
X276050Y391250D02*X277550D01*
X279800Y387500D02*X282050D01*
X279050Y388250D02*X279800Y387500D01*
X279050Y389750D02*Y388250D01*
Y389750D02*X279800Y390500D01*
X281300D01*
X282050Y389750D01*
X279050Y389000D02*X282050D01*
Y389750D02*Y389000D01*
X284600Y389750D02*Y387500D01*
Y389750D02*X285350Y390500D01*
X286850D01*
X283850D02*X284600Y389750D01*
X289400Y387500D02*X291650D01*
X292400Y388250D01*
X291650Y389000D02*X292400Y388250D01*
X289400Y389000D02*X291650D01*
X288650Y389750D02*X289400Y389000D01*
X288650Y389750D02*X289400Y390500D01*
X291650D01*
X292400Y389750D01*
X288650Y388250D02*X289400Y387500D01*
X294950D02*X297200D01*
X294200Y388250D02*X294950Y387500D01*
X294200Y389750D02*Y388250D01*
Y389750D02*X294950Y390500D01*
X296450D01*
X297200Y389750D01*
X294200Y389000D02*X297200D01*
Y389750D02*Y389000D01*
X299750Y389750D02*Y387500D01*
Y389750D02*X300500Y390500D01*
X301250D01*
X302000Y389750D01*
Y387500D01*
X299000Y390500D02*X299750Y389750D01*
X200000Y408500D02*X203000D01*
X201500D02*Y402500D01*
X204800Y407000D02*Y406250D01*
Y404750D02*Y402500D01*
X207050Y408500D02*Y403250D01*
X207800Y402500D01*
X206300Y406250D02*X207800D01*
X209300Y408500D02*Y403250D01*
X210050Y402500D01*
X212300D02*X214550D01*
X211550Y403250D02*X212300Y402500D01*
X211550Y404750D02*Y403250D01*
Y404750D02*X212300Y405500D01*
X213800D01*
X214550Y404750D01*
X211550Y404000D02*X214550D01*
Y404750D02*Y404000D01*
X216350Y406250D02*X217100D01*
X216350Y404750D02*X217100D01*
X221600Y403250D02*X222350Y402500D01*
X221600Y407750D02*X222350Y408500D01*
X221600Y407750D02*Y403250D01*
X224150Y405500D02*Y403250D01*
X224900Y402500D01*
X226400D01*
X227150Y403250D01*
Y405500D02*Y403250D01*
X229700Y404750D02*Y402500D01*
Y404750D02*X230450Y405500D01*
X231200D01*
X231950Y404750D01*
Y402500D01*
X228950Y405500D02*X229700Y404750D01*
X233750Y408500D02*Y402500D01*
Y404750D02*X236000Y402500D01*
X233750Y404750D02*X235250Y406250D01*
X238550Y404750D02*Y402500D01*
Y404750D02*X239300Y405500D01*
X240050D01*
X240800Y404750D01*
Y402500D01*
X237800Y405500D02*X238550Y404750D01*
X242600D02*Y403250D01*
Y404750D02*X243350Y405500D01*
X244850D01*
X245600Y404750D01*
Y403250D01*
X244850Y402500D02*X245600Y403250D01*
X243350Y402500D02*X244850D01*
X242600Y403250D02*X243350Y402500D01*
X247400Y405500D02*Y403250D01*
X248150Y402500D01*
X248900D01*
X249650Y403250D01*
Y405500D02*Y403250D01*
X250400Y402500D01*
X251150D01*
X251900Y403250D01*
Y405500D02*Y403250D01*
X254450Y404750D02*Y402500D01*
Y404750D02*X255200Y405500D01*
X255950D01*
X256700Y404750D01*
Y402500D01*
X253700Y405500D02*X254450Y404750D01*
X258500Y408500D02*X259250Y407750D01*
Y403250D01*
X258500Y402500D02*X259250Y403250D01*
X263750Y405500D02*X266750D01*
X271250Y408500D02*Y402500D01*
Y408500D02*X274250D01*
X271250Y405500D02*X273500D01*
X278300D02*X279050Y404750D01*
X276800Y405500D02*X278300D01*
X276050Y404750D02*X276800Y405500D01*
X276050Y404750D02*Y403250D01*
X276800Y402500D01*
X279050Y405500D02*Y403250D01*
X279800Y402500D01*
X276800D02*X278300D01*
X279050Y403250D01*
X281600Y408500D02*Y402500D01*
Y403250D02*X282350Y402500D01*
X283850D01*
X284600Y403250D01*
Y404750D02*Y403250D01*
X283850Y405500D02*X284600Y404750D01*
X282350Y405500D02*X283850D01*
X281600Y404750D02*X282350Y405500D01*
X287150Y404750D02*Y402500D01*
Y404750D02*X287900Y405500D01*
X289400D01*
X286400D02*X287150Y404750D01*
X291200Y407000D02*Y406250D01*
Y404750D02*Y402500D01*
X293450Y405500D02*X295700D01*
X292700Y404750D02*X293450Y405500D01*
X292700Y404750D02*Y403250D01*
X293450Y402500D01*
X295700D01*
X299750Y405500D02*X300500Y404750D01*
X298250Y405500D02*X299750D01*
X297500Y404750D02*X298250Y405500D01*
X297500Y404750D02*Y403250D01*
X298250Y402500D01*
X300500Y405500D02*Y403250D01*
X301250Y402500D01*
X298250D02*X299750D01*
X300500Y403250D01*
X303800Y408500D02*Y403250D01*
X304550Y402500D01*
X303050Y406250D02*X304550D01*
X306050Y407000D02*Y406250D01*
Y404750D02*Y402500D01*
X307550Y404750D02*Y403250D01*
Y404750D02*X308300Y405500D01*
X309800D01*
X310550Y404750D01*
Y403250D01*
X309800Y402500D02*X310550Y403250D01*
X308300Y402500D02*X309800D01*
X307550Y403250D02*X308300Y402500D01*
X313100Y404750D02*Y402500D01*
Y404750D02*X313850Y405500D01*
X314600D01*
X315350Y404750D01*
Y402500D01*
X312350Y405500D02*X313100Y404750D01*
X320600Y408500D02*Y402500D01*
X322850Y408500D02*X323600Y407750D01*
Y403250D01*
X322850Y402500D02*X323600Y403250D01*
X319850Y402500D02*X322850D01*
X319850Y408500D02*X322850D01*
X326150Y404750D02*Y402500D01*
Y404750D02*X326900Y405500D01*
X328400D01*
X325400D02*X326150Y404750D01*
X332450Y405500D02*X333200Y404750D01*
X330950Y405500D02*X332450D01*
X330200Y404750D02*X330950Y405500D01*
X330200Y404750D02*Y403250D01*
X330950Y402500D01*
X333200Y405500D02*Y403250D01*
X333950Y402500D01*
X330950D02*X332450D01*
X333200Y403250D01*
X335750Y405500D02*Y403250D01*
X336500Y402500D01*
X337250D01*
X338000Y403250D01*
Y405500D02*Y403250D01*
X338750Y402500D01*
X339500D01*
X340250Y403250D01*
Y405500D02*Y403250D01*
X342050Y407000D02*Y406250D01*
Y404750D02*Y402500D01*
X344300Y404750D02*Y402500D01*
Y404750D02*X345050Y405500D01*
X345800D01*
X346550Y404750D01*
Y402500D01*
X343550Y405500D02*X344300Y404750D01*
X350600Y405500D02*X351350Y404750D01*
X349100Y405500D02*X350600D01*
X348350Y404750D02*X349100Y405500D01*
X348350Y404750D02*Y403250D01*
X349100Y402500D01*
X350600D01*
X351350Y403250D01*
X348350Y401000D02*X349100Y400250D01*
X350600D01*
X351350Y401000D01*
Y405500D02*Y401000D01*
M02*
