M48
INCH
T81C0.053
T80C0.045
T79C0.028
T78C0.032
T77C0.128
T76C0.035
T75C0.020
T74C0.129
T73C0.038
T72C0.048
%
T75
X012389Y017300
X014311Y017300
X017150Y012300
X017750Y012300
X018350Y012550
X018350Y013050
X016150Y020100
X014800Y020300
X015300Y020300
X012200Y020300
X019800Y009650
X015800Y013850
X012400Y010950
X008800Y013100
X008300Y013100
X006400Y013100
X006400Y014500
X008350Y016500
X008800Y017400
X009200Y017050
X008600Y018200
X009650Y016950
X010100Y016950
X008150Y018200
X007700Y018200
X007500Y016400
X007250Y018200
X007150Y016950
X003650Y017000
X005100Y017350
X004000Y017350
X003500Y009950
X010800Y016500
X008550Y019300
X006250Y019200
X007850Y020450
X008950Y019900
X010950Y019750
X009450Y019900
X012700Y020300
X013600Y022750
X011250Y020450
X011700Y020300
X011250Y020900
X008050Y022550
X009100Y021450
X010100Y021450
X009600Y021450
X010350Y019000
X017050Y017550
X015800Y016950
X013800Y016250
X011950Y015750
X013800Y015800
X015750Y020900
X015100Y021450
X014100Y021450
X014600Y021450
X013600Y021450
X015600Y021450
X014300Y020300
X013339Y018900
X016500Y013550
X015300Y013850
X015300Y010450
X014850Y010450
X013950Y007400
X013950Y007850
X013950Y008300
X017250Y010450
X016800Y010450
X016050Y008250
X015150Y006800
X017200Y005300
X011550Y006450
X011550Y006900
X011700Y009050
X011250Y009050
X009000Y009050
X009450Y009050
X011850Y009650
X011200Y011100
X011250Y009650
X009150Y008050
X008900Y007600
X009550Y007850
X010150Y007900
X010600Y007900
X010500Y010600
X008550Y009650
X013850Y029150
X013850Y030950
X013850Y029600
X013850Y030050
X013850Y030500
X013650Y034200
X011850Y030750
X013650Y033700
X010350Y033850
X002550Y021300
X001050Y020750
X002400Y023150
X001450Y020350
X003900Y025000
X000900Y023700
X002100Y026600
X002100Y028750
X003500Y029450
X003200Y028700
X003200Y029150
X002100Y029250
X002350Y031100
X001900Y031100
X001450Y031100
X002800Y031100
X005000Y031850
X006900Y022250
X005650Y022750
X006400Y022250
X005900Y022250
X002550Y022350
X005500Y019200
X002500Y018800
X004500Y021050
X004900Y020850
X005700Y025550
X005700Y026100
X006200Y025550
X006200Y026100
X006050Y021550
X006050Y020850
X006200Y024450
X006200Y025000
X005700Y025000
X005700Y024450
X006200Y026650
X005700Y026650
X007300Y027450
X013850Y026450
X012150Y025400
X008850Y025500
X008400Y028050
X013850Y028700
X013850Y027350
X013850Y028250
X013850Y027800
X013850Y026900
X015500Y028150
X015050Y028150
X014600Y028150
X014600Y028700
X015500Y027700
X015950Y027700
X015500Y027250
X015950Y027250
X015050Y027700
X014600Y027700
X014600Y027250
X015050Y027250
X015950Y028150
X015950Y029250
X015950Y029700
X015950Y030150
X015500Y029250
X015050Y029250
X014600Y029250
X014600Y029700
X015050Y029700
X015500Y029700
X015500Y030150
X015050Y030150
X014600Y030150
T79
X008850Y026950
X009850Y026950
X010850Y026950
X011850Y026950
X011850Y029950
X010850Y029950
X009850Y029950
X008850Y029950
T78
X004439Y031025
X004439Y030237
X004439Y029450
X004439Y028663
X004439Y027875
X004439Y027088
X004439Y026300
X004439Y025513
X004439Y024726
X004439Y023938
X013100Y031025
X013100Y030237
X013100Y029450
X013100Y028663
X013100Y027875
X013100Y027088
X013100Y026300
X013100Y025513
X013100Y024726
X013100Y023938
T76
X016650Y018700
X017650Y019200
X017650Y020200
X017650Y021200
X016650Y019700
X016650Y020700
T73
X005400Y008250
X005400Y007250
X005400Y006250
X006400Y008250
X006400Y007250
X006400Y006250
X007400Y008250
X007400Y007250
X007400Y006250
X005400Y010500
X006400Y010500
X007400Y010500
X010200Y014950
X012300Y014950
X013300Y014950
X014300Y014950
X010200Y013950
X012300Y013950
X013300Y013950
X014300Y013950
T80
X019750Y026300
X019750Y027300
X019750Y028300
T72
X002500Y007550
X002500Y005550
X002500Y011550
X002500Y009550
X020500Y005550
X018100Y002300
X019100Y002300
X012100Y002300
X013100Y002300
X014100Y002300
X015100Y002300
X016100Y002300
X017100Y002300
X009900Y002300
X010900Y002300
X003900Y002300
X004900Y002300
X005900Y002300
X006900Y002300
X007900Y002300
X008900Y002300
X002500Y015550
X002500Y013550
X020500Y007550
X020500Y009550
X020500Y011550
X020500Y013550
X020500Y015550
X013300Y032650
X011300Y032650
X017300Y032650
T81
X015300Y032650
T77
X020150Y017950
X020150Y021950
T74
X021300Y001700
X001700Y001700
X001700Y033300
X021300Y033300
M30
