G04 start of page 2 for group 0 idx 0 *
G04 Title: (unknown), component *
G04 Creator: pcb 20110918 *
G04 CreationDate: Sat 02 Feb 2013 07:47:55 PM GMT UTC *
G04 For: petersen *
G04 Format: Gerber/RS-274X *
G04 PCB-Dimensions: 230000 350000 *
G04 PCB-Coordinate-Origin: lower left *
%MOIN*%
%FSLAX25Y25*%
%LNTOP*%
%ADD48C,0.0530*%
%ADD47C,0.0450*%
%ADD46C,0.0280*%
%ADD45C,0.0320*%
%ADD44C,0.1280*%
%ADD43C,0.1285*%
%ADD42C,0.0380*%
%ADD41C,0.0480*%
%ADD40C,0.0360*%
%ADD39R,0.0244X0.0244*%
%ADD38R,0.0945X0.0945*%
%ADD37R,0.0378X0.0378*%
%ADD36R,0.0117X0.0117*%
%ADD35R,0.1240X0.1240*%
%ADD34R,0.0098X0.0098*%
%ADD33R,0.1220X0.1220*%
%ADD32R,0.0560X0.0560*%
%ADD31R,0.0157X0.0157*%
%ADD30R,0.0630X0.0630*%
%ADD29R,0.0360X0.0360*%
%ADD28R,0.0490X0.0490*%
%ADD27R,0.0340X0.0340*%
%ADD26R,0.0512X0.0512*%
%ADD25C,0.0787*%
%ADD24C,0.0640*%
%ADD23C,0.1440*%
%ADD22C,0.0700*%
%ADD21C,0.2937*%
%ADD20C,0.0800*%
%ADD19C,0.0400*%
%ADD18C,0.0600*%
%ADD17C,0.0150*%
%ADD16C,0.0350*%
%ADD15C,0.0300*%
%ADD14C,0.0500*%
%ADD13C,0.0200*%
%ADD12C,0.0100*%
%ADD11C,0.0001*%
G54D11*G36*
X187500Y321000D02*X195500D01*
Y311000D01*
X187500D01*
Y321000D01*
G37*
G36*
X191500Y325879D02*X195500Y321879D01*
Y311000D01*
X191500D01*
Y314704D01*
X194057Y314709D01*
X194210Y314746D01*
X194355Y314806D01*
X194490Y314888D01*
X194609Y314991D01*
X194712Y315110D01*
X194794Y315245D01*
X194854Y315390D01*
X194891Y315543D01*
X194900Y315700D01*
X194891Y319457D01*
X194854Y319610D01*
X194794Y319755D01*
X194712Y319890D01*
X194609Y320009D01*
X194490Y320112D01*
X194355Y320194D01*
X194210Y320254D01*
X194057Y320291D01*
X193900Y320300D01*
X191500Y320296D01*
Y325879D01*
G37*
G36*
X177750Y335500D02*X188000D01*
Y330059D01*
X187995Y330000D01*
X188014Y329765D01*
X188069Y329535D01*
X188159Y329317D01*
X188283Y329116D01*
X188436Y328936D01*
X188481Y328898D01*
X191500Y325879D01*
Y320296D01*
X188943Y320291D01*
X188790Y320254D01*
X188645Y320194D01*
X188510Y320112D01*
X188391Y320009D01*
X188288Y319890D01*
X188206Y319755D01*
X188146Y319610D01*
X188109Y319457D01*
X188100Y319300D01*
X188109Y315543D01*
X188146Y315390D01*
X188206Y315245D01*
X188288Y315110D01*
X188391Y314991D01*
X188510Y314888D01*
X188645Y314806D01*
X188790Y314746D01*
X188943Y314709D01*
X189100Y314700D01*
X191500Y314704D01*
Y311000D01*
X177750D01*
Y323248D01*
X177868Y323257D01*
X177982Y323285D01*
X178092Y323330D01*
X178192Y323391D01*
X178282Y323468D01*
X178359Y323558D01*
X178420Y323658D01*
X178465Y323768D01*
X178493Y323882D01*
X178500Y324000D01*
Y329000D01*
X178493Y329118D01*
X178465Y329232D01*
X178420Y329342D01*
X178359Y329442D01*
X178282Y329532D01*
X178192Y329609D01*
X178092Y329670D01*
X177982Y329715D01*
X177868Y329743D01*
X177750Y329752D01*
Y335500D01*
G37*
G36*
X173000D02*X177750D01*
Y329752D01*
X177632Y329743D01*
X177518Y329715D01*
X177408Y329670D01*
X177308Y329609D01*
X177218Y329532D01*
X177141Y329442D01*
X177080Y329342D01*
X177035Y329232D01*
X177007Y329118D01*
X177000Y329000D01*
Y324000D01*
X177007Y323882D01*
X177035Y323768D01*
X177080Y323658D01*
X177141Y323558D01*
X177218Y323468D01*
X177308Y323391D01*
X177408Y323330D01*
X177518Y323285D01*
X177632Y323257D01*
X177750Y323248D01*
Y311000D01*
X173000D01*
Y321000D01*
X175500D01*
X175618Y321007D01*
X175732Y321035D01*
X175842Y321080D01*
X175942Y321141D01*
X176032Y321218D01*
X176109Y321308D01*
X176170Y321408D01*
X176215Y321518D01*
X176243Y321632D01*
X176252Y321750D01*
X176243Y321868D01*
X176215Y321982D01*
X176170Y322092D01*
X176109Y322192D01*
X176032Y322282D01*
X175942Y322359D01*
X175842Y322420D01*
X175732Y322465D01*
X175618Y322493D01*
X175500Y322500D01*
X173000D01*
Y330500D01*
X175500D01*
X175618Y330507D01*
X175732Y330535D01*
X175842Y330580D01*
X175942Y330641D01*
X176032Y330718D01*
X176109Y330808D01*
X176170Y330908D01*
X176215Y331018D01*
X176243Y331132D01*
X176252Y331250D01*
X176243Y331368D01*
X176215Y331482D01*
X176170Y331592D01*
X176109Y331692D01*
X176032Y331782D01*
X175942Y331859D01*
X175842Y331920D01*
X175732Y331965D01*
X175618Y331993D01*
X175500Y332000D01*
X173000D01*
Y335500D01*
G37*
G36*
X168250D02*X173000D01*
Y332000D01*
X170500D01*
X170382Y331993D01*
X170268Y331965D01*
X170158Y331920D01*
X170058Y331859D01*
X169968Y331782D01*
X169891Y331692D01*
X169830Y331592D01*
X169785Y331482D01*
X169757Y331368D01*
X169748Y331250D01*
X169757Y331132D01*
X169785Y331018D01*
X169830Y330908D01*
X169891Y330808D01*
X169968Y330718D01*
X170058Y330641D01*
X170158Y330580D01*
X170268Y330535D01*
X170382Y330507D01*
X170500Y330500D01*
X173000D01*
Y322500D01*
X170500D01*
X170382Y322493D01*
X170268Y322465D01*
X170158Y322420D01*
X170058Y322359D01*
X169968Y322282D01*
X169891Y322192D01*
X169830Y322092D01*
X169785Y321982D01*
X169757Y321868D01*
X169748Y321750D01*
X169757Y321632D01*
X169785Y321518D01*
X169830Y321408D01*
X169891Y321308D01*
X169968Y321218D01*
X170058Y321141D01*
X170158Y321080D01*
X170268Y321035D01*
X170382Y321007D01*
X170500Y321000D01*
X173000D01*
Y311000D01*
X168250D01*
Y323248D01*
X168368Y323257D01*
X168482Y323285D01*
X168592Y323330D01*
X168692Y323391D01*
X168782Y323468D01*
X168859Y323558D01*
X168920Y323658D01*
X168965Y323768D01*
X168993Y323882D01*
X169000Y324000D01*
Y329000D01*
X168993Y329118D01*
X168965Y329232D01*
X168920Y329342D01*
X168859Y329442D01*
X168782Y329532D01*
X168692Y329609D01*
X168592Y329670D01*
X168482Y329715D01*
X168368Y329743D01*
X168250Y329752D01*
Y335500D01*
G37*
G36*
X166000D02*X168250D01*
Y329752D01*
X168132Y329743D01*
X168018Y329715D01*
X167908Y329670D01*
X167808Y329609D01*
X167718Y329532D01*
X167641Y329442D01*
X167580Y329342D01*
X167535Y329232D01*
X167507Y329118D01*
X167500Y329000D01*
Y324000D01*
X167507Y323882D01*
X167535Y323768D01*
X167580Y323658D01*
X167641Y323558D01*
X167718Y323468D01*
X167808Y323391D01*
X167908Y323330D01*
X168018Y323285D01*
X168132Y323257D01*
X168250Y323248D01*
Y311000D01*
X166000D01*
Y335500D01*
G37*
G36*
X164000Y253500D02*X142500D01*
Y295500D01*
X164000D01*
Y253500D01*
G37*
G36*
X142500Y257000D02*X151000D01*
Y241000D01*
X142500D01*
Y257000D01*
G37*
G36*
X164000Y335500D02*Y253500D01*
X160638D01*
X160645Y253529D01*
X160654Y253686D01*
X160645Y264471D01*
X160608Y264624D01*
X160548Y264769D01*
X160466Y264904D01*
X160363Y265023D01*
X160244Y265126D01*
X160109Y265208D01*
X159964Y265268D01*
X159811Y265305D01*
X159654Y265314D01*
X157493Y265310D01*
Y282359D01*
X161692Y282364D01*
X161922Y282419D01*
X162140Y282509D01*
X162341Y282633D01*
X162521Y282786D01*
X162674Y282966D01*
X162798Y283167D01*
X162888Y283385D01*
X162943Y283615D01*
X162957Y283850D01*
X162943Y290385D01*
X162888Y290615D01*
X162798Y290833D01*
X162674Y291034D01*
X162521Y291214D01*
X162341Y291367D01*
X162140Y291491D01*
X161922Y291581D01*
X161692Y291636D01*
X161457Y291650D01*
X157493Y291646D01*
Y323645D01*
X157578Y323681D01*
X157679Y323743D01*
X157769Y323819D01*
X157845Y323909D01*
X157905Y324011D01*
X158122Y324480D01*
X158289Y324969D01*
X158409Y325472D01*
X158482Y325984D01*
X158506Y326500D01*
X158482Y327016D01*
X158409Y327528D01*
X158289Y328031D01*
X158122Y328520D01*
X157910Y328992D01*
X157849Y329093D01*
X157772Y329184D01*
X157682Y329261D01*
X157580Y329323D01*
X157493Y329360D01*
Y335500D01*
X164000D01*
G37*
G36*
X157493Y291646D02*X153002Y291641D01*
Y320994D01*
X153516Y321018D01*
X154028Y321091D01*
X154531Y321211D01*
X155020Y321378D01*
X155492Y321590D01*
X155593Y321651D01*
X155684Y321728D01*
X155761Y321818D01*
X155823Y321920D01*
X155869Y322029D01*
X155897Y322145D01*
X155906Y322263D01*
X155897Y322381D01*
X155870Y322497D01*
X155824Y322607D01*
X155762Y322708D01*
X155686Y322798D01*
X155595Y322876D01*
X155494Y322938D01*
X155385Y322984D01*
X155269Y323011D01*
X155151Y323021D01*
X155032Y323012D01*
X154917Y322984D01*
X154808Y322937D01*
X154468Y322779D01*
X154112Y322658D01*
X153747Y322570D01*
X153375Y322518D01*
X153002Y322500D01*
Y330500D01*
X153375Y330482D01*
X153747Y330430D01*
X154112Y330342D01*
X154468Y330221D01*
X154810Y330067D01*
X154918Y330020D01*
X155033Y329993D01*
X155151Y329983D01*
X155268Y329993D01*
X155383Y330021D01*
X155492Y330066D01*
X155593Y330128D01*
X155682Y330205D01*
X155759Y330295D01*
X155820Y330395D01*
X155865Y330504D01*
X155893Y330619D01*
X155902Y330737D01*
X155892Y330855D01*
X155865Y330969D01*
X155819Y331078D01*
X155757Y331179D01*
X155681Y331269D01*
X155591Y331345D01*
X155489Y331405D01*
X155020Y331622D01*
X154531Y331789D01*
X154028Y331909D01*
X153516Y331982D01*
X153002Y332006D01*
Y335500D01*
X157493D01*
Y329360D01*
X157471Y329369D01*
X157355Y329397D01*
X157237Y329406D01*
X157119Y329397D01*
X157003Y329370D01*
X156893Y329324D01*
X156792Y329262D01*
X156702Y329186D01*
X156624Y329095D01*
X156562Y328994D01*
X156516Y328885D01*
X156489Y328769D01*
X156479Y328651D01*
X156488Y328532D01*
X156516Y328417D01*
X156563Y328308D01*
X156721Y327968D01*
X156842Y327612D01*
X156930Y327247D01*
X156982Y326875D01*
X157000Y326500D01*
X156982Y326125D01*
X156930Y325753D01*
X156842Y325388D01*
X156721Y325032D01*
X156567Y324690D01*
X156520Y324582D01*
X156493Y324467D01*
X156483Y324349D01*
X156493Y324232D01*
X156521Y324117D01*
X156566Y324008D01*
X156628Y323907D01*
X156705Y323818D01*
X156795Y323741D01*
X156895Y323680D01*
X157004Y323635D01*
X157119Y323607D01*
X157237Y323598D01*
X157355Y323608D01*
X157469Y323635D01*
X157493Y323645D01*
Y291646D01*
G37*
G36*
Y265310D02*X154379Y265305D01*
X154226Y265268D01*
X154081Y265208D01*
X153946Y265126D01*
X153827Y265023D01*
X153724Y264904D01*
X153642Y264769D01*
X153582Y264624D01*
X153545Y264471D01*
X153536Y264314D01*
X153545Y253529D01*
X153552Y253500D01*
X153002D01*
Y282354D01*
X157493Y282359D01*
Y265310D01*
G37*
G36*
X148507Y335500D02*X153002D01*
Y332006D01*
X153000Y332006D01*
X152484Y331982D01*
X151972Y331909D01*
X151469Y331789D01*
X150980Y331622D01*
X150508Y331410D01*
X150407Y331349D01*
X150316Y331272D01*
X150239Y331182D01*
X150177Y331080D01*
X150131Y330971D01*
X150103Y330855D01*
X150094Y330737D01*
X150103Y330619D01*
X150130Y330503D01*
X150176Y330393D01*
X150238Y330292D01*
X150314Y330202D01*
X150405Y330124D01*
X150506Y330062D01*
X150615Y330016D01*
X150731Y329989D01*
X150849Y329979D01*
X150968Y329988D01*
X151083Y330016D01*
X151192Y330063D01*
X151532Y330221D01*
X151888Y330342D01*
X152253Y330430D01*
X152625Y330482D01*
X153000Y330500D01*
X153002Y330500D01*
Y322500D01*
X153000Y322500D01*
X152625Y322518D01*
X152253Y322570D01*
X151888Y322658D01*
X151532Y322779D01*
X151190Y322933D01*
X151082Y322980D01*
X150967Y323007D01*
X150849Y323017D01*
X150732Y323007D01*
X150617Y322979D01*
X150508Y322934D01*
X150407Y322872D01*
X150318Y322795D01*
X150241Y322705D01*
X150180Y322605D01*
X150135Y322496D01*
X150107Y322381D01*
X150098Y322263D01*
X150108Y322145D01*
X150135Y322031D01*
X150181Y321922D01*
X150243Y321821D01*
X150319Y321731D01*
X150409Y321655D01*
X150511Y321595D01*
X150980Y321378D01*
X151469Y321211D01*
X151972Y321091D01*
X152484Y321018D01*
X153000Y320994D01*
X153002Y320994D01*
Y291641D01*
X148623Y291636D01*
X148507Y291608D01*
Y323640D01*
X148529Y323631D01*
X148645Y323603D01*
X148763Y323594D01*
X148881Y323603D01*
X148997Y323630D01*
X149107Y323676D01*
X149208Y323738D01*
X149298Y323814D01*
X149376Y323905D01*
X149438Y324006D01*
X149484Y324115D01*
X149511Y324231D01*
X149521Y324349D01*
X149512Y324468D01*
X149484Y324583D01*
X149437Y324692D01*
X149279Y325032D01*
X149158Y325388D01*
X149070Y325753D01*
X149018Y326125D01*
X149000Y326500D01*
X149018Y326875D01*
X149070Y327247D01*
X149158Y327612D01*
X149279Y327968D01*
X149433Y328310D01*
X149480Y328418D01*
X149507Y328533D01*
X149517Y328651D01*
X149507Y328768D01*
X149479Y328883D01*
X149434Y328992D01*
X149372Y329093D01*
X149295Y329182D01*
X149205Y329259D01*
X149105Y329320D01*
X148996Y329365D01*
X148881Y329393D01*
X148763Y329402D01*
X148645Y329392D01*
X148531Y329365D01*
X148507Y329355D01*
Y335500D01*
G37*
G36*
X153002Y253500D02*X148507D01*
Y282392D01*
X148623Y282364D01*
X148858Y282350D01*
X153002Y282354D01*
Y253500D01*
G37*
G36*
X148507D02*X142500D01*
Y317879D01*
X143519Y318898D01*
X143564Y318936D01*
X143717Y319115D01*
X143717Y319116D01*
X143841Y319317D01*
X143931Y319535D01*
X143986Y319765D01*
X144005Y320000D01*
X144000Y320059D01*
Y335500D01*
X148507D01*
Y329355D01*
X148422Y329319D01*
X148321Y329257D01*
X148231Y329181D01*
X148155Y329091D01*
X148095Y328989D01*
X147878Y328520D01*
X147711Y328031D01*
X147591Y327528D01*
X147518Y327016D01*
X147494Y326500D01*
X147518Y325984D01*
X147591Y325472D01*
X147711Y324969D01*
X147878Y324480D01*
X148090Y324008D01*
X148151Y323907D01*
X148228Y323816D01*
X148318Y323739D01*
X148420Y323677D01*
X148507Y323640D01*
Y291608D01*
X148393Y291581D01*
X148175Y291491D01*
X147974Y291367D01*
X147794Y291214D01*
X147641Y291034D01*
X147517Y290833D01*
X147427Y290615D01*
X147372Y290385D01*
X147358Y290150D01*
X147372Y283615D01*
X147427Y283385D01*
X147517Y283167D01*
X147641Y282966D01*
X147794Y282786D01*
X147974Y282633D01*
X148175Y282509D01*
X148393Y282419D01*
X148507Y282392D01*
Y253500D01*
G37*
G36*
X133500Y217000D02*X145000D01*
Y212000D01*
X133500D01*
Y217000D01*
G37*
G36*
X88500Y190000D02*Y196500D01*
X87000Y198000D01*
Y201000D01*
X96500D01*
Y198000D01*
X94500Y196000D01*
Y190000D01*
X88500D01*
G37*
G36*
X71500Y207500D02*X77000D01*
Y198000D01*
X71500D01*
Y207500D01*
G37*
G36*
X80500D01*
Y198000D01*
X71500D01*
Y207500D01*
G37*
G36*
X105500Y191500D02*Y189000D01*
X104500Y188000D01*
X98000D01*
Y196000D01*
X101000D01*
X105500Y191500D01*
G37*
G36*
X17500Y253000D02*Y299500D01*
X24500D01*
Y253000D01*
X17500D01*
G37*
G36*
X27000Y284000D02*X36500D01*
Y258500D01*
X27000D01*
Y284000D01*
G37*
G36*
X59000Y312000D02*X75500D01*
Y303500D01*
X59000D01*
Y312000D01*
G37*
G36*
X47500Y313500D02*Y307000D01*
X10000D01*
Y313500D01*
X47500D01*
G37*
G36*
X41000Y307000D02*Y313500D01*
X55000D01*
X57500Y311000D01*
Y288000D01*
X49000D01*
Y305500D01*
X47500Y307000D01*
X41000D01*
G37*
G36*
X49000Y286500D02*X60500D01*
Y241000D01*
X49000D01*
Y286500D01*
G37*
G36*
X59000Y297500D02*Y306000D01*
X65000D01*
Y297500D01*
X59000D01*
G37*
G36*
X7000Y284000D02*X15000D01*
Y252000D01*
X7000D01*
Y284000D01*
G37*
G36*
X133000Y218500D02*Y230000D01*
X139000D01*
Y218500D01*
X133000D01*
G37*
G36*
X88500Y236000D02*X103500D01*
Y210500D01*
X88500D01*
Y236000D01*
G37*
G36*
X77500Y312000D02*X84500D01*
Y303500D01*
X77500D01*
Y312000D01*
G37*
G36*
X92113D02*X93500D01*
Y294500D01*
X92113D01*
Y297353D01*
X92156Y297360D01*
X92268Y297397D01*
X92373Y297452D01*
X92468Y297522D01*
X92551Y297606D01*
X92619Y297702D01*
X92670Y297808D01*
X92818Y298216D01*
X92922Y298637D01*
X92984Y299067D01*
X93005Y299500D01*
X92984Y299933D01*
X92922Y300363D01*
X92818Y300784D01*
X92675Y301194D01*
X92622Y301300D01*
X92553Y301396D01*
X92470Y301481D01*
X92375Y301551D01*
X92269Y301606D01*
X92157Y301643D01*
X92113Y301651D01*
Y312000D01*
G37*
G36*
X88502D02*X92113D01*
Y301651D01*
X92040Y301663D01*
X91921Y301664D01*
X91804Y301646D01*
X91691Y301610D01*
X91585Y301557D01*
X91488Y301488D01*
X91404Y301405D01*
X91333Y301309D01*
X91279Y301204D01*
X91241Y301092D01*
X91222Y300975D01*
X91221Y300856D01*
X91239Y300739D01*
X91277Y300626D01*
X91376Y300355D01*
X91444Y300075D01*
X91486Y299789D01*
X91500Y299500D01*
X91486Y299211D01*
X91444Y298925D01*
X91376Y298645D01*
X91280Y298372D01*
X91242Y298261D01*
X91225Y298144D01*
X91225Y298026D01*
X91245Y297909D01*
X91282Y297797D01*
X91336Y297693D01*
X91406Y297598D01*
X91491Y297515D01*
X91587Y297446D01*
X91692Y297393D01*
X91805Y297357D01*
X91921Y297340D01*
X92039Y297341D01*
X92113Y297353D01*
Y294500D01*
X88502D01*
Y294995D01*
X88933Y295016D01*
X89363Y295078D01*
X89784Y295182D01*
X90194Y295325D01*
X90300Y295378D01*
X90396Y295447D01*
X90481Y295530D01*
X90551Y295625D01*
X90606Y295731D01*
X90643Y295843D01*
X90663Y295960D01*
X90664Y296079D01*
X90646Y296196D01*
X90610Y296309D01*
X90557Y296415D01*
X90488Y296512D01*
X90405Y296596D01*
X90309Y296667D01*
X90204Y296721D01*
X90092Y296759D01*
X89975Y296778D01*
X89856Y296779D01*
X89739Y296761D01*
X89626Y296723D01*
X89355Y296624D01*
X89075Y296556D01*
X88789Y296514D01*
X88502Y296500D01*
Y296994D01*
X88814Y297019D01*
X89120Y297092D01*
X89411Y297212D01*
X89679Y297377D01*
X89919Y297581D01*
X90123Y297821D01*
X90288Y298089D01*
X90408Y298380D01*
X90481Y298686D01*
X90506Y299000D01*
X90481Y299314D01*
X90408Y299620D01*
X90288Y299911D01*
X90123Y300179D01*
X89914Y300414D01*
X89371Y300957D01*
X89136Y301166D01*
X88868Y301331D01*
X88577Y301451D01*
X88502Y301469D01*
Y302500D01*
X88789Y302486D01*
X89075Y302444D01*
X89355Y302376D01*
X89628Y302280D01*
X89739Y302242D01*
X89856Y302225D01*
X89974Y302225D01*
X90091Y302245D01*
X90203Y302282D01*
X90307Y302336D01*
X90402Y302406D01*
X90485Y302491D01*
X90554Y302587D01*
X90607Y302692D01*
X90643Y302805D01*
X90660Y302921D01*
X90659Y303039D01*
X90640Y303156D01*
X90603Y303268D01*
X90548Y303373D01*
X90478Y303468D01*
X90394Y303551D01*
X90298Y303619D01*
X90192Y303670D01*
X89784Y303818D01*
X89363Y303922D01*
X88933Y303984D01*
X88502Y304005D01*
Y312000D01*
G37*
G36*
X84887D02*X88502D01*
Y304005D01*
X88500Y304005D01*
X88067Y303984D01*
X87637Y303922D01*
X87216Y303818D01*
X86806Y303675D01*
X86700Y303622D01*
X86604Y303553D01*
X86519Y303470D01*
X86449Y303375D01*
X86394Y303269D01*
X86357Y303157D01*
X86337Y303040D01*
X86336Y302921D01*
X86354Y302804D01*
X86390Y302691D01*
X86443Y302585D01*
X86512Y302488D01*
X86595Y302404D01*
X86691Y302333D01*
X86796Y302279D01*
X86908Y302241D01*
X87025Y302222D01*
X87144Y302221D01*
X87261Y302239D01*
X87374Y302277D01*
X87645Y302376D01*
X87925Y302444D01*
X88211Y302486D01*
X88500Y302500D01*
X88502Y302500D01*
Y301469D01*
X88271Y301524D01*
X87957Y301549D01*
X87643Y301524D01*
X87337Y301451D01*
X87046Y301331D01*
X86778Y301166D01*
X86538Y300962D01*
X86334Y300722D01*
X86169Y300454D01*
X86049Y300163D01*
X85976Y299857D01*
X85951Y299543D01*
X85976Y299229D01*
X86049Y298923D01*
X86169Y298632D01*
X86334Y298364D01*
X86543Y298129D01*
X87086Y297586D01*
X87321Y297377D01*
X87589Y297212D01*
X87880Y297092D01*
X88186Y297019D01*
X88500Y296994D01*
X88502Y296994D01*
Y296500D01*
X88500Y296500D01*
X88211Y296514D01*
X87925Y296556D01*
X87645Y296624D01*
X87372Y296720D01*
X87261Y296758D01*
X87144Y296775D01*
X87026Y296775D01*
X86909Y296755D01*
X86797Y296718D01*
X86693Y296664D01*
X86598Y296594D01*
X86515Y296509D01*
X86446Y296413D01*
X86393Y296308D01*
X86357Y296195D01*
X86340Y296079D01*
X86341Y295961D01*
X86360Y295844D01*
X86397Y295732D01*
X86452Y295627D01*
X86522Y295532D01*
X86606Y295449D01*
X86702Y295381D01*
X86808Y295330D01*
X87216Y295182D01*
X87637Y295078D01*
X88067Y295016D01*
X88500Y294995D01*
X88502Y294995D01*
Y294500D01*
X84887D01*
Y297349D01*
X84960Y297337D01*
X85079Y297336D01*
X85196Y297354D01*
X85309Y297390D01*
X85415Y297443D01*
X85512Y297512D01*
X85596Y297595D01*
X85667Y297691D01*
X85721Y297796D01*
X85759Y297908D01*
X85778Y298025D01*
X85779Y298144D01*
X85761Y298261D01*
X85723Y298374D01*
X85624Y298645D01*
X85556Y298925D01*
X85514Y299211D01*
X85500Y299500D01*
X85514Y299789D01*
X85556Y300075D01*
X85624Y300355D01*
X85720Y300628D01*
X85758Y300739D01*
X85775Y300856D01*
X85775Y300974D01*
X85755Y301091D01*
X85718Y301203D01*
X85664Y301307D01*
X85594Y301402D01*
X85509Y301485D01*
X85413Y301554D01*
X85308Y301607D01*
X85195Y301643D01*
X85079Y301660D01*
X84961Y301659D01*
X84887Y301647D01*
Y312000D01*
G37*
G36*
X83593D02*X84887D01*
Y301647D01*
X84844Y301640D01*
X84732Y301603D01*
X84627Y301548D01*
X84532Y301478D01*
X84449Y301394D01*
X84381Y301298D01*
X84330Y301192D01*
X84182Y300784D01*
X84078Y300363D01*
X84016Y299933D01*
X83995Y299500D01*
X84016Y299067D01*
X84078Y298637D01*
X84182Y298216D01*
X84325Y297806D01*
X84378Y297700D01*
X84447Y297604D01*
X84530Y297519D01*
X84625Y297449D01*
X84731Y297394D01*
X84843Y297357D01*
X84887Y297349D01*
Y294500D01*
X77500D01*
Y305048D01*
X82759Y305057D01*
X82912Y305094D01*
X83057Y305154D01*
X83192Y305236D01*
X83311Y305339D01*
X83414Y305458D01*
X83496Y305593D01*
X83556Y305738D01*
X83593Y305891D01*
X83602Y306048D01*
X83593Y312000D01*
G37*
G36*
X69500Y300500D02*X79500D01*
Y294500D01*
X69500D01*
Y300500D01*
G37*
G36*
X105000Y282500D02*X111000D01*
X105000Y276500D01*
Y282500D01*
G37*
G36*
X113500Y292000D02*Y281000D01*
X102000D01*
Y287000D01*
X113500Y292000D01*
G37*
G36*
X178000Y220000D02*X189500D01*
Y208500D01*
X178000Y220000D01*
G37*
G36*
X158000Y212000D02*Y212263D01*
X158128Y212372D01*
X158435Y212731D01*
X158681Y213134D01*
X158862Y213570D01*
X158972Y214029D01*
X159000Y214500D01*
X158972Y214971D01*
X158862Y215430D01*
X158681Y215866D01*
X158435Y216269D01*
X158128Y216628D01*
X158000Y216737D01*
Y219500D01*
X166500D01*
X159000Y212000D01*
X158000D01*
G37*
G36*
X140500Y227000D02*X148500D01*
Y218000D01*
X140500D01*
Y227000D01*
G37*
G36*
Y239500D02*X193960D01*
X193964Y235093D01*
X194001Y234940D01*
X194061Y234795D01*
X194143Y234660D01*
X194246Y234541D01*
X194365Y234438D01*
X194500Y234356D01*
X194645Y234296D01*
X194798Y234259D01*
X194955Y234250D01*
X200012Y234259D01*
X200165Y234296D01*
X200310Y234356D01*
X200445Y234438D01*
X200564Y234541D01*
X200667Y234660D01*
X200749Y234795D01*
X200809Y234940D01*
X200846Y235093D01*
X200855Y235250D01*
X200850Y239500D01*
X203000D01*
Y227573D01*
X202787Y227624D01*
X201500Y227725D01*
X200213Y227624D01*
X198958Y227323D01*
X197766Y226829D01*
X196665Y226154D01*
X195684Y225316D01*
X194846Y224335D01*
X194171Y223234D01*
X193677Y222042D01*
X193376Y220787D01*
X193275Y219500D01*
X193353Y218500D01*
X178559D01*
X178500Y218505D01*
X178441Y218500D01*
X166559D01*
X166500Y218505D01*
X166441Y218500D01*
X146439D01*
X146496Y218593D01*
X146556Y218738D01*
X146593Y218891D01*
X146602Y219048D01*
X146593Y225109D01*
X146556Y225262D01*
X146496Y225407D01*
X146414Y225542D01*
X146311Y225661D01*
X146192Y225764D01*
X146057Y225846D01*
X145912Y225906D01*
X145759Y225943D01*
X145602Y225952D01*
X140500Y225943D01*
Y239500D01*
G37*
G36*
Y221000D02*X159000D01*
Y212000D01*
X140500D01*
Y221000D01*
G37*
G36*
X187405Y237000D02*X177405D01*
Y261000D01*
X187405D01*
Y237000D01*
G37*
G36*
X165905Y281000D02*X175905D01*
Y252500D01*
X165905D01*
Y281000D01*
G37*
G36*
X166405Y291500D02*X185405D01*
Y282500D01*
X166405D01*
Y291500D01*
G37*
G36*
X164500Y93000D02*X181500D01*
Y85000D01*
X164500D01*
Y93000D01*
G37*
G36*
X202905Y234000D02*X176405D01*
Y250000D01*
X202905D01*
Y234000D01*
G37*
G36*
Y268500D02*Y265412D01*
X202858Y265477D01*
X202748Y265591D01*
X202621Y265685D01*
X202481Y265759D01*
X202332Y265809D01*
X202176Y265836D01*
X202018Y265838D01*
X201861Y265815D01*
X201710Y265768D01*
X201569Y265698D01*
X201439Y265607D01*
X201326Y265496D01*
X201232Y265370D01*
X201158Y265230D01*
X201108Y265080D01*
X201081Y264924D01*
X201079Y264766D01*
X201102Y264610D01*
X201152Y264460D01*
X201278Y264108D01*
X201366Y263744D01*
X201419Y263374D01*
X201437Y263000D01*
X201419Y262626D01*
X201366Y262256D01*
X201278Y261892D01*
X201156Y261539D01*
X201106Y261389D01*
X201083Y261234D01*
X201085Y261076D01*
X201112Y260921D01*
X201162Y260772D01*
X201236Y260633D01*
X201330Y260507D01*
X201442Y260397D01*
X201571Y260306D01*
X201712Y260236D01*
X201862Y260189D01*
X202018Y260167D01*
X202175Y260168D01*
X202331Y260195D01*
X202480Y260246D01*
X202619Y260319D01*
X202745Y260413D01*
X202855Y260525D01*
X202905Y260596D01*
Y237000D01*
X200853D01*
X200846Y243907D01*
X200809Y244060D01*
X200749Y244205D01*
X200667Y244340D01*
X200564Y244459D01*
X200445Y244562D01*
X200310Y244644D01*
X200165Y244704D01*
X200012Y244741D01*
X199855Y244750D01*
X197502Y244746D01*
Y257056D01*
X198064Y257083D01*
X198623Y257163D01*
X199172Y257296D01*
X199706Y257481D01*
X199848Y257550D01*
X199977Y257642D01*
X200091Y257752D01*
X200185Y257879D01*
X200259Y258019D01*
X200309Y258168D01*
X200336Y258324D01*
X200338Y258482D01*
X200315Y258639D01*
X200268Y258790D01*
X200198Y258931D01*
X200107Y259061D01*
X199996Y259174D01*
X199870Y259268D01*
X199730Y259342D01*
X199580Y259392D01*
X199424Y259419D01*
X199266Y259421D01*
X199110Y259398D01*
X198960Y259348D01*
X198608Y259222D01*
X198244Y259134D01*
X197874Y259081D01*
X197502Y259063D01*
Y266937D01*
X197874Y266919D01*
X198244Y266866D01*
X198608Y266778D01*
X198961Y266656D01*
X199111Y266606D01*
X199266Y266583D01*
X199424Y266585D01*
X199579Y266612D01*
X199728Y266662D01*
X199867Y266736D01*
X199993Y266830D01*
X200103Y266942D01*
X200194Y267071D01*
X200264Y267212D01*
X200311Y267362D01*
X200333Y267518D01*
X200332Y267675D01*
X200305Y267831D01*
X200254Y267980D01*
X200181Y268119D01*
X200087Y268245D01*
X199975Y268355D01*
X199846Y268446D01*
X199731Y268500D01*
X202905D01*
G37*
G36*
X197502Y244746D02*X194798Y244741D01*
X194645Y244704D01*
X194500Y244644D01*
X194365Y244562D01*
X194246Y244459D01*
X194143Y244340D01*
X194061Y244205D01*
X194001Y244060D01*
X193964Y243907D01*
X193955Y243750D01*
X193962Y237000D01*
X192739D01*
Y260179D01*
X192824Y260164D01*
X192982Y260162D01*
X193139Y260185D01*
X193290Y260232D01*
X193431Y260302D01*
X193561Y260393D01*
X193674Y260504D01*
X193768Y260630D01*
X193842Y260770D01*
X193892Y260920D01*
X193919Y261076D01*
X193921Y261234D01*
X193898Y261390D01*
X193848Y261540D01*
X193722Y261892D01*
X193634Y262256D01*
X193581Y262626D01*
X193563Y263000D01*
X193581Y263374D01*
X193634Y263744D01*
X193722Y264108D01*
X193844Y264461D01*
X193894Y264611D01*
X193917Y264766D01*
X193915Y264924D01*
X193888Y265079D01*
X193838Y265228D01*
X193764Y265367D01*
X193670Y265493D01*
X193558Y265603D01*
X193429Y265694D01*
X193288Y265764D01*
X193138Y265811D01*
X192982Y265833D01*
X192825Y265832D01*
X192739Y265817D01*
Y268500D01*
X195255D01*
X195152Y268450D01*
X195023Y268358D01*
X194909Y268248D01*
X194815Y268121D01*
X194741Y267981D01*
X194691Y267832D01*
X194664Y267676D01*
X194662Y267518D01*
X194685Y267361D01*
X194732Y267210D01*
X194802Y267069D01*
X194893Y266939D01*
X195004Y266826D01*
X195130Y266732D01*
X195270Y266658D01*
X195420Y266608D01*
X195576Y266581D01*
X195734Y266579D01*
X195890Y266602D01*
X196040Y266652D01*
X196392Y266778D01*
X196756Y266866D01*
X197126Y266919D01*
X197500Y266937D01*
X197502Y266937D01*
Y259063D01*
X197500Y259063D01*
X197126Y259081D01*
X196756Y259134D01*
X196392Y259222D01*
X196039Y259344D01*
X195889Y259394D01*
X195734Y259417D01*
X195576Y259415D01*
X195421Y259388D01*
X195272Y259338D01*
X195133Y259264D01*
X195007Y259170D01*
X194897Y259058D01*
X194806Y258929D01*
X194736Y258788D01*
X194689Y258638D01*
X194667Y258482D01*
X194668Y258325D01*
X194695Y258169D01*
X194746Y258020D01*
X194819Y257881D01*
X194913Y257755D01*
X195025Y257645D01*
X195154Y257554D01*
X195296Y257487D01*
X195828Y257296D01*
X196377Y257163D01*
X196936Y257083D01*
X197500Y257056D01*
X197502Y257056D01*
Y244746D01*
G37*
G36*
X192739Y237000D02*X185405D01*
Y268500D01*
X192739D01*
Y265817D01*
X192669Y265805D01*
X192520Y265754D01*
X192381Y265681D01*
X192255Y265587D01*
X192145Y265475D01*
X192054Y265346D01*
X191987Y265204D01*
X191796Y264672D01*
X191663Y264123D01*
X191583Y263564D01*
X191556Y263000D01*
X191583Y262436D01*
X191663Y261877D01*
X191796Y261328D01*
X191981Y260794D01*
X192050Y260652D01*
X192142Y260523D01*
X192252Y260409D01*
X192379Y260315D01*
X192519Y260241D01*
X192668Y260191D01*
X192739Y260179D01*
Y237000D01*
G37*
G36*
X213905Y275500D02*Y234000D01*
X203905D01*
Y275500D01*
X213905D01*
G37*
G36*
X209493Y232000D02*X218000D01*
Y145500D01*
X209493D01*
Y152645D01*
X209578Y152681D01*
X209679Y152743D01*
X209769Y152819D01*
X209845Y152909D01*
X209905Y153011D01*
X210122Y153480D01*
X210289Y153969D01*
X210409Y154472D01*
X210482Y154984D01*
X210506Y155500D01*
X210482Y156016D01*
X210409Y156528D01*
X210289Y157031D01*
X210122Y157520D01*
X209910Y157992D01*
X209849Y158093D01*
X209772Y158184D01*
X209682Y158261D01*
X209580Y158323D01*
X209493Y158360D01*
Y177666D01*
X209624Y178213D01*
X209700Y179500D01*
X209624Y180787D01*
X209493Y181334D01*
Y217666D01*
X209624Y218213D01*
X209700Y219500D01*
X209624Y220787D01*
X209493Y221334D01*
Y232000D01*
G37*
G36*
Y181334D02*X209323Y182042D01*
X208829Y183234D01*
X208154Y184335D01*
X207316Y185316D01*
X206335Y186154D01*
X205234Y186829D01*
X205002Y186925D01*
Y212075D01*
X205234Y212171D01*
X206335Y212846D01*
X207316Y213684D01*
X208154Y214665D01*
X208829Y215766D01*
X209323Y216958D01*
X209493Y217666D01*
Y181334D01*
G37*
G36*
Y145500D02*X205002D01*
Y149994D01*
X205516Y150018D01*
X206028Y150091D01*
X206531Y150211D01*
X207020Y150378D01*
X207492Y150590D01*
X207593Y150651D01*
X207684Y150728D01*
X207761Y150818D01*
X207823Y150920D01*
X207869Y151029D01*
X207897Y151145D01*
X207906Y151263D01*
X207897Y151381D01*
X207870Y151497D01*
X207824Y151607D01*
X207762Y151708D01*
X207686Y151798D01*
X207595Y151876D01*
X207494Y151938D01*
X207385Y151984D01*
X207269Y152011D01*
X207151Y152021D01*
X207032Y152012D01*
X206917Y151984D01*
X206808Y151937D01*
X206468Y151779D01*
X206112Y151658D01*
X205747Y151570D01*
X205375Y151518D01*
X205002Y151500D01*
Y159500D01*
X205375Y159482D01*
X205747Y159430D01*
X206112Y159342D01*
X206468Y159221D01*
X206810Y159067D01*
X206918Y159020D01*
X207033Y158993D01*
X207151Y158983D01*
X207268Y158993D01*
X207383Y159021D01*
X207492Y159066D01*
X207593Y159128D01*
X207682Y159205D01*
X207759Y159295D01*
X207820Y159395D01*
X207865Y159504D01*
X207893Y159619D01*
X207902Y159737D01*
X207892Y159855D01*
X207865Y159969D01*
X207819Y160078D01*
X207757Y160179D01*
X207681Y160269D01*
X207591Y160345D01*
X207489Y160405D01*
X207020Y160622D01*
X206531Y160789D01*
X206028Y160909D01*
X205516Y160982D01*
X205002Y161006D01*
Y172075D01*
X205234Y172171D01*
X206335Y172846D01*
X207316Y173684D01*
X208154Y174665D01*
X208829Y175766D01*
X209323Y176958D01*
X209493Y177666D01*
Y158360D01*
X209471Y158369D01*
X209355Y158397D01*
X209237Y158406D01*
X209119Y158397D01*
X209003Y158370D01*
X208893Y158324D01*
X208792Y158262D01*
X208702Y158186D01*
X208624Y158095D01*
X208562Y157994D01*
X208516Y157885D01*
X208489Y157769D01*
X208479Y157651D01*
X208488Y157532D01*
X208516Y157417D01*
X208563Y157308D01*
X208721Y156968D01*
X208842Y156612D01*
X208930Y156247D01*
X208982Y155875D01*
X209000Y155500D01*
X208982Y155125D01*
X208930Y154753D01*
X208842Y154388D01*
X208721Y154032D01*
X208567Y153690D01*
X208520Y153582D01*
X208493Y153467D01*
X208483Y153349D01*
X208493Y153232D01*
X208521Y153117D01*
X208566Y153008D01*
X208628Y152907D01*
X208705Y152818D01*
X208795Y152741D01*
X208895Y152680D01*
X209004Y152635D01*
X209119Y152607D01*
X209237Y152598D01*
X209355Y152608D01*
X209469Y152635D01*
X209493Y152645D01*
Y145500D01*
G37*
G36*
X205002Y232000D02*X209493D01*
Y221334D01*
X209323Y222042D01*
X208829Y223234D01*
X208154Y224335D01*
X207316Y225316D01*
X206335Y226154D01*
X205234Y226829D01*
X205002Y226925D01*
Y232000D01*
G37*
G36*
X200507Y171353D02*X201500Y171275D01*
X202787Y171376D01*
X204042Y171677D01*
X205002Y172075D01*
Y161006D01*
X205000Y161006D01*
X204484Y160982D01*
X203972Y160909D01*
X203469Y160789D01*
X202980Y160622D01*
X202508Y160410D01*
X202407Y160349D01*
X202316Y160272D01*
X202239Y160182D01*
X202177Y160080D01*
X202131Y159971D01*
X202103Y159855D01*
X202094Y159737D01*
X202103Y159619D01*
X202130Y159503D01*
X202176Y159393D01*
X202238Y159292D01*
X202314Y159202D01*
X202405Y159124D01*
X202506Y159062D01*
X202615Y159016D01*
X202731Y158989D01*
X202849Y158979D01*
X202968Y158988D01*
X203083Y159016D01*
X203192Y159063D01*
X203532Y159221D01*
X203888Y159342D01*
X204253Y159430D01*
X204625Y159482D01*
X205000Y159500D01*
X205002Y159500D01*
Y151500D01*
X205000Y151500D01*
X204625Y151518D01*
X204253Y151570D01*
X203888Y151658D01*
X203532Y151779D01*
X203190Y151933D01*
X203082Y151980D01*
X202967Y152007D01*
X202849Y152017D01*
X202732Y152007D01*
X202617Y151979D01*
X202508Y151934D01*
X202407Y151872D01*
X202318Y151795D01*
X202241Y151705D01*
X202180Y151605D01*
X202135Y151496D01*
X202107Y151381D01*
X202098Y151263D01*
X202108Y151145D01*
X202135Y151031D01*
X202181Y150922D01*
X202243Y150821D01*
X202319Y150731D01*
X202409Y150655D01*
X202511Y150595D01*
X202980Y150378D01*
X203469Y150211D01*
X203972Y150091D01*
X204484Y150018D01*
X205000Y149994D01*
X205002Y149994D01*
Y145500D01*
X200507D01*
Y152640D01*
X200529Y152631D01*
X200645Y152603D01*
X200763Y152594D01*
X200881Y152603D01*
X200997Y152630D01*
X201107Y152676D01*
X201208Y152738D01*
X201298Y152814D01*
X201376Y152905D01*
X201438Y153006D01*
X201484Y153115D01*
X201511Y153231D01*
X201521Y153349D01*
X201512Y153468D01*
X201484Y153583D01*
X201437Y153692D01*
X201279Y154032D01*
X201158Y154388D01*
X201070Y154753D01*
X201018Y155125D01*
X201000Y155500D01*
X201018Y155875D01*
X201070Y156247D01*
X201158Y156612D01*
X201279Y156968D01*
X201433Y157310D01*
X201480Y157418D01*
X201507Y157533D01*
X201517Y157651D01*
X201507Y157768D01*
X201479Y157883D01*
X201434Y157992D01*
X201372Y158093D01*
X201295Y158182D01*
X201205Y158259D01*
X201105Y158320D01*
X200996Y158365D01*
X200881Y158393D01*
X200763Y158402D01*
X200645Y158392D01*
X200531Y158365D01*
X200507Y158355D01*
Y171353D01*
G37*
G36*
Y211353D02*X201500Y211275D01*
X202787Y211376D01*
X204042Y211677D01*
X205002Y212075D01*
Y186925D01*
X204042Y187323D01*
X202787Y187624D01*
X201500Y187725D01*
X200507Y187647D01*
Y211353D01*
G37*
G36*
Y232000D02*X205002D01*
Y226925D01*
X204042Y227323D01*
X202787Y227624D01*
X201500Y227725D01*
X200507Y227647D01*
Y232000D01*
G37*
G36*
X185000Y145500D02*Y232000D01*
X200507D01*
Y227647D01*
X200213Y227624D01*
X198958Y227323D01*
X197766Y226829D01*
X196665Y226154D01*
X195684Y225316D01*
X194846Y224335D01*
X194171Y223234D01*
X193677Y222042D01*
X193376Y220787D01*
X193275Y219500D01*
X193376Y218213D01*
X193677Y216958D01*
X194171Y215766D01*
X194846Y214665D01*
X195684Y213684D01*
X196665Y212846D01*
X197766Y212171D01*
X198958Y211677D01*
X200213Y211376D01*
X200507Y211353D01*
Y187647D01*
X200213Y187624D01*
X198958Y187323D01*
X197766Y186829D01*
X196665Y186154D01*
X195684Y185316D01*
X194846Y184335D01*
X194171Y183234D01*
X193677Y182042D01*
X193376Y180787D01*
X193275Y179500D01*
X193376Y178213D01*
X193677Y176958D01*
X194171Y175766D01*
X194846Y174665D01*
X195684Y173684D01*
X196665Y172846D01*
X197766Y172171D01*
X198958Y171677D01*
X200213Y171376D01*
X200507Y171353D01*
Y158355D01*
X200422Y158319D01*
X200321Y158257D01*
X200231Y158181D01*
X200155Y158091D01*
X200095Y157989D01*
X199878Y157520D01*
X199711Y157031D01*
X199591Y156528D01*
X199518Y156016D01*
X199494Y155500D01*
X199518Y154984D01*
X199591Y154472D01*
X199711Y153969D01*
X199878Y153480D01*
X200090Y153008D01*
X200151Y152907D01*
X200228Y152816D01*
X200318Y152739D01*
X200420Y152677D01*
X200507Y152640D01*
Y145500D01*
X185000D01*
G37*
G36*
X219000Y308000D02*X228000D01*
Y78000D01*
X219000D01*
Y308000D01*
G37*
G36*
X164500Y93000D02*X199511D01*
X199514Y91265D01*
X199569Y91035D01*
X199659Y90817D01*
X199783Y90616D01*
X199936Y90436D01*
X200116Y90283D01*
X200317Y90159D01*
X200535Y90069D01*
X200765Y90014D01*
X201000Y90000D01*
X209235Y90014D01*
X209465Y90069D01*
X209683Y90159D01*
X209884Y90283D01*
X210064Y90436D01*
X210217Y90616D01*
X210341Y90817D01*
X210431Y91035D01*
X210486Y91265D01*
X210500Y91500D01*
X210497Y93000D01*
X228000D01*
Y78000D01*
X209918D01*
X209916Y78005D01*
X209463Y78743D01*
X208901Y79401D01*
X208243Y79963D01*
X207505Y80416D01*
X206705Y80747D01*
X205863Y80949D01*
X205000Y81017D01*
X204137Y80949D01*
X203295Y80747D01*
X202495Y80416D01*
X201757Y79963D01*
X201099Y79401D01*
X200537Y78743D01*
X200084Y78005D01*
X200082Y78000D01*
X164500D01*
Y93000D01*
G37*
G36*
X202437Y298000D02*X214000D01*
Y278000D01*
X202437D01*
Y280060D01*
X202594Y280072D01*
X202747Y280109D01*
X202892Y280169D01*
X203027Y280251D01*
X203146Y280354D01*
X203249Y280473D01*
X203331Y280608D01*
X203391Y280753D01*
X203428Y280906D01*
X203437Y281063D01*
Y284937D01*
X203428Y285094D01*
X203391Y285247D01*
X203331Y285392D01*
X203249Y285527D01*
X203146Y285646D01*
X203027Y285749D01*
X202892Y285831D01*
X202747Y285891D01*
X202594Y285928D01*
X202437Y285940D01*
Y298000D01*
G37*
G36*
X197500D02*X202437D01*
Y285940D01*
X202280Y285928D01*
X202127Y285891D01*
X201982Y285831D01*
X201847Y285749D01*
X201728Y285646D01*
X201625Y285527D01*
X201543Y285392D01*
X201483Y285247D01*
X201446Y285094D01*
X201437Y284937D01*
Y281063D01*
X201446Y280906D01*
X201483Y280753D01*
X201543Y280608D01*
X201625Y280473D01*
X201728Y280354D01*
X201847Y280251D01*
X201982Y280169D01*
X202127Y280109D01*
X202280Y280072D01*
X202437Y280060D01*
Y278000D01*
X200435D01*
X200440Y278063D01*
X200428Y278220D01*
X200391Y278373D01*
X200331Y278518D01*
X200249Y278653D01*
X200146Y278772D01*
X200027Y278875D01*
X199892Y278957D01*
X199747Y279017D01*
X199594Y279054D01*
X199437Y279063D01*
X197500D01*
Y286937D01*
X199437D01*
X199594Y286946D01*
X199747Y286983D01*
X199892Y287043D01*
X200027Y287125D01*
X200146Y287228D01*
X200249Y287347D01*
X200331Y287482D01*
X200391Y287627D01*
X200428Y287780D01*
X200440Y287937D01*
X200428Y288094D01*
X200391Y288247D01*
X200331Y288392D01*
X200249Y288527D01*
X200146Y288646D01*
X200027Y288749D01*
X199892Y288831D01*
X199747Y288891D01*
X199594Y288928D01*
X199437Y288937D01*
X197500D01*
Y298000D01*
G37*
G36*
X192563Y308000D02*X195500D01*
Y298000D01*
X197500D01*
Y288937D01*
X195563D01*
X195406Y288928D01*
X195253Y288891D01*
X195108Y288831D01*
X194973Y288749D01*
X194854Y288646D01*
X194751Y288527D01*
X194669Y288392D01*
X194609Y288247D01*
X194572Y288094D01*
X194560Y287937D01*
X194572Y287780D01*
X194609Y287627D01*
X194669Y287482D01*
X194751Y287347D01*
X194854Y287228D01*
X194973Y287125D01*
X195108Y287043D01*
X195253Y286983D01*
X195406Y286946D01*
X195563Y286937D01*
X197500D01*
Y279063D01*
X195563D01*
X195406Y279054D01*
X195253Y279017D01*
X195108Y278957D01*
X194973Y278875D01*
X194854Y278772D01*
X194751Y278653D01*
X194669Y278518D01*
X194609Y278373D01*
X194572Y278220D01*
X194560Y278063D01*
X194565Y278000D01*
X192563D01*
Y280060D01*
X192720Y280072D01*
X192873Y280109D01*
X193018Y280169D01*
X193153Y280251D01*
X193272Y280354D01*
X193375Y280473D01*
X193457Y280608D01*
X193517Y280753D01*
X193554Y280906D01*
X193563Y281063D01*
Y284937D01*
X193554Y285094D01*
X193517Y285247D01*
X193457Y285392D01*
X193375Y285527D01*
X193272Y285646D01*
X193153Y285749D01*
X193018Y285831D01*
X192873Y285891D01*
X192720Y285928D01*
X192563Y285940D01*
Y308000D01*
G37*
G36*
X165905D02*X192563D01*
Y285940D01*
X192406Y285928D01*
X192253Y285891D01*
X192108Y285831D01*
X191973Y285749D01*
X191854Y285646D01*
X191751Y285527D01*
X191669Y285392D01*
X191609Y285247D01*
X191572Y285094D01*
X191563Y284937D01*
Y281063D01*
X191572Y280906D01*
X191609Y280753D01*
X191669Y280608D01*
X191751Y280473D01*
X191854Y280354D01*
X191973Y280251D01*
X192108Y280169D01*
X192253Y280109D01*
X192406Y280072D01*
X192563Y280060D01*
Y278000D01*
X165905D01*
Y308000D01*
G37*
G36*
X193000Y299000D02*Y308000D01*
X228000D01*
Y299000D01*
X193000D01*
G37*
G36*
X135500Y93000D02*X156500D01*
Y85000D01*
X135500D01*
Y93000D01*
G37*
G36*
X136000Y107500D02*X181500D01*
Y95000D01*
X136000D01*
Y107500D01*
G37*
G36*
X125970D02*X138500D01*
Y95000D01*
X125500D01*
Y107135D01*
X125651Y107228D01*
X125970Y107500D01*
G37*
G36*
X133000D01*
Y64500D01*
X123000D01*
Y85879D01*
X125019Y87898D01*
X125064Y87936D01*
X125217Y88115D01*
X125217Y88116D01*
X125341Y88317D01*
X125431Y88535D01*
X125486Y88765D01*
X125505Y89000D01*
X125500Y89059D01*
Y107135D01*
X125651Y107228D01*
X125970Y107500D01*
G37*
G36*
X123000Y64500D02*X118287Y69213D01*
X118274Y69439D01*
X118171Y69868D01*
X118003Y70275D01*
X117772Y70651D01*
X117486Y70986D01*
X117151Y71272D01*
X116775Y71503D01*
X116368Y71671D01*
X115939Y71774D01*
X115708Y71792D01*
X112000Y75500D01*
Y77000D01*
X124500D01*
Y64500D01*
X123000D01*
G37*
G36*
X98500Y82500D02*X118941D01*
X119000Y82495D01*
X119059Y82500D01*
X126000D01*
Y75500D01*
X98531D01*
Y76910D01*
X98536Y76969D01*
X98517Y77204D01*
X98500Y77276D01*
Y82500D01*
G37*
G36*
X128000Y78000D02*X118000D01*
Y82500D01*
X118941D01*
X119000Y82495D01*
X119235Y82514D01*
X119235Y82514D01*
X119465Y82569D01*
X119683Y82659D01*
X119884Y82783D01*
X120064Y82936D01*
X120102Y82981D01*
X123621Y86500D01*
X128000D01*
Y78000D01*
G37*
G36*
X104500Y87500D02*Y93500D01*
X120500D01*
Y90621D01*
X117379Y87500D01*
X104500D01*
G37*
G36*
Y106500D01*
X109000D01*
Y87500D01*
X104500D01*
G37*
G36*
X102500D02*X98000D01*
Y104500D01*
X102500D01*
Y87500D01*
G37*
G36*
X87500Y93500D02*X102500D01*
Y87500D01*
X87559D01*
X87500Y87505D01*
Y93500D01*
G37*
G36*
X157500Y96500D02*X163500D01*
Y65500D01*
X158972D01*
X158971Y65874D01*
X158934Y66027D01*
X158874Y66173D01*
X158792Y66307D01*
X158690Y66427D01*
X158570Y66529D01*
X158436Y66611D01*
X158290Y66671D01*
X158137Y66708D01*
X157980Y66718D01*
X157500Y66716D01*
Y96500D01*
G37*
G36*
X134500Y85000D02*Y93000D01*
X139000D01*
Y85000D01*
X134500D01*
G37*
G36*
X136500Y53500D02*Y87500D01*
X142500D01*
Y53500D01*
X136500D01*
G37*
G36*
Y80000D02*X149500D01*
Y74000D01*
X136500D01*
Y80000D01*
G37*
G36*
X142500Y62500D02*Y55500D01*
X133910D01*
X133886Y55510D01*
X133656Y55565D01*
X133421Y55584D01*
X133362Y55579D01*
X112000D01*
Y62500D01*
X113530D01*
X113849Y62228D01*
X114225Y61997D01*
X114632Y61829D01*
X115061Y61726D01*
X115500Y61691D01*
X115939Y61726D01*
X116368Y61829D01*
X116775Y61997D01*
X117151Y62228D01*
X117470Y62500D01*
X142500D01*
G37*
G36*
X151500Y80000D02*X162500D01*
Y74000D01*
X151500D01*
Y80000D01*
G37*
G36*
X158500Y76000D02*X182500D01*
Y60500D01*
X158892D01*
X158934Y60604D01*
X158971Y60757D01*
X158980Y60914D01*
X158971Y65874D01*
X158934Y66027D01*
X158874Y66173D01*
X158792Y66307D01*
X158690Y66427D01*
X158570Y66529D01*
X158500Y66572D01*
Y76000D01*
G37*
G36*
X133910Y55500D02*X158000D01*
Y50500D01*
X136500D01*
Y52441D01*
X136505Y52500D01*
X136486Y52735D01*
X136486Y52735D01*
X136431Y52965D01*
X136341Y53183D01*
X136217Y53384D01*
X136064Y53564D01*
X136019Y53602D01*
X134523Y55098D01*
X134485Y55143D01*
X134305Y55296D01*
X134104Y55420D01*
X133910Y55500D01*
G37*
G36*
X144000Y62500D02*X154546D01*
X154549Y60757D01*
X154586Y60604D01*
X154646Y60458D01*
X154728Y60324D01*
X154830Y60204D01*
X154950Y60102D01*
X155084Y60020D01*
X155230Y59960D01*
X155383Y59923D01*
X155540Y59914D01*
X158137Y59923D01*
X158290Y59960D01*
X158436Y60020D01*
X158570Y60102D01*
X158690Y60204D01*
X158792Y60324D01*
X158874Y60458D01*
X158934Y60604D01*
X158971Y60757D01*
X158980Y60914D01*
X158978Y62500D01*
X182500D01*
Y56500D01*
X144000D01*
Y62500D01*
G37*
G54D12*X171500Y123000D02*X198000Y96500D01*
X177500Y123000D02*X205000Y95500D01*
X195000Y125500D02*X205000Y115500D01*
X183500Y125500D02*X195000D01*
X188500Y135500D02*X205000D01*
X183500Y130500D02*X188500Y135500D01*
G54D13*X177500Y132000D02*X177543Y153457D01*
G54D12*X181500Y168457D02*Y197000D01*
X191000Y23000D02*Y38000D01*
X184500Y44500D01*
X181000Y23000D02*Y38500D01*
X177000Y42500D01*
G54D13*X205000Y55500D02*X192500D01*
X190000Y53000D01*
X164240D01*
G54D12*X197500Y322000D02*X189500Y330000D01*
Y342000D01*
X184500Y347000D01*
G54D14*X180905Y265638D02*X181000Y265543D01*
X197405Y273000D02*X209905D01*
X183405D02*X180905Y270500D01*
X197500Y273000D02*X183405D01*
X180905Y270500D02*Y265638D01*
G54D12*X197500Y322000D02*Y306000D01*
G54D15*X153000Y183500D02*X166500Y197000D01*
X153000Y174500D02*Y183500D01*
G54D12*X171500Y192000D02*X166500Y187000D01*
X171500Y204500D02*Y192000D01*
X174000Y207000D02*X171500Y204500D01*
X179500Y207000D02*X174000D01*
X181500Y209000D02*X179500Y207000D01*
X181500Y214000D02*Y209000D01*
X164500Y212000D02*X176500D01*
X178500Y217000D02*X181500Y214000D01*
X156500Y196000D02*X161500Y201000D01*
X157500Y209000D02*X158500D01*
X161000Y205500D02*Y208500D01*
Y205500D02*X155000Y199500D01*
X153000Y208500D02*Y203000D01*
X158500Y209000D02*X166500Y217000D01*
X161000Y208500D02*X164500Y212000D01*
X166500Y217000D02*X178500D01*
X134000Y196000D02*X156500D01*
X151000Y210500D02*X153000Y208500D01*
X131000Y206500D02*X142000D01*
X132000Y208500D02*X147000D01*
X143000Y205500D02*Y203000D01*
X142000Y206500D02*X143000Y205500D01*
X147000Y208500D02*X148000Y207500D01*
X133000Y210500D02*X151000D01*
X148000Y207500D02*Y203000D01*
Y204000D01*
X125500Y209000D02*X135000Y199500D01*
G54D13*X170957Y245000D02*X156905D01*
G54D12*X127256Y247256D02*X126000Y246000D01*
X131000Y247256D02*X127256D01*
G54D16*X121500Y254000D02*X116043D01*
G54D12*X78043Y253543D02*X79500Y255000D01*
X127500Y230000D02*Y210000D01*
X129500Y231000D02*Y211000D01*
X124275Y228725D02*X125500Y227500D01*
Y209000D02*Y227500D01*
X131500Y212000D02*X133000Y210500D01*
X131500Y232000D02*Y212000D01*
X122476Y235024D02*X127500Y230000D01*
G54D14*X138500Y239500D02*X144000Y234000D01*
G54D12*X126000Y237500D02*X131500Y232000D01*
X117721Y242779D02*X129500Y231000D01*
X126000Y246000D02*Y237500D01*
X118374Y216126D02*X119500Y215000D01*
X112279Y216126D02*X118374D01*
X112279Y219276D02*X120224D01*
X112279Y235024D02*X122476D01*
X112279Y231874D02*X107874D01*
X105500Y229500D01*
X112279Y222425D02*X121575D01*
X112279Y225575D02*X109575D01*
X112279Y228725D02*X124275D01*
X107500Y223500D02*Y211500D01*
G54D17*X101374Y234126D02*X101500Y234000D01*
X101374Y242779D02*Y234126D01*
G54D12*X104523Y242779D02*X113221D01*
X117721D01*
X107500Y211500D02*X110000Y209000D01*
X138500Y319000D02*X127000D01*
X124000Y321000D02*X118500Y315500D01*
X137500Y321000D02*X124000D01*
X139500Y317000D02*X129000D01*
X127000Y319000D02*X124000Y316000D01*
X126000Y314000D02*X129000Y317000D01*
X118500Y315500D02*Y307500D01*
G54D15*X116500Y318000D02*X108500Y310000D01*
G54D12*X142500Y320000D02*X139500Y317000D01*
X138500Y322000D02*X137500Y321000D01*
X140500D02*X138500Y319000D01*
X136000Y333500D02*X138500Y331000D01*
X108000Y333500D02*X136000D01*
X184500Y347000D02*X118000D01*
X142500Y336000D02*X136500Y342000D01*
X138500Y331000D02*Y322000D01*
X140500Y321000D02*Y333000D01*
X142500Y320000D02*Y336000D01*
X140500Y333000D02*X136500Y337000D01*
G54D15*X116500Y318000D02*X125000Y326500D01*
X133000D01*
G54D12*X126000Y283752D02*Y314000D01*
X124000Y316000D02*Y277878D01*
X131000Y278752D02*X126000Y283752D01*
X124000Y277878D02*X131000Y270878D01*
G54D14*X138500Y309500D02*Y239500D01*
G54D12*X97000Y342905D02*X96905Y343000D01*
X97000Y337500D02*Y342905D01*
G54D15*X98500Y318500D02*X106500Y326500D01*
X113000D01*
G54D12*X108000Y333500D02*X93500Y319000D01*
X94000Y329000D02*X103500Y338500D01*
X77500Y333000D02*X79500Y335000D01*
X84586Y329000D02*X94000D01*
X79500Y335000D02*X94500D01*
X97000Y337500D01*
X77500Y328000D02*Y333000D01*
X118000Y347000D02*X95000Y324000D01*
X78500D01*
X77500Y323000D01*
Y319043D01*
G54D18*X118500Y299500D02*X103500Y284500D01*
G54D17*X111000Y284086D02*X110914Y284000D01*
G54D15*X108500Y310000D02*Y299500D01*
G54D17*X118000Y280000D02*X116500Y278500D01*
X110500D02*X116500D01*
X108500Y276500D02*X110500Y278500D01*
X118000Y284000D02*Y280000D01*
G54D18*X98500Y264000D02*X95500Y261000D01*
X98500Y269500D02*Y264000D01*
G54D17*X91925Y242779D02*Y260925D01*
X92000Y261000D01*
G54D18*X103500Y274500D02*X98500Y269500D01*
G54D17*X108500Y269000D02*Y276500D01*
G54D18*X103500Y284500D02*Y274500D01*
G54D17*X95000Y287500D02*Y293000D01*
X92500Y295500D01*
G54D12*X84086Y280414D02*X95000D01*
G54D13*X87957Y299543D02*X88500Y299000D01*
G54D15*X98500Y299500D02*Y318500D01*
G54D12*X93500Y319000D02*X84543D01*
X119500Y215000D02*Y205500D01*
X117000Y203000D01*
X117500Y212000D02*Y209500D01*
X121500Y218000D02*Y203500D01*
X123500Y220500D02*Y208000D01*
X120224Y219276D02*X121500Y218000D01*
X121575Y222425D02*X123500Y220500D01*
Y208000D02*X127000Y204500D01*
X127500Y210000D02*X131000Y206500D01*
X129500Y211000D02*X132000Y208500D01*
X121500Y203500D02*X122000Y203000D01*
X127000Y204500D02*Y203000D01*
X110000Y209000D02*X112500D01*
X116523Y212977D02*X117500Y212000D01*
X112279Y212977D02*X116523D01*
X117500Y209500D02*X112500Y204500D01*
Y212756D02*X112279Y212977D01*
X118808Y184980D02*X123894Y179894D01*
X118808Y189000D02*Y184980D01*
X123894Y173000D02*Y179894D01*
G54D15*X113500Y180000D02*X117500Y176000D01*
X100000Y180000D02*X113500D01*
G54D12*X110500Y189000D02*X118808D01*
X107500Y208500D02*Y204500D01*
X109500Y202500D01*
X104524Y205221D02*Y197976D01*
X101374Y205221D02*Y198126D01*
G54D17*X98225Y211725D02*Y193318D01*
G54D12*X105500Y210500D02*X107500Y208500D01*
X109575Y225575D02*X107500Y223500D01*
X105500Y229500D02*Y210500D01*
X109500Y202500D02*Y197500D01*
X104524Y197976D02*X109000Y193500D01*
X101374Y198126D02*X110500Y189000D01*
G54D17*X104000Y254000D02*X108957D01*
X101374Y251374D02*X104000Y254000D01*
X101374Y242779D02*Y251374D01*
G54D12*X79500Y221500D02*Y212000D01*
X78575Y222425D02*X79500Y221500D01*
Y212000D02*Y211500D01*
G54D17*X91925Y205221D02*X92000Y214000D01*
G54D12*X95063Y72386D02*Y74437D01*
X91500Y78000D01*
Y80500D01*
X97031Y76969D02*X95500Y78500D01*
X97031Y72386D02*Y76969D01*
X89000Y73500D02*Y76000D01*
X90114Y72386D02*X89000Y73500D01*
X93094Y72386D02*X90114D01*
X91500Y69827D02*X93327Y68000D01*
X151500D02*X160500D01*
X124000Y109500D02*Y89000D01*
X119000Y84000D01*
X118000Y86000D02*X122000Y90000D01*
X112000Y111000D02*Y107500D01*
X112500Y96500D02*Y99564D01*
X112161Y101532D02*X116468D01*
X118500Y99500D01*
Y96500D01*
X112161Y103500D02*X120500D01*
X122000Y90000D02*Y102000D01*
X120500Y103500D01*
Y111000D02*Y103500D01*
X153500Y111500D02*X127000D01*
X125500Y113000D01*
X122500D01*
X120500Y111000D01*
X112161Y105468D02*X106500Y105500D01*
X94839Y103500D02*X100500D01*
X94839Y101532D02*X91468D01*
X91000Y102000D01*
X94839Y103500D02*X81000D01*
X79500Y105000D01*
X91000Y102000D02*Y103500D01*
X94839Y99564D02*X88564D01*
X85500Y96500D01*
X94839Y105468D02*X89532D01*
X94839Y107436D02*X90564D01*
X89532Y105468D02*X85000Y110000D01*
X90564Y107436D02*X86000Y112000D01*
X92000Y123500D02*X41000D01*
X79500Y105000D02*X74000D01*
X85000Y110000D02*X48000D01*
X45000Y107000D01*
X86000Y112000D02*X47000D01*
X43000Y108000D01*
X91000Y125500D02*X39000D01*
X90000Y127500D02*X37000D01*
X64000Y131000D02*X29500D01*
G54D13*X48000Y135000D02*X82500D01*
G54D12*X111000Y177000D02*X114000Y174000D01*
Y167000D01*
X112000Y173000D02*Y166000D01*
G54D15*X117500Y168500D02*X119000Y167000D01*
X117500Y176000D02*Y168500D01*
G54D12*X98500Y177000D02*X111000D01*
X102500Y173000D02*X94500D01*
X110000Y175000D02*X112000Y173000D01*
X119500Y157500D02*X115500D01*
X117000Y161000D02*X131000D01*
X104500Y171000D02*X102500Y173000D01*
X104500Y163500D02*Y171000D01*
X101000Y168000D02*X97500Y164500D01*
X101000Y169500D02*Y168000D01*
X95500Y165500D02*X96500Y166500D01*
Y169500D01*
X114000Y154000D02*X128500D01*
G54D13*X123000Y149500D02*X128000Y144500D01*
G54D12*X104500Y163500D02*X114000Y154000D01*
X115500Y157500D02*X108000Y165000D01*
X112000Y166000D02*X117000Y161000D01*
X95500Y165500D02*Y130000D01*
X97500Y129000D02*X92000Y123500D01*
X95500Y130000D02*X91000Y125500D01*
X93500Y131000D02*X90000Y127500D01*
X91500Y134500D02*X88000Y131000D01*
X89500Y137500D02*X83000Y131000D01*
X97500Y164500D02*Y129000D01*
X93500Y166500D02*X92000Y168000D01*
X93500Y131000D02*Y166500D01*
X91500Y165500D02*Y134500D01*
X89500Y164500D02*Y137500D01*
G54D13*X82500Y135000D02*X86000Y138500D01*
G54D12*X83500Y165000D02*X86000Y162500D01*
Y158300D01*
X69000Y172000D02*X71500Y169500D01*
G54D13*X59000Y150557D02*Y175000D01*
G54D12*X51200Y160500D02*X51000Y160700D01*
Y173500D01*
G54D13*X59000Y150557D02*X58643Y150200D01*
X44500Y138500D02*Y176500D01*
G54D12*X77700Y154500D02*X77800Y154400D01*
X72500Y154500D02*X77700D01*
X67000Y160000D02*X72500Y154500D01*
X77800Y146700D02*Y154400D01*
X77900Y154500D02*X77800Y154400D01*
G54D13*X71457Y140500D02*X65500D01*
G54D12*X78543D02*Y145957D01*
X71200Y140757D02*X71457Y140500D01*
G54D13*X44500Y138500D02*X48000Y135000D01*
X51200Y140557D02*X51557Y140200D01*
X51200Y160500D02*Y140557D01*
G54D12*X78543Y145957D02*X77800Y146700D01*
G54D13*X65500Y140500D02*X64000Y142000D01*
X62200Y140200D02*X64000Y142000D01*
X58643Y140200D02*X62200D01*
X64000Y142000D02*Y145000D01*
G54D12*X81500Y182000D02*Y185000D01*
X77000Y177000D02*Y182000D01*
X81000Y193000D02*X76500D01*
X75500Y195000D02*X80000D01*
X76500Y193000D02*X69000Y185500D01*
X67000Y186500D02*X75500Y195000D01*
G54D13*X64000Y187000D02*X72500Y195500D01*
Y200000D01*
X59000Y175000D02*X64000Y180000D01*
Y187000D01*
G54D12*Y208500D02*X60500D01*
X78000Y210000D02*X69000D01*
X67000Y208000D01*
Y204043D02*X66957Y204000D01*
X67000Y208000D02*Y204043D01*
X84500Y176500D02*X86000Y178000D01*
X84500Y172500D02*Y176500D01*
X77000Y177000D02*X89500Y164500D01*
X91500Y165500D02*X84500Y172500D01*
X93500Y174000D02*X88000D01*
X92000Y168000D02*Y170500D01*
X94500Y173000D02*X93500Y174000D01*
X75000Y164000D02*Y174000D01*
X72500Y176500D01*
Y182000D01*
X69000Y185500D02*Y172000D01*
X67000Y160000D02*Y186500D01*
X86000Y178000D02*Y182000D01*
X82500Y186000D02*X86500D01*
X81500Y185000D02*X82500Y186000D01*
X85626Y197626D02*X81000Y193000D01*
X80000Y195000D02*X82500Y197500D01*
X85500Y190000D02*X98500Y177000D01*
X86500Y186000D02*X97500Y175000D01*
X85626Y205221D02*Y197626D01*
X82477Y205221D02*Y197477D01*
G54D17*X95075Y199575D02*X94500Y199000D01*
X95075Y205221D02*Y199575D01*
X88776Y199724D02*X89500Y199000D01*
X88776Y205221D02*Y199724D01*
G54D12*X85500Y193000D02*Y190000D01*
G54D13*X98500Y192957D02*X98543Y193000D01*
G54D15*X91500Y192957D02*X91457Y193000D01*
X91500Y188500D02*Y192957D01*
X100000Y180000D02*X91500Y188500D01*
G54D17*X98500Y193043D02*X98543Y193000D01*
G54D12*X79500Y211500D02*X78000Y210000D01*
X59500Y232500D02*X52500D01*
X58500Y234500D02*X51500D01*
X59000Y225000D02*Y222500D01*
X64275Y219275D02*X60500Y215500D01*
X57500Y227500D02*X56500D01*
X52500Y232500D02*X47000Y227000D01*
X51500Y234500D02*X46000Y229000D01*
X34500D01*
G54D14*X33500Y253957D02*Y239500D01*
G54D19*X44386Y247256D02*Y239382D01*
G54D12*X35500Y227000D02*X32500Y224000D01*
X47000Y227000D02*X35500D01*
X38500Y223100D02*X38400Y223200D01*
X50800D02*X38400D01*
Y212100D02*Y223200D01*
X53000Y221000D02*X50800Y223200D01*
X53000Y217000D02*Y221000D01*
X74721Y235023D02*X69023D01*
X93500Y237500D02*X67500D01*
X74721Y231874D02*X69874D01*
X67000Y240000D02*X59500Y232500D01*
X85626Y242779D02*Y247874D01*
X95075Y242779D02*Y239075D01*
X93500Y237500D01*
X79279Y242779D02*X76500Y240000D01*
X75500Y247500D02*Y243500D01*
X74000Y242000D01*
X82476Y242779D02*X79279D01*
G54D13*X70043Y246457D02*X62043D01*
G54D12*X84500Y249000D02*X77000D01*
X70043Y253543D02*X78043D01*
X77000Y249000D02*X75500Y247500D01*
G54D13*X62043Y246457D02*X62000Y246500D01*
G54D12*X32500Y221000D02*X29500Y218000D01*
X32500Y224000D02*Y221000D01*
X30500Y222000D02*X28500Y220000D01*
X30500Y225000D02*Y222000D01*
X34500Y229000D02*X30500Y225000D01*
G54D13*X10500Y229500D02*Y223500D01*
G54D12*X14600Y231500D02*X14400Y231700D01*
X24000Y231500D02*X14600D01*
X25500Y223500D02*X18500D01*
G54D13*X10757Y223243D02*X10500Y223500D01*
G54D12*X29500Y218000D02*X8000D01*
X28500Y220000D02*X7000D01*
X5000Y218000D01*
G54D13*X9000Y231000D02*X10500Y229500D01*
Y212743D02*X10757Y213000D01*
G54D18*X11000Y243500D02*Y256500D01*
G54D13*X9000Y237000D02*Y231000D01*
G54D18*X15118Y239382D02*X11000Y243500D01*
X44386Y239382D02*X15118D01*
G54D12*X69023Y235023D02*X59000Y225000D01*
X69874Y231874D02*X64000Y226000D01*
X70224Y228724D02*X69000Y227500D01*
X74721Y228724D02*X70224D01*
X74646Y225500D02*X74721Y225575D01*
X69000Y227500D02*Y222500D01*
X64000Y226000D02*Y222500D01*
X74796Y225500D02*X80500D01*
X74721Y219275D02*X64275D01*
X74721Y225575D02*X74796Y225500D01*
X74721Y222425D02*X78575D01*
X76500Y240000D02*X67000D01*
X66000Y242000D02*X58500Y234500D01*
X74000Y242000D02*X66000D01*
G54D18*X56882Y239382D02*X62000Y244500D01*
G54D12*X67500Y237500D02*X57500Y227500D01*
G54D18*X56882Y239382D02*X44618D01*
G54D12*X25000Y188000D02*X23000Y190000D01*
G54D13*X18300D02*Y179957D01*
X29500Y205000D02*Y183000D01*
G54D12*X23000Y190000D02*X18300D01*
G54D13*Y179957D02*X17843Y179500D01*
G54D12*X9000Y173500D02*X40000D01*
G54D13*X33500Y179000D02*X42000D01*
X44500Y176500D01*
X29500Y183000D02*X33500Y179000D01*
X10500Y179757D02*X10757Y179500D01*
G54D12*X9500Y170000D02*X36500D01*
X5000Y174500D02*X9500Y170000D01*
X7000Y175500D02*X9000Y173500D01*
G54D13*X34757Y198743D02*Y204500D01*
X37043Y196457D02*X34757Y198743D01*
G54D12*X67000Y196500D02*X66957Y204000D01*
X62500Y192000D02*X67000Y196500D01*
G54D13*X55000Y196457D02*Y192000D01*
G54D12*X67000Y203957D02*X66957Y204000D01*
G54D13*X55000Y196457D02*X37043D01*
G54D12*X41843Y204500D02*Y208657D01*
G54D17*X55457Y204000D02*X55000Y203543D01*
X66957Y204000D02*X55457D01*
G54D12*X5000Y218000D02*Y174500D01*
X7000Y217000D02*Y175500D01*
X8000Y218000D02*X7000Y217000D01*
G54D13*X10500Y179757D02*Y212743D01*
G54D12*X14500Y203500D02*X14400Y203400D01*
Y198200D01*
G54D13*X27000Y207500D02*X29500Y205000D01*
G54D12*X25500Y213000D02*X17843D01*
G54D13*X27000Y207500D02*X34500Y215000D01*
X10500Y207500D02*X27000D01*
X17843Y213000D02*X18300Y213457D01*
G54D12*X44500Y215000D02*X45000Y214500D01*
X54500Y215500D02*X53000Y217000D01*
X42300Y215000D02*X44500D01*
X45000Y214500D02*Y210500D01*
X41843Y208657D02*X38400Y212100D01*
X52500Y212000D02*X49000Y208500D01*
X60500Y215500D02*X54500D01*
X74721Y216126D02*X67126D01*
X63000Y212000D01*
X74721Y212976D02*X68476D01*
X64000Y208500D01*
X52500Y212000D02*X63000D01*
X85626Y247874D02*X84500Y249000D01*
X88500Y251500D02*Y255000D01*
X88775Y251225D02*X88500Y251500D01*
X88775Y242779D02*Y251225D01*
X84000Y280500D02*X84086Y280414D01*
G54D13*X88000Y268500D02*X88500Y269000D01*
G54D12*Y255000D02*X79500D01*
G54D18*X95500Y261000D02*X63000D01*
G54D12*X73000Y274500D02*Y268595D01*
G54D18*X62000Y244500D02*Y302500D01*
G54D17*X70086Y253500D02*X70043Y253543D01*
X73000Y290457D02*Y280405D01*
X73043Y297500D02*X73000Y297543D01*
X72000Y268500D02*X88000D01*
X72500Y280905D02*X73000Y280405D01*
G54D12*X44386Y302374D02*X39000Y296988D01*
G54D14*X32000Y291500D02*X35000Y294500D01*
G54D12*X42000Y333405D02*X42095Y333500D01*
X42000Y328000D02*Y333405D01*
X44500Y325500D02*X42000Y328000D01*
X60500Y325500D02*X44500D01*
G54D17*X59500Y333500D02*X53905D01*
G54D12*X50000Y318500D02*X55457D01*
G54D14*X32000Y291500D02*Y267500D01*
G54D12*X39000Y296988D02*Y250000D01*
G54D17*X69500Y309500D02*Y343000D01*
G54D12*X62543Y323457D02*X60500Y325500D01*
X62543Y318500D02*Y323457D01*
G54D17*X85095Y343000D02*X62500D01*
X61500Y342000D01*
Y335500D01*
X59500Y333500D01*
G54D12*X77500Y319043D02*X77457Y319000D01*
X89551Y58016D02*X36016D01*
X33500Y55500D01*
X25000D01*
X89551Y56047D02*X50047D01*
X89551Y50142D02*X74142D01*
X69000Y45000D01*
X89551Y52110D02*X66110D01*
X59000Y45000D01*
X89551Y54079D02*X58079D01*
X49000Y45000D01*
X50047Y56047D02*X39000Y45000D01*
X41000Y123500D02*X35000Y117500D01*
X32000Y118500D02*Y102500D01*
X39000Y125500D02*X32000Y118500D01*
X37000Y127500D02*X25000Y115500D01*
X29500Y131000D02*X25000Y135500D01*
X32000Y102500D02*X25000Y95500D01*
X45000Y107000D02*Y79000D01*
X41500Y75500D01*
X25000D01*
X43000Y100000D02*X38500Y95500D01*
X25000D01*
X43000Y108000D02*Y100000D01*
X35000Y117500D02*Y99500D01*
X184500Y44500D02*X159500D01*
X171000Y23000D02*Y36500D01*
X167000Y40500D01*
X161000Y23000D02*Y34500D01*
X157000Y38500D01*
X136000Y44500D02*X135000Y45500D01*
Y52500D01*
X133000Y44500D02*Y50500D01*
X131390Y52110D02*X133000Y50500D01*
X129358Y50142D02*X131000Y48500D01*
Y43500D02*Y48500D01*
X129000Y42500D02*Y46500D01*
X127327Y48173D02*X129000Y46500D01*
X133421Y54079D02*X135000Y52500D01*
X110579Y63921D02*X113500Y61000D01*
X108449Y63921D02*X110579D01*
X113000Y64500D02*X115500D01*
X108449Y58016D02*Y56047D01*
Y61953D02*Y59984D01*
X111610Y65890D02*X113000Y64500D01*
X108449Y65890D02*X111610D01*
X112500Y69000D02*X115500D01*
X111358Y67858D02*X112500Y69000D01*
X108449Y67858D02*X111358D01*
X108449Y69827D02*X104906D01*
Y68000D02*Y76000D01*
X102937Y59000D02*Y76000D01*
X100969Y59000D02*Y76000D01*
X99000Y59000D02*Y76000D01*
X89551Y63921D02*X99000D01*
X89551Y59984D02*X99000D01*
X108449Y54079D02*X133421D01*
X108449Y52110D02*X131390D01*
X108449Y50142D02*X129358D01*
X108449Y48173D02*X127327D01*
X126000Y42500D02*X106000D01*
X104906Y45614D02*Y43594D01*
X106000Y42500D01*
X102937Y45614D02*Y42563D01*
X105000Y40500D01*
X125000D01*
X184500Y44500D02*X136000D01*
X177000Y42500D02*X135000D01*
X167000Y40500D02*X134000D01*
X135000Y42500D02*X133000Y44500D01*
X134000Y40500D02*X131000Y43500D01*
X133000Y38500D02*X129000Y42500D01*
X132000Y36500D02*X126000Y42500D01*
X125000Y40500D02*X131000Y34500D01*
X151000Y23000D02*Y33500D01*
X148000Y36500D01*
X132000D01*
X157000Y38500D02*X133000D01*
X131000Y34500D02*X137000D01*
X69000Y45000D02*Y23000D01*
X59000Y45000D02*Y23000D01*
X49000Y45000D02*Y23000D01*
X39000Y45000D02*Y23000D01*
X170500Y164543D02*X170457Y164500D01*
G54D13*X155000Y148000D02*X187500D01*
G54D12*X170457Y153500D02*X161000D01*
X158000Y156500D01*
X170500Y175500D02*Y164543D01*
X177543Y164500D02*X181500Y168457D01*
X158000Y156500D02*Y169500D01*
X156500Y142000D02*X153000Y138500D01*
X156500Y142000D02*X170457D01*
X127000Y203000D02*X134000Y196000D01*
X128500Y154000D02*X133000Y149500D01*
G54D15*X133500Y188894D02*X133394Y189000D01*
X133500Y167500D02*Y188894D01*
G54D12*X132500Y163000D02*X133000Y162500D01*
X131000Y161000D02*X134000Y158000D01*
G54D15*X145500Y167000D02*X153000Y174500D01*
X119000Y167000D02*X145500D01*
G54D12*X114000D02*X118000Y163000D01*
X132500D01*
X97500Y175000D02*X110000D01*
G54D13*X151500Y144500D02*X155000Y148000D01*
G54D15*X143000Y149500D02*Y166500D01*
G54D12*X134000Y158000D02*X138000D01*
X133000Y162500D02*X138000D01*
G54D13*X128000Y144500D02*X151500D01*
X86000Y138500D02*Y150500D01*
X123000Y149500D02*X102000D01*
G54D12*X181500Y197000D02*X176500Y202000D01*
X135000Y199500D02*X155000D01*
X147937Y189000D02*Y184725D01*
X148000Y189063D02*X147937Y189000D01*
X148000Y192500D02*Y189063D01*
X147000Y193500D02*X148000Y192500D01*
X147937Y184725D02*X143106Y179894D01*
Y173000D02*Y179894D01*
G54D17*X125894Y189000D02*X140851D01*
X98225Y193318D02*X98543Y193000D01*
G54D12*X147000Y193500D02*X109000D01*
X137000Y34500D02*X141000Y30500D01*
Y23000D01*
X131000D02*Y31500D01*
X121000Y33000D02*Y23000D01*
X109000Y31000D02*Y23000D01*
X99000Y34500D02*Y23000D01*
X89000Y34500D02*Y23000D01*
X131000Y31500D02*X124000Y38500D01*
X117500Y36500D02*X121000Y33000D01*
X99000Y45614D02*Y40500D01*
X103000Y36500D01*
X97031Y39469D02*X102000Y34500D01*
X95063Y38437D02*X99000Y34500D01*
X93094Y38594D02*X89000Y34500D01*
X100969Y45614D02*Y41531D01*
X104000Y38500D01*
X124000D02*X104000D01*
X103000Y36500D02*X117500D01*
X102000Y34500D02*X105500D01*
X109000Y31000D01*
X170414Y131500D02*X166000D01*
X165000Y132500D01*
Y135500D01*
X158000Y138500D02*Y113000D01*
X154500Y109500D01*
X124000D01*
X153500Y111500D02*X156000Y114000D01*
Y131500D01*
X153000Y134500D01*
Y138500D01*
X97031Y45614D02*Y39469D01*
X95063Y45614D02*Y38437D01*
X93094Y45614D02*Y38594D01*
X89551Y48173D02*X82173D01*
X79000Y45000D01*
Y23000D01*
X119000Y84000D02*X88500D01*
X85610Y65890D02*X83500Y68000D01*
Y82000D01*
X87500Y86000D01*
X118000D01*
X89551Y67858D02*X86642D01*
X85500Y69000D01*
Y81000D01*
X88500Y84000D02*X85500Y81000D01*
X89551Y65890D02*X85610D01*
X89551Y69827D02*X91500D01*
G54D11*G36*
X21000Y79500D02*Y71500D01*
X29000D01*
Y79500D01*
X21000D01*
G37*
G54D20*X25000Y55500D03*
G54D11*G36*
X21000Y119500D02*Y111500D01*
X29000D01*
Y119500D01*
X21000D01*
G37*
G54D20*X25000Y95500D03*
G54D11*G36*
X51000Y85500D02*Y79500D01*
X57000D01*
Y85500D01*
X51000D01*
G37*
G54D18*X54000Y72500D03*
Y62500D03*
G54D11*G36*
X61000Y85500D02*Y79500D01*
X67000D01*
Y85500D01*
X61000D01*
G37*
G54D18*X64000Y72500D03*
Y62500D03*
G54D11*G36*
X71000Y85500D02*Y79500D01*
X77000D01*
Y85500D01*
X71000D01*
G37*
G54D18*X74000Y72500D03*
Y62500D03*
G54D11*G36*
X51000Y108000D02*Y102000D01*
X57000D01*
Y108000D01*
X51000D01*
G37*
G54D18*X64000Y105000D03*
X74000D03*
G54D11*G36*
X201000Y59500D02*Y51500D01*
X209000D01*
Y59500D01*
X201000D01*
G37*
G54D21*X213000Y17000D03*
G54D20*X181000Y23000D03*
X191000D03*
G54D11*G36*
X99000Y152500D02*Y146500D01*
X105000D01*
Y152500D01*
X99000D01*
G37*
G54D18*X123000Y149500D03*
X133000D03*
X143000D03*
X102000Y139500D03*
G54D11*G36*
X120000Y142500D02*Y136500D01*
X126000D01*
Y142500D01*
X120000D01*
G37*
G54D18*X133000Y139500D03*
X143000D03*
G54D11*G36*
X117000Y27000D02*Y19000D01*
X125000D01*
Y27000D01*
X117000D01*
G37*
G54D20*X131000Y23000D03*
X141000D03*
X151000D03*
X161000D03*
X171000D03*
X99000D03*
X109000D03*
G54D21*X17000Y17000D03*
G54D11*G36*
X35000Y27000D02*Y19000D01*
X43000D01*
Y27000D01*
X35000D01*
G37*
G54D20*X49000Y23000D03*
X59000D03*
X69000D03*
X79000D03*
X89000D03*
G54D11*G36*
X21000Y159500D02*Y151500D01*
X29000D01*
Y159500D01*
X21000D01*
G37*
G54D20*X25000Y135500D03*
X205000Y75500D03*
G54D11*G36*
X201000Y99500D02*Y91500D01*
X209000D01*
Y99500D01*
X201000D01*
G37*
G54D20*X205000Y115500D03*
G54D11*G36*
X201000Y139500D02*Y131500D01*
X209000D01*
Y139500D01*
X201000D01*
G37*
G54D20*X205000Y155500D03*
G54D11*G36*
X120394Y176500D02*Y169500D01*
X127394D01*
Y176500D01*
X120394D01*
G37*
G54D22*X143106Y173000D03*
X166500Y187000D03*
G54D23*X201500Y179500D03*
G54D22*X176500Y192000D03*
Y202000D03*
Y212000D03*
G54D23*X201500Y219500D03*
G54D22*X166500Y197000D03*
Y207000D03*
G54D11*G36*
X41186Y313448D02*Y307048D01*
X47586D01*
Y313448D01*
X41186D01*
G37*
G54D24*X44386Y302374D03*
Y294500D03*
Y286626D03*
Y278752D03*
Y270878D03*
Y263004D03*
Y255130D03*
Y247256D03*
Y239382D03*
G54D21*X17000Y333000D03*
G54D11*G36*
X129000Y330500D02*Y322500D01*
X137000D01*
Y330500D01*
X129000D01*
G37*
G54D20*X113000Y326500D03*
G54D11*G36*
X85500Y272500D02*Y266500D01*
X91500D01*
Y272500D01*
X85500D01*
G37*
G54D18*X98500Y269500D03*
X108500D03*
X118500D03*
G54D24*X131000Y310248D03*
Y302374D03*
Y294500D03*
Y286626D03*
G54D18*X118500Y299500D03*
X108500D03*
X98500D03*
X88500D03*
G54D24*X131000Y278752D03*
Y270878D03*
G54D25*X197500Y263000D03*
Y273000D03*
G54D11*G36*
X193563Y286937D02*Y279063D01*
X201437D01*
Y286937D01*
X193563D01*
G37*
G54D24*X131000Y263004D03*
Y255130D03*
Y247256D03*
Y239382D03*
G54D21*X213000Y333000D03*
G54D11*G36*
X169000Y330500D02*Y322500D01*
X177000D01*
Y330500D01*
X169000D01*
G37*
G54D20*X153000Y326500D03*
G54D26*X170457Y164893D02*Y164107D01*
Y153893D02*Y153107D01*
X177543Y153893D02*Y153107D01*
G54D27*X85700Y150500D02*X86300D01*
X85700Y158300D02*X86300D01*
X77500Y154400D02*X78100D01*
G54D26*X98543Y193393D02*Y192607D01*
X91457Y193393D02*Y192607D01*
X78543Y140893D02*Y140107D01*
X147937Y189393D02*Y188607D01*
X140851Y189393D02*Y188607D01*
X157095Y261755D02*Y256245D01*
X145095Y246181D02*Y243819D01*
X156905Y246181D02*Y243819D01*
X143043Y222393D02*Y221607D01*
X135957Y222393D02*Y221607D01*
X171957Y244393D02*Y243607D01*
X108957Y254393D02*Y253607D01*
X116043Y254393D02*Y253607D01*
X179043Y244393D02*Y243607D01*
G54D28*X197405Y241300D02*Y237700D01*
X207405Y241300D02*Y237700D01*
G54D26*X180607Y258457D02*X181393D01*
X180607Y265543D02*X181393D01*
G54D29*X190900Y304600D02*X192100D01*
X190900Y317500D02*X192100D01*
G54D30*X171693Y287000D02*X177992D01*
G54D26*X168905Y261755D02*Y256245D01*
G54D30*X152008Y287000D02*X158307D01*
G54D26*X18543Y179893D02*Y179107D01*
X11457Y179893D02*Y179107D01*
G54D27*X10500Y190300D02*Y189700D01*
X18300Y190300D02*Y189700D01*
X14400Y198500D02*Y197900D01*
G54D26*X41843Y204893D02*Y204107D01*
X34757Y204893D02*Y204107D01*
X118808Y189393D02*Y188607D01*
X125894Y189393D02*Y188607D01*
G54D31*X98225Y207434D02*Y203008D01*
X101374Y207434D02*Y203008D01*
X104524Y207434D02*Y203008D01*
X82477Y207434D02*Y203008D01*
X85626Y207434D02*Y203008D01*
X88776Y207434D02*Y203008D01*
X91925Y207434D02*Y203008D01*
X95075Y207434D02*Y203008D01*
X110066Y212977D02*X114492D01*
X110066Y216126D02*X114492D01*
X110066Y219276D02*X114492D01*
X110066Y222425D02*X114492D01*
X110066Y225575D02*X114492D01*
G54D26*X51457Y140893D02*Y140107D01*
X51557Y150593D02*Y149807D01*
X58543Y140893D02*Y140107D01*
X58643Y150593D02*Y149807D01*
X71457Y140893D02*Y140107D01*
G54D27*X51200Y160800D02*Y160200D01*
X55100Y169000D02*Y168400D01*
X59000Y160800D02*Y160200D01*
G54D26*X54607Y203543D02*X55393D01*
X54607Y196457D02*X55393D01*
X66957Y204393D02*Y203607D01*
X74043Y204393D02*Y203607D01*
G54D31*X110066Y228725D02*X114492D01*
X110066Y231874D02*X114492D01*
X110066Y235024D02*X114492D01*
X104523Y244992D02*Y240566D01*
X101374Y244992D02*Y240566D01*
X98224Y244992D02*Y240566D01*
X95075Y244992D02*Y240566D01*
X91925Y244992D02*Y240566D01*
X72508Y235023D02*X76934D01*
X72508Y231874D02*X76934D01*
X72508Y228724D02*X76934D01*
X72508Y225575D02*X76934D01*
X72508Y222425D02*X76934D01*
X72508Y219275D02*X76934D01*
X72508Y216126D02*X76934D01*
X72508Y212976D02*X76934D01*
G54D26*X110957Y284393D02*Y283607D01*
X118043Y284393D02*Y283607D01*
X94607Y280414D02*X95393D01*
X94607Y287500D02*X95393D01*
G54D31*X88775Y244992D02*Y240566D01*
X85626Y244992D02*Y240566D01*
X82476Y244992D02*Y240566D01*
G54D26*X69650Y246457D02*X70436D01*
X69650Y253543D02*X70436D01*
X72607Y290457D02*X73393D01*
X72607Y297543D02*X73393D01*
X71819Y268595D02*X74181D01*
X71819Y280405D02*X74181D01*
X72957Y309393D02*Y308607D01*
X54914Y291893D02*Y291107D01*
X62000Y291893D02*Y291107D01*
X54914Y302893D02*Y302107D01*
X62000Y302893D02*Y302107D01*
X84543Y319393D02*Y318607D01*
X80043Y309393D02*Y308607D01*
X85095Y344181D02*Y341819D01*
X84543Y329393D02*Y328607D01*
X77457Y329393D02*Y328607D01*
G54D27*X10500Y223800D02*Y223200D01*
X14400Y232000D02*Y231400D01*
G54D28*X10000Y259300D02*Y255700D01*
G54D26*X11457Y213393D02*Y212607D01*
G54D27*X18300Y223800D02*Y223200D01*
G54D28*X20000Y259300D02*Y255700D01*
G54D26*X18543Y213393D02*Y212607D01*
X33107Y261043D02*X33893D01*
X33107Y253957D02*X33893D01*
G54D27*X34500Y215300D02*Y214700D01*
X42300Y215300D02*Y214700D01*
X38400Y223500D02*Y222900D01*
G54D32*X12000Y280900D02*Y274300D01*
X21000Y280900D02*Y274300D01*
G54D33*X16500Y302000D02*X25500D01*
G54D32*X30100Y280900D02*Y274300D01*
G54D26*X62543Y318893D02*Y318107D01*
X55457Y318893D02*Y318107D01*
X77457Y319393D02*Y318607D01*
X53905Y334681D02*Y332319D01*
X96905Y344181D02*Y341819D01*
X42095Y334681D02*Y332319D01*
X177543Y164893D02*Y164107D01*
X170414Y131893D02*Y131107D01*
X170457Y142893D02*Y142107D01*
X177500Y131893D02*Y131107D01*
X177543Y142893D02*Y142107D01*
G54D34*X88665Y69827D02*X90437D01*
X88665Y67858D02*X90437D01*
X88665Y65890D02*X90437D01*
X88665Y63921D02*X90437D01*
X88665Y61953D02*X90437D01*
X88665Y59984D02*X90437D01*
X88665Y58016D02*X90437D01*
X88665Y56047D02*X90437D01*
X88665Y54079D02*X90437D01*
X88665Y52110D02*X90437D01*
X88665Y50142D02*X90437D01*
X88665Y48173D02*X90437D01*
X93094Y46500D02*Y44728D01*
X95063Y46500D02*Y44728D01*
X97031Y46500D02*Y44728D01*
X99000Y46500D02*Y44728D01*
X100969Y46500D02*Y44728D01*
X102937Y46500D02*Y44728D01*
X104906Y46500D02*Y44728D01*
X107563Y48173D02*X109335D01*
X107563Y50142D02*X109335D01*
X107563Y52110D02*X109335D01*
X107563Y54079D02*X109335D01*
X107563Y56047D02*X109335D01*
G54D26*X125607Y59957D02*X126393D01*
X125607Y67043D02*X126393D01*
G54D34*X107563Y58016D02*X109335D01*
X107563Y59984D02*X109335D01*
X107563Y61953D02*X109335D01*
X107563Y63921D02*X109335D01*
X107563Y65890D02*X109335D01*
X107563Y67858D02*X109335D01*
X107563Y69827D02*X109335D01*
X104906Y73272D02*Y71500D01*
X102937Y73272D02*Y71500D01*
X99000Y73272D02*Y71500D01*
X97031Y73272D02*Y71500D01*
X95063Y73272D02*Y71500D01*
X93094Y73272D02*Y71500D01*
G54D35*X99000Y62938D02*Y55062D01*
G54D34*X100969Y73272D02*Y71500D01*
G54D36*X93461Y107436D02*X96217D01*
X93461Y105468D02*X96217D01*
X93461Y103500D02*X96217D01*
X93461Y101532D02*X96217D01*
X93461Y99564D02*X96217D01*
G54D26*X107043Y90893D02*Y90107D01*
X99957Y90893D02*Y90107D01*
G54D36*X110783Y99564D02*X113539D01*
X110783Y101532D02*X113539D01*
X110783Y103500D02*X113539D01*
X110783Y105468D02*X113539D01*
X110783Y107436D02*X113539D01*
G54D37*X154594Y91105D02*Y87011D01*
X160500Y98821D02*Y87011D01*
G54D38*Y102445D02*Y100555D01*
G54D37*X166406Y91105D02*Y87011D01*
G54D26*X178107Y97586D02*X178893D01*
G54D28*X138200Y90500D02*X141800D01*
X138200Y100500D02*X141800D01*
G54D26*X146957Y77393D02*Y76607D01*
X154043Y77393D02*Y76607D01*
X178107Y90500D02*X178893D01*
X179107Y51957D02*X179893D01*
X179107Y59043D02*X179893D01*
G54D39*X164240Y64497D02*Y62134D01*
X160500Y64497D02*Y62134D01*
X156760Y64497D02*Y62134D01*
X160500Y54182D02*Y51819D01*
X164240Y54182D02*Y51819D01*
X156760Y54182D02*Y51819D01*
G54D26*X146607Y52957D02*X147393D01*
X146607Y60043D02*X147393D01*
G54D40*X171500Y123000D03*
X177500D03*
X183500Y125500D03*
Y130500D03*
X161500Y201000D03*
X148000Y203000D03*
X153000D03*
X122000D03*
X198000Y96500D03*
X158000Y138500D03*
X124000Y109500D03*
X88000Y131000D03*
X83000D03*
X64000D03*
Y145000D03*
X83500Y165000D03*
X88000Y174000D03*
X92000Y170500D03*
X86000Y182000D03*
X96500Y169500D03*
X101000D03*
X81500Y182000D03*
X77000D03*
X75000Y164000D03*
X72500Y182000D03*
X71500Y169500D03*
X36500Y170000D03*
X51000Y173500D03*
X40000D03*
X35000Y99500D03*
X108000Y165000D03*
X85500Y193000D03*
X62500Y192000D03*
X78500Y204500D03*
X89500Y199000D03*
X109500Y197500D03*
X94500Y199000D03*
X127000Y203000D03*
X136000Y227500D03*
X112500Y204500D03*
X117000Y203000D03*
X112500Y209000D03*
X80500Y225500D03*
G54D19*X91000Y214500D03*
X101000D03*
X96000D03*
G54D40*X103500Y190000D03*
X170500Y175500D03*
X158000Y169500D03*
X138000Y162500D03*
X119500Y157500D03*
X138000Y158000D03*
X157500Y209000D03*
G54D19*X151000Y214500D03*
X141000D03*
X146000D03*
X136000D03*
X156000D03*
G54D40*X143000Y203000D03*
X133394Y189000D03*
X165000Y135500D03*
X153000Y138500D03*
Y104500D03*
X148500D03*
X139500Y74000D03*
Y78500D03*
Y83000D03*
X172500Y104500D03*
X168000D03*
X160500Y82500D03*
X151500Y68000D03*
X172000Y53000D03*
X115500Y64500D03*
Y69000D03*
X117000Y90500D03*
X112500D03*
X90000D03*
X94500D03*
X118500Y96500D03*
X112000Y111000D03*
X112500Y96500D03*
X91500Y80500D03*
X89000Y76000D03*
X95500Y78500D03*
X101500Y79000D03*
X106000D03*
X105000Y106000D03*
X85500Y96500D03*
X138500Y291500D03*
Y309500D03*
Y296000D03*
Y300500D03*
Y305000D03*
X136500Y342000D03*
X118500Y307500D03*
X136500Y337000D03*
X103500Y338500D03*
X25500Y213000D03*
X10500Y207500D03*
X24000Y231500D03*
X14500Y203500D03*
X39000Y250000D03*
X9000Y237000D03*
X21000Y266000D03*
Y287500D03*
X35000Y294500D03*
X32000Y287000D03*
Y291500D03*
X21000Y292500D03*
X23500Y311000D03*
X19000D03*
X14500D03*
X28000D03*
X50000Y318500D03*
X69000Y222500D03*
X56500Y227500D03*
X64000Y222500D03*
X59000D03*
X25500Y223500D03*
X55000Y192000D03*
X25000Y188000D03*
X45000Y210500D03*
X49000Y208500D03*
G54D19*X57000Y255500D03*
Y261000D03*
X62000Y255500D03*
Y261000D03*
X60500Y215500D03*
Y208500D03*
X62000Y244500D03*
Y250000D03*
X57000D03*
Y244500D03*
X62000Y266500D03*
X57000D03*
X73000Y274500D03*
G54D40*X138500Y264500D03*
X121500Y254000D03*
X88500Y255000D03*
G54D19*X84000Y280500D03*
G54D40*X138500Y287000D03*
Y273500D03*
Y282500D03*
Y278000D03*
Y269000D03*
X155000Y281500D03*
X150500D03*
X146000D03*
Y287000D03*
X155000Y277000D03*
X159500D03*
X155000Y272500D03*
X159500D03*
X150500Y277000D03*
X146000D03*
Y272500D03*
X150500D03*
X159500Y281500D03*
Y292500D03*
Y297000D03*
Y301500D03*
X155000Y292500D03*
X150500D03*
X146000D03*
Y297000D03*
X150500D03*
X155000D03*
Y301500D03*
X150500D03*
X146000D03*
G54D13*G54D41*G54D42*G54D41*G54D43*G54D41*G54D42*G54D41*G54D43*G54D41*G54D13*G54D16*G54D44*G54D16*G54D44*G54D16*G54D45*G54D43*G54D41*G54D46*G54D45*G54D46*G54D45*G54D47*G54D45*G54D43*G54D41*G54D48*M02*
