G04 start of page 5 for group -4063 idx -4063 *
G04 Title: (unknown), componentmask *
G04 Creator: pcb 20110918 *
G04 CreationDate: Sat 02 Feb 2013 07:47:55 PM GMT UTC *
G04 For: petersen *
G04 Format: Gerber/RS-274X *
G04 PCB-Dimensions: 230000 350000 *
G04 PCB-Coordinate-Origin: lower left *
%MOIN*%
%FSLAX25Y25*%
%LNTOPMASK*%
%ADD104R,0.0304X0.0304*%
%ADD103R,0.1005X0.1005*%
%ADD102R,0.0438X0.0438*%
%ADD101R,0.0178X0.0178*%
%ADD100R,0.1300X0.1300*%
%ADD99R,0.0158X0.0158*%
%ADD98R,0.1280X0.1280*%
%ADD97R,0.0620X0.0620*%
%ADD96R,0.0217X0.0217*%
%ADD95R,0.0690X0.0690*%
%ADD94R,0.0420X0.0420*%
%ADD93R,0.0550X0.0550*%
%ADD92R,0.0400X0.0400*%
%ADD91R,0.0572X0.0572*%
%ADD90C,0.0900*%
%ADD89C,0.0700*%
%ADD88C,0.1500*%
%ADD87C,0.0750*%
%ADD86C,0.0760*%
%ADD85C,0.2997*%
%ADD84C,0.0660*%
%ADD83C,0.0860*%
%ADD82C,0.0001*%
G54D82*G36*
X20700Y79800D02*Y71200D01*
X29300D01*
Y79800D01*
X20700D01*
G37*
G54D83*X25000Y55500D03*
G54D82*G36*
X20700Y119800D02*Y111200D01*
X29300D01*
Y119800D01*
X20700D01*
G37*
G54D83*X25000Y95500D03*
G54D82*G36*
X50700Y85800D02*Y79200D01*
X57300D01*
Y85800D01*
X50700D01*
G37*
G54D84*X54000Y72500D03*
Y62500D03*
G54D82*G36*
X60700Y85800D02*Y79200D01*
X67300D01*
Y85800D01*
X60700D01*
G37*
G54D84*X64000Y72500D03*
Y62500D03*
G54D82*G36*
X70700Y85800D02*Y79200D01*
X77300D01*
Y85800D01*
X70700D01*
G37*
G54D84*X74000Y72500D03*
Y62500D03*
G54D82*G36*
X50700Y108300D02*Y101700D01*
X57300D01*
Y108300D01*
X50700D01*
G37*
G54D84*X64000Y105000D03*
X74000D03*
G54D82*G36*
X200700Y59800D02*Y51200D01*
X209300D01*
Y59800D01*
X200700D01*
G37*
G54D85*X213000Y17000D03*
G54D83*X181000Y23000D03*
X191000D03*
G54D82*G36*
X98700Y152800D02*Y146200D01*
X105300D01*
Y152800D01*
X98700D01*
G37*
G54D84*X123000Y149500D03*
X133000D03*
X143000D03*
X102000Y139500D03*
G54D82*G36*
X119700Y142800D02*Y136200D01*
X126300D01*
Y142800D01*
X119700D01*
G37*
G54D84*X133000Y139500D03*
X143000D03*
G54D82*G36*
X116700Y27300D02*Y18700D01*
X125300D01*
Y27300D01*
X116700D01*
G37*
G54D83*X131000Y23000D03*
X141000D03*
X151000D03*
X161000D03*
X171000D03*
X99000D03*
X109000D03*
G54D85*X17000Y17000D03*
G54D82*G36*
X34700Y27300D02*Y18700D01*
X43300D01*
Y27300D01*
X34700D01*
G37*
G54D83*X49000Y23000D03*
X59000D03*
X69000D03*
X79000D03*
X89000D03*
G54D82*G36*
X20700Y159800D02*Y151200D01*
X29300D01*
Y159800D01*
X20700D01*
G37*
G54D83*X25000Y135500D03*
X205000Y75500D03*
G54D82*G36*
X200700Y99800D02*Y91200D01*
X209300D01*
Y99800D01*
X200700D01*
G37*
G54D83*X205000Y115500D03*
G54D82*G36*
X200700Y139800D02*Y131200D01*
X209300D01*
Y139800D01*
X200700D01*
G37*
G54D83*X205000Y155500D03*
G54D82*G36*
X120094Y176800D02*Y169200D01*
X127694D01*
Y176800D01*
X120094D01*
G37*
G54D86*X143106Y173000D03*
G54D87*X166500Y187000D03*
G54D88*X201500Y179500D03*
G54D87*X176500Y192000D03*
Y202000D03*
Y212000D03*
G54D88*X201500Y219500D03*
G54D87*X166500Y197000D03*
Y207000D03*
G54D82*G36*
X40886Y313748D02*Y306748D01*
X47886D01*
Y313748D01*
X40886D01*
G37*
G54D89*X44386Y302374D03*
Y294500D03*
Y286626D03*
Y278752D03*
Y270878D03*
Y263004D03*
Y255130D03*
Y247256D03*
Y239382D03*
G54D85*X17000Y333000D03*
G54D82*G36*
X128700Y330800D02*Y322200D01*
X137300D01*
Y330800D01*
X128700D01*
G37*
G54D83*X113000Y326500D03*
G54D82*G36*
X85200Y272800D02*Y266200D01*
X91800D01*
Y272800D01*
X85200D01*
G37*
G54D84*X98500Y269500D03*
X108500D03*
X118500D03*
G54D89*X131000Y310248D03*
Y302374D03*
Y294500D03*
Y286626D03*
G54D84*X118500Y299500D03*
X108500D03*
X98500D03*
X88500D03*
G54D89*X131000Y278752D03*
Y270878D03*
G54D90*X197500Y263000D03*
Y273000D03*
G54D82*G36*
X193000Y287500D02*Y278500D01*
X202000D01*
Y287500D01*
X193000D01*
G37*
G54D89*X131000Y263004D03*
Y255130D03*
Y247256D03*
Y239382D03*
G54D85*X213000Y333000D03*
G54D82*G36*
X168700Y330800D02*Y322200D01*
X177300D01*
Y330800D01*
X168700D01*
G37*
G54D83*X153000Y326500D03*
G54D91*X170457Y164893D02*Y164107D01*
Y153893D02*Y153107D01*
X177543Y153893D02*Y153107D01*
G54D92*X85700Y150500D02*X86300D01*
X85700Y158300D02*X86300D01*
X77500Y154400D02*X78100D01*
G54D91*X98543Y193393D02*Y192607D01*
X91457Y193393D02*Y192607D01*
X78543Y140893D02*Y140107D01*
X147937Y189393D02*Y188607D01*
X140851Y189393D02*Y188607D01*
X157095Y261755D02*Y256245D01*
X145095Y246181D02*Y243819D01*
X156905Y246181D02*Y243819D01*
X143043Y222393D02*Y221607D01*
X135957Y222393D02*Y221607D01*
X171957Y244393D02*Y243607D01*
X108957Y254393D02*Y253607D01*
X116043Y254393D02*Y253607D01*
X179043Y244393D02*Y243607D01*
G54D93*X197405Y241300D02*Y237700D01*
X207405Y241300D02*Y237700D01*
G54D91*X180607Y258457D02*X181393D01*
X180607Y265543D02*X181393D01*
G54D94*X190900Y304600D02*X192100D01*
X190900Y317500D02*X192100D01*
G54D95*X171693Y287000D02*X177992D01*
G54D91*X168905Y261755D02*Y256245D01*
G54D95*X152008Y287000D02*X158307D01*
G54D91*X18543Y179893D02*Y179107D01*
X11457Y179893D02*Y179107D01*
G54D92*X10500Y190300D02*Y189700D01*
X18300Y190300D02*Y189700D01*
X14400Y198500D02*Y197900D01*
G54D91*X41843Y204893D02*Y204107D01*
X34757Y204893D02*Y204107D01*
X118808Y189393D02*Y188607D01*
X125894Y189393D02*Y188607D01*
G54D96*X98225Y207434D02*Y203008D01*
X101374Y207434D02*Y203008D01*
X104524Y207434D02*Y203008D01*
X82477Y207434D02*Y203008D01*
X85626Y207434D02*Y203008D01*
X88776Y207434D02*Y203008D01*
X91925Y207434D02*Y203008D01*
X95075Y207434D02*Y203008D01*
X110066Y212977D02*X114492D01*
X110066Y216126D02*X114492D01*
X110066Y219276D02*X114492D01*
X110066Y222425D02*X114492D01*
X110066Y225575D02*X114492D01*
G54D91*X51457Y140893D02*Y140107D01*
X51557Y150593D02*Y149807D01*
X58543Y140893D02*Y140107D01*
X58643Y150593D02*Y149807D01*
X71457Y140893D02*Y140107D01*
G54D92*X51200Y160800D02*Y160200D01*
X55100Y169000D02*Y168400D01*
X59000Y160800D02*Y160200D01*
G54D91*X54607Y203543D02*X55393D01*
X54607Y196457D02*X55393D01*
X66957Y204393D02*Y203607D01*
X74043Y204393D02*Y203607D01*
G54D96*X110066Y228725D02*X114492D01*
X110066Y231874D02*X114492D01*
X110066Y235024D02*X114492D01*
X104523Y244992D02*Y240566D01*
X101374Y244992D02*Y240566D01*
X98224Y244992D02*Y240566D01*
X95075Y244992D02*Y240566D01*
X91925Y244992D02*Y240566D01*
X72508Y235023D02*X76934D01*
X72508Y231874D02*X76934D01*
X72508Y228724D02*X76934D01*
X72508Y225575D02*X76934D01*
X72508Y222425D02*X76934D01*
X72508Y219275D02*X76934D01*
X72508Y216126D02*X76934D01*
X72508Y212976D02*X76934D01*
G54D91*X110957Y284393D02*Y283607D01*
X118043Y284393D02*Y283607D01*
X94607Y280414D02*X95393D01*
X94607Y287500D02*X95393D01*
G54D96*X88775Y244992D02*Y240566D01*
X85626Y244992D02*Y240566D01*
X82476Y244992D02*Y240566D01*
G54D91*X69650Y246457D02*X70436D01*
X69650Y253543D02*X70436D01*
X72607Y290457D02*X73393D01*
X72607Y297543D02*X73393D01*
X71819Y268595D02*X74181D01*
X71819Y280405D02*X74181D01*
X72957Y309393D02*Y308607D01*
X54914Y291893D02*Y291107D01*
X62000Y291893D02*Y291107D01*
X54914Y302893D02*Y302107D01*
X62000Y302893D02*Y302107D01*
X84543Y319393D02*Y318607D01*
X80043Y309393D02*Y308607D01*
X85095Y344181D02*Y341819D01*
X84543Y329393D02*Y328607D01*
X77457Y329393D02*Y328607D01*
G54D92*X10500Y223800D02*Y223200D01*
X14400Y232000D02*Y231400D01*
G54D93*X10000Y259300D02*Y255700D01*
G54D91*X11457Y213393D02*Y212607D01*
G54D92*X18300Y223800D02*Y223200D01*
G54D93*X20000Y259300D02*Y255700D01*
G54D91*X18543Y213393D02*Y212607D01*
X33107Y261043D02*X33893D01*
X33107Y253957D02*X33893D01*
G54D92*X34500Y215300D02*Y214700D01*
X42300Y215300D02*Y214700D01*
X38400Y223500D02*Y222900D01*
G54D97*X12000Y280900D02*Y274300D01*
X21000Y280900D02*Y274300D01*
G54D98*X16500Y302000D02*X25500D01*
G54D97*X30100Y280900D02*Y274300D01*
G54D91*X62543Y318893D02*Y318107D01*
X55457Y318893D02*Y318107D01*
X77457Y319393D02*Y318607D01*
X53905Y334681D02*Y332319D01*
X96905Y344181D02*Y341819D01*
X42095Y334681D02*Y332319D01*
X177543Y164893D02*Y164107D01*
X170414Y131893D02*Y131107D01*
X170457Y142893D02*Y142107D01*
X177500Y131893D02*Y131107D01*
X177543Y142893D02*Y142107D01*
G54D99*X88665Y69827D02*X90437D01*
X88665Y67858D02*X90437D01*
X88665Y65890D02*X90437D01*
X88665Y63921D02*X90437D01*
X88665Y61953D02*X90437D01*
X88665Y59984D02*X90437D01*
X88665Y58016D02*X90437D01*
X88665Y56047D02*X90437D01*
X88665Y54079D02*X90437D01*
X88665Y52110D02*X90437D01*
X88665Y50142D02*X90437D01*
X88665Y48173D02*X90437D01*
X93094Y46500D02*Y44728D01*
X95063Y46500D02*Y44728D01*
X97031Y46500D02*Y44728D01*
X99000Y46500D02*Y44728D01*
X100969Y46500D02*Y44728D01*
X102937Y46500D02*Y44728D01*
X104906Y46500D02*Y44728D01*
X107563Y48173D02*X109335D01*
X107563Y50142D02*X109335D01*
X107563Y52110D02*X109335D01*
X107563Y54079D02*X109335D01*
X107563Y56047D02*X109335D01*
G54D91*X125607Y59957D02*X126393D01*
X125607Y67043D02*X126393D01*
G54D99*X107563Y58016D02*X109335D01*
X107563Y59984D02*X109335D01*
X107563Y61953D02*X109335D01*
X107563Y63921D02*X109335D01*
X107563Y65890D02*X109335D01*
X107563Y67858D02*X109335D01*
X107563Y69827D02*X109335D01*
X104906Y73272D02*Y71500D01*
X102937Y73272D02*Y71500D01*
X99000Y73272D02*Y71500D01*
X97031Y73272D02*Y71500D01*
X95063Y73272D02*Y71500D01*
X93094Y73272D02*Y71500D01*
G54D100*X99000Y62938D02*Y55062D01*
G54D99*X100969Y73272D02*Y71500D01*
G54D101*X93461Y107436D02*X96217D01*
X93461Y105468D02*X96217D01*
X93461Y103500D02*X96217D01*
X93461Y101532D02*X96217D01*
X93461Y99564D02*X96217D01*
G54D91*X107043Y90893D02*Y90107D01*
X99957Y90893D02*Y90107D01*
G54D101*X110783Y99564D02*X113539D01*
X110783Y101532D02*X113539D01*
X110783Y103500D02*X113539D01*
X110783Y105468D02*X113539D01*
X110783Y107436D02*X113539D01*
G54D102*X154594Y91105D02*Y87011D01*
X160500Y98821D02*Y87011D01*
G54D103*Y102445D02*Y100555D01*
G54D102*X166406Y91105D02*Y87011D01*
G54D91*X178107Y97586D02*X178893D01*
G54D93*X138200Y90500D02*X141800D01*
X138200Y100500D02*X141800D01*
G54D91*X146957Y77393D02*Y76607D01*
X154043Y77393D02*Y76607D01*
X178107Y90500D02*X178893D01*
X179107Y51957D02*X179893D01*
X179107Y59043D02*X179893D01*
G54D104*X164240Y64497D02*Y62134D01*
X160500Y64497D02*Y62134D01*
X156760Y64497D02*Y62134D01*
X160500Y54182D02*Y51819D01*
X164240Y54182D02*Y51819D01*
X156760Y54182D02*Y51819D01*
G54D91*X146607Y52957D02*X147393D01*
X146607Y60043D02*X147393D01*
M02*
